<svg width="239" height="104" viewBox="0 0 239 104" fill="none" xmlns="http://www.w3.org/2000/svg">
<path d="M5.56108 84.6591V63.9489L45.0639 1.81818H63.8565V29.4318H53.1179L31.8324 63.1818V63.9489H90.1278V84.6591H5.56108ZM53.3097 100V78.331L53.8849 69.3182V1.81818H78.8139V100H53.3097Z" fill="black"/>
<path d="M121.283 102.685C112.366 102.653 104.663 100.591 98.1754 96.5004C91.6875 92.4094 86.6857 86.5128 83.1701 78.8104C79.6545 71.108 77.9126 61.8714 77.9446 51.1009C77.9766 40.2983 79.7344 31.1257 83.218 23.5831C86.7337 16.0405 91.7195 10.3036 98.1754 6.37251C104.663 2.4414 112.366 0.475849 121.283 0.475849C130.2 0.475849 137.902 2.45738 144.39 6.42046C150.878 10.3516 155.88 16.0884 159.395 23.631C162.911 31.1736 164.653 40.3303 164.621 51.1009C164.621 61.9354 162.863 71.2038 159.347 78.9062C155.832 86.6087 150.83 92.5053 144.342 96.5962C137.886 100.655 130.2 102.685 121.283 102.685ZM121.283 81.0156C125.885 81.0156 129.656 78.6186 132.597 73.8246C135.569 68.9986 137.039 61.424 137.007 51.1009C137.007 44.3572 136.336 38.8441 134.994 34.5614C133.651 30.2788 131.798 27.1147 129.433 25.0692C127.067 22.9918 124.351 21.9531 121.283 21.9531C116.68 21.9531 112.925 24.2862 110.017 28.9524C107.108 33.6186 105.622 41.0014 105.558 51.1009C105.526 57.9723 106.181 63.6293 107.524 68.0717C108.866 72.4822 110.72 75.7422 113.085 77.8516C115.482 79.9609 118.214 81.0156 121.283 81.0156Z" fill="black"/>
<path d="M149.561 88.6591V67.9489L189.064 5.81818H207.857V33.4318H197.118L175.832 67.1818V67.9489H234.128V88.6591H149.561ZM197.31 104V82.331L197.885 73.3182V5.81818H222.814V104H197.31Z" fill="black"/>
</svg>
