<svg width="748" height="596" viewBox="0 0 748 596" fill="none" xmlns="http://www.w3.org/2000/svg">
<path d="M606.112 524.786C606.112 524.786 638.646 516.548 665.588 491.939C692.53 467.331 703.016 432.205 703.016 432.205" stroke="#E8C5B0" stroke-width="2" stroke-linecap="square"/>
<path d="M605.641 525.307C605.641 525.307 615.217 525.785 621.305 528.626C627.394 531.467 629.391 535.887 629.391 535.887" stroke="#E8C5B0" stroke-width="2" stroke-linecap="square"/>
<path d="M606.249 525.023C606.249 525.023 613.107 517 615.089 512.55C617.071 508.101 618.341 501.947 618.341 501.947" stroke="#E8C5B0" stroke-width="2" stroke-linecap="square"/>
<path d="M358.46 587.461C358.46 591.01 355.452 593.986 351.619 593.986C347.787 593.986 344.779 591.01 344.779 587.461C344.779 583.912 347.787 580.937 351.619 580.937C355.452 580.937 358.46 583.912 358.46 587.461Z" stroke="#E8C5B0" stroke-width="3"/>
<path d="M185.51 227.213C185.51 232.395 181.127 236.694 175.597 236.694C170.067 236.694 165.684 232.395 165.684 227.213C165.684 222.032 170.067 217.733 175.597 217.733C181.127 217.733 185.51 222.032 185.51 227.213Z" stroke="#E8C5B0" stroke-width="3"/>
<path d="M746.5 77.2864C746.5 91.5649 734.452 103.238 719.468 103.238C704.483 103.238 692.435 91.5649 692.435 77.2864C692.435 63.0079 704.483 51.335 719.468 51.335C734.452 51.335 746.5 63.0079 746.5 77.2864Z" stroke="#E8C5B0" stroke-width="3"/>
<path fill-rule="evenodd" clip-rule="evenodd" d="M211.324 5.94149C211.231 5.66648 211.184 5.52897 211.175 5.4068C211.146 5.04077 211.323 4.69243 211.636 4.50068C211.741 4.43667 211.879 4.39337 212.156 4.30676C212.433 4.22015 212.572 4.17684 212.696 4.16952C213.066 4.14757 213.422 4.32905 213.622 4.6416C213.689 4.74593 213.736 4.88344 213.829 5.15845L216.664 13.5551L214.159 14.3381L211.324 5.94149ZM211.905 18.5955L203.099 21.3482C202.858 21.4236 202.737 21.4612 202.645 21.514C202.306 21.707 202.116 22.0798 202.159 22.4676C202.171 22.5735 202.211 22.6932 202.292 22.9326C202.373 23.172 202.414 23.2917 202.469 23.3841C202.671 23.7223 203.052 23.9166 203.444 23.8809C203.551 23.8712 203.672 23.8335 203.913 23.7581L212.719 21.0054L211.905 18.5955ZM216.872 22.3713L219.708 30.7679C219.801 31.0429 219.847 31.1805 219.914 31.2848C220.114 31.5973 220.47 31.7788 220.841 31.7569C220.965 31.7495 221.103 31.7062 221.38 31.6196C221.657 31.533 221.796 31.4897 221.9 31.4257C222.213 31.234 222.391 30.8856 222.362 30.5196C222.352 30.3974 222.306 30.2599 222.213 29.9849L219.377 21.5883L216.872 22.3713ZM221.068 18.3953L229.874 15.6426C230.115 15.5672 230.235 15.5295 230.328 15.4768C230.667 15.2838 230.857 14.911 230.814 14.5232C230.802 14.4172 230.761 14.2975 230.681 14.0581C230.6 13.8188 230.559 13.6991 230.504 13.6066C230.302 13.2684 229.921 13.0742 229.529 13.1098C229.421 13.1196 229.301 13.1572 229.06 13.2326L220.254 15.9853L221.068 18.3953Z" fill="#E8C5B0"/>
<path d="M147.315 83.8135C147.315 83.8135 124.33 51.7747 85.5365 32.7227C46.7432 13.6707 3.26169 16.9983 3.26169 16.9983" stroke="#E8C5B0" stroke-width="2" stroke-linecap="square"/>
<path d="M147.449 83.3521C147.449 83.3521 143.245 73.3958 144.05 65.5661C144.855 57.7363 149.057 53.8295 149.057 53.8295" stroke="#E8C5B0" stroke-width="2" stroke-linecap="square"/>
<path d="M147.809 84.3303C147.809 84.3303 135.754 79.4934 129.841 79.1952C123.928 78.8971 116.374 80.4107 116.374 80.4107" stroke="#E8C5B0" stroke-width="2" stroke-linecap="square"/>
</svg>
