<svg width="468" height="530" viewBox="0 0 468 530" fill="none" xmlns="http://www.w3.org/2000/svg">
<g filter="url(#filter0_d_189_751)">
<rect x="49" y="25" width="370" height="432" rx="8" fill="white"/>
<rect x="49" y="25" width="370" height="432" rx="8" stroke="#F1D7C8"/>
</g>
<path d="M106.504 316.416C105.555 316.416 104.579 316.336 103.576 316.176C102.584 316.027 101.651 315.829 100.776 315.584C99.912 315.339 99.208 315.083 98.664 314.816L99.048 310.192C99.784 310.608 100.552 310.965 101.352 311.264C102.163 311.552 102.968 311.776 103.768 311.936C104.579 312.096 105.352 312.176 106.088 312.176C106.824 312.176 107.464 312.085 108.008 311.904C108.552 311.723 108.973 311.451 109.272 311.088C109.571 310.715 109.72 310.235 109.72 309.648C109.72 309.051 109.523 308.56 109.128 308.176C108.744 307.781 108.189 307.44 107.464 307.152C106.739 306.853 105.875 306.56 104.872 306.272C103.485 305.867 102.301 305.397 101.32 304.864C100.339 304.32 99.5867 303.627 99.064 302.784C98.552 301.931 98.296 300.837 98.296 299.504C98.296 298.171 98.5893 296.997 99.176 295.984C99.7627 294.96 100.648 294.16 101.832 293.584C103.016 293.008 104.515 292.72 106.328 292.72C107.043 292.72 107.757 292.768 108.472 292.864C109.187 292.949 109.88 293.067 110.552 293.216C111.235 293.365 111.864 293.536 112.44 293.728C113.016 293.92 113.517 294.123 113.944 294.336L113.544 298.976C112.861 298.549 112.152 298.192 111.416 297.904C110.68 297.616 109.96 297.397 109.256 297.248C108.552 297.099 107.912 297.024 107.336 297.024C106.685 297.024 106.093 297.109 105.56 297.28C105.037 297.451 104.621 297.712 104.312 298.064C104.003 298.416 103.848 298.859 103.848 299.392C103.848 299.915 103.992 300.357 104.28 300.72C104.579 301.072 105.032 301.387 105.64 301.664C106.259 301.931 107.053 302.208 108.024 302.496C109.848 303.04 111.288 303.611 112.344 304.208C113.4 304.795 114.147 305.504 114.584 306.336C115.032 307.168 115.256 308.213 115.256 309.472C115.256 310.869 114.952 312.091 114.344 313.136C113.736 314.171 112.787 314.976 111.496 315.552C110.205 316.128 108.541 316.416 106.504 316.416ZM124.706 316.432C123.522 316.432 122.509 316.256 121.666 315.904C120.834 315.541 120.194 314.965 119.746 314.176C119.309 313.387 119.09 312.347 119.09 311.056C119.09 310.363 119.09 309.653 119.09 308.928C119.09 308.192 119.09 307.424 119.09 306.624C119.09 305.824 119.09 304.981 119.09 304.096C119.09 303.211 119.09 302.256 119.09 301.232C119.09 300.027 119.09 298.923 119.09 297.92C119.09 296.917 119.09 295.893 119.09 294.848L123.794 294C123.794 294.832 123.794 295.621 123.794 296.368C123.794 297.104 123.794 297.867 123.794 298.656C123.794 299.435 123.794 300.293 123.794 301.232V309.552C123.794 310.523 123.97 311.264 124.322 311.776C124.685 312.277 125.272 312.528 126.082 312.528C126.424 312.528 126.797 312.469 127.202 312.352C127.608 312.224 127.997 312.027 128.37 311.76L128.642 315.632C128.365 315.803 128.013 315.947 127.586 316.064C127.16 316.181 126.696 316.272 126.194 316.336C125.693 316.4 125.197 316.432 124.706 316.432ZM116.498 303.632V300.032H128.562V303.632C127.56 303.632 126.552 303.632 125.538 303.632C124.536 303.632 123.565 303.632 122.626 303.632H120.498H116.498ZM139.281 316.416C137.222 316.416 135.537 316.053 134.225 315.328C132.923 314.603 131.963 313.605 131.345 312.336C130.737 311.067 130.433 309.611 130.433 307.968C130.433 306.325 130.721 304.875 131.297 303.616C131.873 302.357 132.731 301.376 133.873 300.672C135.025 299.957 136.454 299.6 138.161 299.6C139.611 299.6 140.854 299.861 141.889 300.384C142.923 300.896 143.718 301.675 144.273 302.72C144.827 303.765 145.105 305.083 145.105 306.672C145.105 307.099 145.094 307.477 145.073 307.808C145.051 308.139 145.014 308.469 144.961 308.8L140.865 307.248C140.886 307.109 140.902 306.965 140.913 306.816C140.923 306.667 140.929 306.528 140.929 306.4C140.929 305.323 140.673 304.48 140.161 303.872C139.659 303.253 139.009 302.944 138.209 302.944C137.601 302.944 137.062 303.125 136.593 303.488C136.123 303.84 135.755 304.336 135.489 304.976C135.222 305.616 135.089 306.379 135.089 307.264V308.048C135.089 308.976 135.254 309.771 135.585 310.432C135.926 311.093 136.449 311.6 137.153 311.952C137.857 312.304 138.758 312.48 139.857 312.48C140.283 312.48 140.774 312.443 141.329 312.368C141.894 312.283 142.465 312.16 143.041 312C143.627 311.829 144.171 311.616 144.673 311.36L144.833 315.392C144.417 315.584 143.931 315.76 143.377 315.92C142.833 316.069 142.214 316.187 141.521 316.272C140.827 316.368 140.081 316.416 139.281 316.416ZM132.273 308.8V306.24L142.177 306.032L144.961 306.816V308.8H132.273ZM148.124 322.288C148.124 321.147 148.124 320.016 148.124 318.896C148.124 317.776 148.124 316.555 148.124 315.232V307.488C148.124 306.261 148.124 305.029 148.124 303.792C148.124 302.555 148.124 301.301 148.124 300.032L152.364 299.792L152.508 301.984H152.892C153.212 301.483 153.596 301.056 154.044 300.704C154.503 300.341 155.02 300.069 155.596 299.888C156.172 299.696 156.807 299.6 157.5 299.6C158.908 299.6 160.092 299.968 161.052 300.704C162.012 301.44 162.738 302.443 163.228 303.712C163.719 304.981 163.964 306.411 163.964 308C163.964 309.483 163.73 310.864 163.26 312.144C162.802 313.424 162.098 314.459 161.148 315.248C160.199 316.037 158.999 316.432 157.548 316.432C156.898 316.432 156.306 316.341 155.772 316.16C155.25 315.989 154.775 315.744 154.348 315.424C153.922 315.104 153.538 314.72 153.196 314.272H152.908V315.488C152.908 316.683 152.908 317.803 152.908 318.848C152.908 319.904 152.908 321.003 152.908 322.144L148.124 322.288ZM155.74 312.368C156.498 312.368 157.122 312.16 157.612 311.744C158.114 311.328 158.482 310.795 158.716 310.144C158.951 309.483 159.068 308.779 159.068 308.032C159.068 307.253 158.946 306.539 158.7 305.888C158.455 305.227 158.082 304.699 157.58 304.304C157.09 303.909 156.466 303.712 155.708 303.712C155.335 303.712 154.972 303.771 154.62 303.888C154.279 303.995 153.959 304.155 153.66 304.368C153.372 304.581 153.122 304.837 152.908 305.136V310.576C153.1 310.939 153.33 311.253 153.596 311.52C153.863 311.787 154.172 311.995 154.524 312.144C154.887 312.293 155.292 312.368 155.74 312.368ZM173.043 301.888L171.907 298.064C173.357 297.36 174.808 296.661 176.259 295.968C177.709 295.264 179.16 294.56 180.611 293.856L180.435 298.256C179.197 298.864 177.965 299.472 176.739 300.08C175.512 300.677 174.28 301.28 173.043 301.888ZM178.067 316C178.067 314.859 178.067 313.755 178.067 312.688C178.067 311.611 178.067 310.411 178.067 309.088V302.624C178.067 301.525 178.067 300.432 178.067 299.344C178.067 298.245 178.067 297.141 178.067 296.032L180.611 293.856L182.995 294C182.995 295.248 182.995 296.512 182.995 297.792C182.995 299.061 182.995 300.352 182.995 301.664V309.088C182.995 310.411 182.995 311.611 182.995 312.688C182.995 313.755 182.995 314.859 182.995 316H178.067Z" fill="#1D4645"/>
<path d="M98.48 361C98.48 360.365 98.48 359.755 98.48 359.168C98.48 358.581 98.48 357.936 98.48 357.232V353.408C98.48 352.688 98.48 352.032 98.48 351.44C98.48 350.843 98.48 350.227 98.48 349.592H105.432V350.84C104.899 350.84 104.325 350.84 103.712 350.84C103.104 350.84 102.387 350.84 101.56 350.84H99.288L99.904 349.8C99.904 350.44 99.904 351.059 99.904 351.656C99.904 352.248 99.904 352.901 99.904 353.616V357.232C99.904 357.936 99.904 358.581 99.904 359.168C99.904 359.755 99.904 360.365 99.904 361H98.48ZM99.56 355.896V354.688H101.664C102.4 354.688 103.035 354.688 103.568 354.688C104.101 354.688 104.616 354.688 105.112 354.688V355.896C104.584 355.896 104.053 355.896 103.52 355.896C102.992 355.896 102.368 355.896 101.648 355.896H99.56ZM107.564 361C107.564 360.408 107.564 359.84 107.564 359.296C107.564 358.752 107.564 358.152 107.564 357.496V356.696C107.564 356.221 107.564 355.784 107.564 355.384C107.564 354.979 107.564 354.589 107.564 354.216C107.564 353.837 107.564 353.453 107.564 353.064L108.892 353.016C108.892 353.411 108.892 353.8 108.892 354.184C108.892 354.563 108.892 354.957 108.892 355.368C108.892 355.773 108.892 356.216 108.892 356.696V357.496C108.892 358.152 108.892 358.752 108.892 359.296C108.892 359.84 108.892 360.408 108.892 361H107.564ZM108.204 351.232C107.916 351.232 107.681 351.152 107.5 350.992C107.319 350.832 107.228 350.587 107.228 350.256C107.228 349.931 107.319 349.688 107.5 349.528C107.681 349.363 107.921 349.28 108.22 349.28C108.513 349.28 108.748 349.365 108.924 349.536C109.1 349.701 109.188 349.941 109.188 350.256C109.188 350.587 109.1 350.832 108.924 350.992C108.748 351.152 108.508 351.232 108.204 351.232ZM111.657 361C111.657 360.408 111.657 359.84 111.657 359.296C111.657 358.752 111.657 358.152 111.657 357.496V353.104C111.657 352.432 111.657 351.779 111.657 351.144C111.657 350.509 111.657 349.891 111.657 349.288L112.977 349.128C112.977 349.773 112.977 350.421 112.977 351.072C112.977 351.717 112.977 352.395 112.977 353.104V357.496C112.977 358.152 112.977 358.752 112.977 359.296C112.977 359.84 112.977 360.408 112.977 361H111.657ZM115.72 361C115.72 360.408 115.72 359.84 115.72 359.296C115.72 358.752 115.72 358.152 115.72 357.496V353.104C115.72 352.432 115.72 351.779 115.72 351.144C115.72 350.509 115.72 349.891 115.72 349.288L117.04 349.128C117.04 349.773 117.04 350.421 117.04 351.072C117.04 351.717 117.04 352.395 117.04 353.104V357.496C117.04 358.152 117.04 358.752 117.04 359.296C117.04 359.84 117.04 360.408 117.04 361H115.72ZM125.853 361.176C125.325 361.176 124.877 361.085 124.509 360.904C124.141 360.717 123.861 360.437 123.669 360.064C123.482 359.685 123.389 359.203 123.389 358.616C123.389 358.152 123.389 357.693 123.389 357.24C123.389 356.781 123.389 356.333 123.389 355.896C123.389 355.453 123.389 355.029 123.389 354.624C123.389 354.213 123.389 353.821 123.389 353.448C123.389 352.904 123.389 352.4 123.389 351.936C123.389 351.472 123.389 350.989 123.389 350.488L124.693 350.2C124.693 350.595 124.693 350.96 124.693 351.296C124.693 351.632 124.693 351.971 124.693 352.312C124.693 352.653 124.693 353.032 124.693 353.448V358.304C124.693 358.875 124.813 359.304 125.053 359.592C125.298 359.88 125.671 360.024 126.173 360.024C126.37 360.024 126.586 359.992 126.821 359.928C127.055 359.859 127.263 359.752 127.445 359.608L127.557 360.768C127.45 360.848 127.306 360.92 127.125 360.984C126.943 361.043 126.743 361.088 126.525 361.12C126.306 361.157 126.082 361.176 125.853 361.176ZM121.861 354.112V353.064H127.477V354.112C126.943 354.112 126.405 354.112 125.861 354.112C125.322 354.112 124.797 354.112 124.285 354.112H123.741H121.861ZM129.407 361C129.407 360.408 129.407 359.84 129.407 359.296C129.407 358.752 129.407 358.152 129.407 357.496V353.104C129.407 352.432 129.407 351.779 129.407 351.144C129.407 350.509 129.407 349.891 129.407 349.288L130.727 349.128C130.727 349.763 130.727 350.408 130.727 351.064C130.727 351.715 130.727 352.395 130.727 353.104V354.384H130.871C131.031 354.16 131.237 353.931 131.487 353.696C131.743 353.461 132.045 353.267 132.391 353.112C132.743 352.952 133.143 352.872 133.591 352.872C134.434 352.872 135.05 353.115 135.439 353.6C135.829 354.085 136.023 354.789 136.023 355.712C136.023 356.059 136.023 356.365 136.023 356.632C136.023 356.899 136.023 357.187 136.023 357.496C136.023 358.125 136.023 358.72 136.023 359.28C136.023 359.835 136.023 360.408 136.023 361H134.703C134.703 360.408 134.703 359.837 134.703 359.288C134.703 358.733 134.703 358.155 134.703 357.552V356.048C134.703 355.413 134.589 354.933 134.359 354.608C134.135 354.283 133.727 354.12 133.135 354.12C132.778 354.12 132.453 354.192 132.159 354.336C131.866 354.48 131.599 354.675 131.359 354.92C131.125 355.16 130.914 355.427 130.727 355.72V357.552C130.727 358.176 130.727 358.76 130.727 359.304C130.727 359.843 130.727 360.408 130.727 361H129.407ZM142.163 361.176C141.214 361.176 140.432 360.995 139.819 360.632C139.206 360.269 138.75 359.773 138.451 359.144C138.152 358.515 138.003 357.795 138.003 356.984C138.003 356.184 138.15 355.475 138.443 354.856C138.736 354.237 139.158 353.755 139.707 353.408C140.256 353.056 140.912 352.88 141.675 352.88C142.347 352.88 142.923 353.011 143.403 353.272C143.888 353.533 144.262 353.917 144.523 354.424C144.784 354.925 144.915 355.547 144.915 356.288C144.915 356.485 144.91 356.664 144.899 356.824C144.894 356.979 144.878 357.136 144.851 357.296L143.691 356.712C143.702 356.627 143.707 356.547 143.707 356.472C143.712 356.392 143.715 356.315 143.715 356.24C143.715 355.488 143.528 354.917 143.155 354.528C142.782 354.133 142.294 353.936 141.691 353.936C141.206 353.936 140.787 354.061 140.435 354.312C140.088 354.557 139.819 354.899 139.627 355.336C139.435 355.773 139.339 356.272 139.339 356.832V357.016C139.339 357.635 139.446 358.168 139.659 358.616C139.872 359.064 140.195 359.411 140.627 359.656C141.064 359.896 141.619 360.016 142.291 360.016C142.542 360.016 142.806 359.997 143.083 359.96C143.366 359.917 143.643 359.853 143.915 359.768C144.192 359.683 144.456 359.571 144.707 359.432L144.763 360.624C144.56 360.736 144.326 360.835 144.059 360.92C143.792 361 143.499 361.061 143.179 361.104C142.859 361.152 142.52 361.176 142.163 361.176ZM138.555 357.296V356.352L144.043 356.304L144.851 356.608V357.296H138.555ZM150.599 361C150.599 360.408 150.599 359.84 150.599 359.296C150.599 358.752 150.599 358.152 150.599 357.496V356.696C150.599 356.371 150.599 356.029 150.599 355.672C150.599 355.309 150.599 354.933 150.599 354.544C150.599 354.155 150.599 353.752 150.599 353.336C150.599 352.915 150.599 352.477 150.599 352.024C150.599 351.459 150.674 350.987 150.823 350.608C150.978 350.229 151.188 349.928 151.455 349.704C151.727 349.48 152.036 349.32 152.383 349.224C152.73 349.123 153.1 349.072 153.495 349.072C153.687 349.072 153.874 349.083 154.055 349.104C154.236 349.12 154.402 349.144 154.551 349.176C154.706 349.208 154.836 349.245 154.943 349.288L154.823 350.432C154.652 350.368 154.468 350.32 154.271 350.288C154.079 350.251 153.876 350.232 153.663 350.232C153.039 350.232 152.583 350.384 152.295 350.688C152.012 350.987 151.871 351.443 151.871 352.056C151.871 352.221 151.871 352.408 151.871 352.616C151.871 352.819 151.871 352.968 151.871 353.064L151.919 353.36V357.496C151.919 358.152 151.919 358.752 151.919 359.296C151.919 359.84 151.919 360.408 151.919 361H150.599ZM149.095 354.112V353.064H154.607V354.112C154.074 354.112 153.554 354.112 153.047 354.112C152.54 354.112 152.031 354.112 151.519 354.112H150.975H149.095ZM159.433 361.176C158.777 361.176 158.198 361.064 157.697 360.84C157.201 360.611 156.785 360.301 156.449 359.912C156.113 359.523 155.857 359.077 155.681 358.576C155.51 358.069 155.425 357.539 155.425 356.984C155.425 356.189 155.585 355.485 155.905 354.872C156.23 354.253 156.689 353.765 157.281 353.408C157.878 353.051 158.588 352.872 159.409 352.872C160.044 352.872 160.606 352.976 161.097 353.184C161.588 353.392 162.004 353.683 162.345 354.056C162.686 354.429 162.945 354.867 163.121 355.368C163.297 355.864 163.385 356.403 163.385 356.984C163.385 357.768 163.225 358.477 162.905 359.112C162.585 359.747 162.129 360.251 161.537 360.624C160.95 360.992 160.249 361.176 159.433 361.176ZM159.433 360.024C160.014 360.024 160.497 359.88 160.881 359.592C161.265 359.304 161.553 358.928 161.745 358.464C161.937 358 162.033 357.507 162.033 356.984C162.033 356.387 161.926 355.867 161.713 355.424C161.5 354.981 161.198 354.637 160.809 354.392C160.42 354.147 159.958 354.024 159.425 354.024C158.849 354.024 158.364 354.155 157.969 354.416C157.574 354.677 157.276 355.032 157.073 355.48C156.876 355.928 156.777 356.429 156.777 356.984C156.777 357.507 156.873 358 157.065 358.464C157.262 358.928 157.558 359.304 157.953 359.592C158.348 359.88 158.841 360.024 159.433 360.024ZM165.564 361C165.564 360.408 165.564 359.84 165.564 359.296C165.564 358.752 165.564 358.152 165.564 357.496V356.696C165.564 356.109 165.564 355.509 165.564 354.896C165.564 354.283 165.564 353.672 165.564 353.064L166.716 352.984L166.756 354.6H166.892C167.11 354.115 167.361 353.749 167.644 353.504C167.932 353.253 168.222 353.085 168.516 353C168.809 352.915 169.078 352.872 169.324 352.872C169.473 352.872 169.622 352.883 169.772 352.904C169.921 352.925 170.062 352.96 170.196 353.008L170.076 354.336C169.9 354.304 169.74 354.277 169.596 354.256C169.457 354.235 169.294 354.224 169.108 354.224C168.953 354.224 168.777 354.248 168.58 354.296C168.388 354.339 168.188 354.432 167.98 354.576C167.777 354.715 167.58 354.925 167.388 355.208C167.196 355.485 167.028 355.856 166.884 356.32V357.552C166.884 358.176 166.884 358.76 166.884 359.304C166.884 359.843 166.884 360.408 166.884 361H165.564ZM171.954 361C171.954 360.408 171.954 359.84 171.954 359.296C171.954 358.752 171.954 358.152 171.954 357.496V356.696C171.954 356.109 171.954 355.509 171.954 354.896C171.954 354.283 171.954 353.672 171.954 353.064L173.106 352.984L173.146 354.44H173.29C173.455 354.205 173.663 353.968 173.914 353.728C174.17 353.483 174.471 353.28 174.818 353.12C175.165 352.955 175.562 352.872 176.01 352.872C176.661 352.872 177.159 353.035 177.506 353.36C177.858 353.68 178.087 354.141 178.194 354.744L178.274 354.792C178.295 354.936 178.311 355.085 178.322 355.24C178.338 355.389 178.346 355.547 178.346 355.712C178.346 356.059 178.346 356.365 178.346 356.632C178.346 356.899 178.346 357.187 178.346 357.496C178.346 358.125 178.346 358.72 178.346 359.28C178.346 359.835 178.346 360.408 178.346 361H177.026C177.026 360.408 177.026 359.837 177.026 359.288C177.026 358.733 177.026 358.155 177.026 357.552V356.048C177.026 355.413 176.919 354.933 176.706 354.608C176.493 354.283 176.106 354.12 175.546 354.12C175.205 354.12 174.895 354.195 174.618 354.344C174.346 354.488 174.098 354.683 173.874 354.928C173.655 355.168 173.455 355.432 173.274 355.72V357.552C173.274 358.176 173.274 358.76 173.274 359.304C173.274 359.843 173.274 360.408 173.274 361H171.954ZM182.034 361C182.034 360.408 182.034 359.837 182.034 359.288C182.034 358.733 182.034 358.155 182.034 357.552V356.048C182.034 355.413 181.927 354.933 181.714 354.608C181.501 354.283 181.114 354.12 180.554 354.12C180.218 354.12 179.911 354.192 179.634 354.336C179.362 354.48 179.111 354.675 178.882 354.92C178.658 355.16 178.458 355.427 178.282 355.72L178.09 354.472H178.234C178.415 354.227 178.637 353.981 178.898 353.736C179.165 353.485 179.474 353.28 179.826 353.12C180.178 352.955 180.578 352.872 181.026 352.872C181.858 352.872 182.453 353.12 182.81 353.616C183.173 354.112 183.354 354.811 183.354 355.712C183.354 356.059 183.354 356.365 183.354 356.632C183.354 356.899 183.354 357.187 183.354 357.496C183.354 358.125 183.354 358.72 183.354 359.28C183.354 359.835 183.354 360.408 183.354 361H182.034ZM190.826 361.16C190.351 361.16 189.935 361.069 189.578 360.888C189.22 360.701 188.94 360.437 188.738 360.096C188.54 359.755 188.442 359.344 188.442 358.864C188.442 358.432 188.519 358.069 188.674 357.776C188.828 357.477 189.031 357.235 189.282 357.048C189.532 356.861 189.81 356.717 190.114 356.616C190.418 356.509 190.722 356.429 191.026 356.376L193.514 355.944C193.535 355.405 193.463 355 193.298 354.728C193.138 354.451 192.911 354.264 192.618 354.168C192.324 354.072 191.999 354.024 191.642 354.024C191.46 354.024 191.266 354.037 191.058 354.064C190.85 354.091 190.628 354.133 190.394 354.192C190.164 354.245 189.922 354.315 189.666 354.4C189.41 354.485 189.14 354.589 188.858 354.712L188.786 353.504C188.978 353.424 189.194 353.347 189.434 353.272C189.679 353.197 189.938 353.131 190.21 353.072C190.487 353.008 190.77 352.96 191.058 352.928C191.346 352.896 191.636 352.88 191.93 352.88C192.522 352.88 193.031 352.973 193.458 353.16C193.89 353.347 194.22 353.64 194.45 354.04C194.679 354.44 194.794 354.963 194.794 355.608C194.794 355.853 194.794 356.165 194.794 356.544C194.794 356.923 194.794 357.283 194.794 357.624V358.656C194.794 359.019 194.794 359.389 194.794 359.768C194.794 360.141 194.794 360.552 194.794 361H193.594L193.522 359.872H193.394C193.228 360.085 193.02 360.291 192.77 360.488C192.519 360.685 192.228 360.848 191.898 360.976C191.572 361.099 191.215 361.16 190.826 361.16ZM191.21 360.064C191.492 360.064 191.775 360.005 192.058 359.888C192.34 359.771 192.604 359.597 192.85 359.368C193.1 359.133 193.311 358.84 193.482 358.488L193.49 356.776C193.404 356.824 193.29 356.872 193.146 356.92C193.007 356.968 192.796 357.024 192.514 357.088C192.236 357.147 191.85 357.221 191.354 357.312C191.05 357.365 190.78 357.453 190.546 357.576C190.311 357.693 190.124 357.856 189.986 358.064C189.852 358.267 189.786 358.515 189.786 358.808C189.786 359.267 189.922 359.592 190.194 359.784C190.471 359.971 190.81 360.064 191.21 360.064ZM197.345 361C197.345 360.408 197.345 359.84 197.345 359.296C197.345 358.752 197.345 358.152 197.345 357.496V356.696C197.345 356.109 197.345 355.509 197.345 354.896C197.345 354.283 197.345 353.672 197.345 353.064L198.497 352.984L198.537 354.456H198.681C198.851 354.216 199.07 353.973 199.337 353.728C199.603 353.483 199.918 353.28 200.281 353.12C200.643 352.955 201.059 352.872 201.529 352.872C202.371 352.872 202.987 353.115 203.377 353.6C203.766 354.085 203.961 354.789 203.961 355.712C203.961 356.059 203.961 356.365 203.961 356.632C203.961 356.899 203.961 357.187 203.961 357.496C203.961 358.125 203.961 358.72 203.961 359.28C203.961 359.835 203.961 360.408 203.961 361H202.641C202.641 360.408 202.641 359.837 202.641 359.288C202.641 358.733 202.641 358.155 202.641 357.552V356.048C202.641 355.413 202.526 354.933 202.297 354.608C202.073 354.283 201.665 354.12 201.073 354.12C200.715 354.12 200.39 354.192 200.097 354.336C199.803 354.48 199.537 354.675 199.297 354.92C199.062 355.16 198.851 355.427 198.665 355.72V357.552C198.665 358.176 198.665 358.76 198.665 359.304C198.665 359.843 198.665 360.408 198.665 361H197.345ZM209.341 361.176C208.583 361.176 207.954 360.984 207.453 360.6C206.951 360.211 206.575 359.701 206.325 359.072C206.074 358.437 205.949 357.749 205.949 357.008C205.949 356.219 206.082 355.512 206.349 354.888C206.615 354.264 207.002 353.773 207.509 353.416C208.021 353.053 208.639 352.872 209.365 352.872C209.733 352.872 210.069 352.923 210.373 353.024C210.682 353.12 210.954 353.251 211.189 353.416C211.423 353.576 211.618 353.755 211.773 353.952H211.909V353.104C211.909 352.432 211.909 351.781 211.909 351.152C211.909 350.517 211.909 349.896 211.909 349.288L213.229 349.128C213.229 349.773 213.229 350.421 213.229 351.072C213.229 351.717 213.229 352.395 213.229 353.104V357.496C213.229 358.152 213.229 358.752 213.229 359.296C213.229 359.84 213.229 360.408 213.229 361H212.077L212.013 359.912H211.885C211.677 360.184 211.445 360.413 211.189 360.6C210.933 360.787 210.65 360.928 210.341 361.024C210.037 361.125 209.703 361.176 209.341 361.176ZM209.741 359.992C210.071 359.992 210.37 359.941 210.637 359.84C210.903 359.733 211.141 359.584 211.349 359.392C211.562 359.2 211.749 358.968 211.909 358.696V355.168C211.743 354.928 211.546 354.728 211.317 354.568C211.093 354.403 210.847 354.28 210.581 354.2C210.314 354.115 210.042 354.072 209.765 354.072C209.205 354.072 208.743 354.205 208.381 354.472C208.018 354.739 207.746 355.096 207.565 355.544C207.389 355.987 207.301 356.477 207.301 357.016C207.301 357.533 207.386 358.019 207.557 358.472C207.727 358.92 207.991 359.285 208.349 359.568C208.706 359.851 209.17 359.992 209.741 359.992ZM224.086 361.176C223.184 361.176 222.371 361.029 221.646 360.736C220.926 360.443 220.312 360.032 219.806 359.504C219.299 358.971 218.91 358.347 218.638 357.632C218.371 356.912 218.238 356.128 218.238 355.28C218.238 354.128 218.475 353.109 218.95 352.224C219.424 351.333 220.083 350.637 220.926 350.136C221.768 349.635 222.75 349.384 223.87 349.384C224.248 349.384 224.616 349.411 224.974 349.464C225.331 349.517 225.67 349.589 225.99 349.68C226.31 349.771 226.606 349.869 226.878 349.976C227.15 350.083 227.384 350.192 227.582 350.304L227.454 351.696C227.038 351.451 226.632 351.253 226.238 351.104C225.848 350.949 225.464 350.837 225.086 350.768C224.712 350.699 224.347 350.664 223.99 350.664C223.168 350.664 222.438 350.851 221.798 351.224C221.158 351.597 220.654 352.131 220.286 352.824C219.923 353.512 219.742 354.333 219.742 355.288C219.742 355.923 219.835 356.52 220.022 357.08C220.214 357.64 220.496 358.133 220.87 358.56C221.248 358.987 221.715 359.323 222.27 359.568C222.83 359.808 223.48 359.928 224.222 359.928C224.494 359.928 224.766 359.912 225.038 359.88C225.31 359.843 225.579 359.787 225.845 359.712C226.112 359.637 226.374 359.539 226.63 359.416C226.891 359.288 227.147 359.139 227.398 358.968L227.51 360.344C227.286 360.488 227.038 360.613 226.766 360.72C226.499 360.827 226.216 360.915 225.918 360.984C225.624 361.048 225.323 361.096 225.014 361.128C224.704 361.16 224.395 361.176 224.086 361.176ZM229.767 361C229.767 360.408 229.767 359.84 229.767 359.296C229.767 358.752 229.767 358.152 229.767 357.496V353.104C229.767 352.432 229.767 351.779 229.767 351.144C229.767 350.509 229.767 349.891 229.767 349.288L231.087 349.128C231.087 349.773 231.087 350.421 231.087 351.072C231.087 351.717 231.087 352.395 231.087 353.104V357.496C231.087 358.152 231.087 358.752 231.087 359.296C231.087 359.84 231.087 360.408 231.087 361H229.767ZM233.845 361C233.845 360.408 233.845 359.84 233.845 359.296C233.845 358.752 233.845 358.152 233.845 357.496V356.696C233.845 356.221 233.845 355.784 233.845 355.384C233.845 354.979 233.845 354.589 233.845 354.216C233.845 353.837 233.845 353.453 233.845 353.064L235.173 353.016C235.173 353.411 235.173 353.8 235.173 354.184C235.173 354.563 235.173 354.957 235.173 355.368C235.173 355.773 235.173 356.216 235.173 356.696V357.496C235.173 358.152 235.173 358.752 235.173 359.296C235.173 359.84 235.173 360.408 235.173 361H233.845ZM234.485 351.232C234.197 351.232 233.962 351.152 233.781 350.992C233.6 350.832 233.509 350.587 233.509 350.256C233.509 349.931 233.6 349.688 233.781 349.528C233.962 349.363 234.202 349.28 234.501 349.28C234.794 349.28 235.029 349.365 235.205 349.536C235.381 349.701 235.469 349.941 235.469 350.256C235.469 350.587 235.381 350.832 235.205 350.992C235.029 351.152 234.789 351.232 234.485 351.232ZM241.395 361.16C240.536 361.16 239.805 360.979 239.203 360.616C238.605 360.253 238.149 359.76 237.835 359.136C237.52 358.512 237.363 357.808 237.363 357.024C237.363 356.24 237.512 355.536 237.811 354.912C238.115 354.283 238.555 353.787 239.131 353.424C239.712 353.061 240.419 352.88 241.251 352.88C241.56 352.88 241.864 352.907 242.163 352.96C242.467 353.013 242.752 353.085 243.019 353.176C243.285 353.261 243.523 353.363 243.731 353.48L243.611 354.696C243.312 354.525 243.029 354.395 242.763 354.304C242.501 354.208 242.256 354.144 242.027 354.112C241.803 354.075 241.595 354.056 241.403 354.056C240.592 354.056 239.941 354.323 239.451 354.856C238.96 355.384 238.715 356.099 238.715 357C238.715 357.565 238.821 358.077 239.035 358.536C239.253 358.989 239.579 359.349 240.011 359.616C240.448 359.877 240.989 360.008 241.635 360.008C241.864 360.008 242.091 359.987 242.315 359.944C242.544 359.901 242.771 359.84 242.995 359.76C243.219 359.675 243.435 359.565 243.643 359.432L243.755 360.64C243.579 360.736 243.373 360.824 243.139 360.904C242.904 360.979 242.64 361.04 242.347 361.088C242.059 361.136 241.741 361.16 241.395 361.16ZM251.109 361C250.751 360.637 250.389 360.275 250.021 359.912C249.658 359.549 249.298 359.189 248.941 358.832L247.573 357.464H247.013V356.52H247.653L248.805 355.296C249.157 354.928 249.511 354.557 249.869 354.184C250.226 353.805 250.578 353.432 250.925 353.064H252.557C252.098 353.528 251.642 353.992 251.189 354.456C250.735 354.92 250.285 355.384 249.837 355.848L248.485 357.224L248.437 356.584L250.005 358.2C250.479 358.669 250.951 359.139 251.421 359.608C251.895 360.072 252.365 360.536 252.829 361H251.109ZM245.845 361C245.845 360.408 245.845 359.84 245.845 359.296C245.845 358.752 245.845 358.152 245.845 357.496V353.104C245.845 352.432 245.845 351.779 245.845 351.144C245.845 350.509 245.845 349.891 245.845 349.288L247.165 349.128C247.165 349.763 247.165 350.408 247.165 351.064C247.165 351.715 247.165 352.395 247.165 353.104V357.704C247.165 358.301 247.165 358.859 247.165 359.376C247.165 359.893 247.165 360.435 247.165 361H245.845ZM257.683 361C257.683 360.365 257.683 359.755 257.683 359.168C257.683 358.581 257.683 357.936 257.683 357.232V353.4C257.683 352.691 257.683 352.037 257.683 351.44C257.683 350.843 257.683 350.227 257.683 349.592C257.987 349.592 258.336 349.592 258.731 349.592C259.131 349.592 259.566 349.592 260.035 349.592C260.51 349.592 261.011 349.592 261.539 349.592C262.408 349.592 263.131 349.696 263.707 349.904C264.288 350.107 264.723 350.435 265.011 350.888C265.304 351.341 265.451 351.939 265.451 352.68C265.451 353.304 265.328 353.875 265.083 354.392C264.843 354.909 264.44 355.325 263.875 355.64C263.31 355.949 262.544 356.107 261.579 356.112L262.035 355.48L263.835 357.728C264.118 358.075 264.416 358.445 264.731 358.84C265.046 359.235 265.352 359.621 265.651 360C265.95 360.373 266.216 360.707 266.451 361H264.755C264.376 360.52 264.011 360.056 263.659 359.608C263.312 359.16 262.968 358.723 262.627 358.296L260.579 355.656L261.467 356.368H258.851V355.176H261.019C261.686 355.176 262.235 355.099 262.667 354.944C263.099 354.789 263.422 354.541 263.635 354.2C263.848 353.853 263.955 353.395 263.955 352.824C263.955 352.349 263.878 351.976 263.723 351.704C263.574 351.427 263.374 351.224 263.123 351.096C262.878 350.968 262.611 350.885 262.323 350.848C262.035 350.811 261.758 350.792 261.491 350.792H258.131L259.099 349.8C259.099 350.456 259.099 351.08 259.099 351.672C259.099 352.264 259.099 352.909 259.099 353.608V357.232C259.099 357.936 259.099 358.581 259.099 359.168C259.099 359.755 259.099 360.365 259.099 361H257.683ZM271.351 361.176C270.401 361.176 269.62 360.995 269.007 360.632C268.393 360.269 267.937 359.773 267.639 359.144C267.34 358.515 267.191 357.795 267.191 356.984C267.191 356.184 267.337 355.475 267.631 354.856C267.924 354.237 268.345 353.755 268.895 353.408C269.444 353.056 270.1 352.88 270.863 352.88C271.535 352.88 272.111 353.011 272.591 353.272C273.076 353.533 273.449 353.917 273.711 354.424C273.972 354.925 274.103 355.547 274.103 356.288C274.103 356.485 274.097 356.664 274.087 356.824C274.081 356.979 274.065 357.136 274.039 357.296L272.879 356.712C272.889 356.627 272.895 356.547 272.895 356.472C272.9 356.392 272.903 356.315 272.903 356.24C272.903 355.488 272.716 354.917 272.343 354.528C271.969 354.133 271.481 353.936 270.879 353.936C270.393 353.936 269.975 354.061 269.623 354.312C269.276 354.557 269.007 354.899 268.815 355.336C268.623 355.773 268.527 356.272 268.527 356.832V357.016C268.527 357.635 268.633 358.168 268.847 358.616C269.06 359.064 269.383 359.411 269.815 359.656C270.252 359.896 270.807 360.016 271.479 360.016C271.729 360.016 271.993 359.997 272.271 359.96C272.553 359.917 272.831 359.853 273.103 359.768C273.38 359.683 273.644 359.571 273.895 359.432L273.951 360.624C273.748 360.736 273.513 360.835 273.247 360.92C272.98 361 272.687 361.061 272.367 361.104C272.047 361.152 271.708 361.176 271.351 361.176ZM267.743 357.296V356.352L273.231 356.304L274.039 356.608V357.296H267.743ZM278.732 364.248C278.14 364.248 277.647 364.195 277.252 364.088C276.857 363.981 276.545 363.837 276.316 363.656C276.087 363.475 275.921 363.272 275.82 363.048C275.724 362.829 275.676 362.605 275.676 362.376C275.676 362.019 275.764 361.717 275.94 361.472C276.116 361.232 276.321 361.043 276.556 360.904C276.791 360.765 276.996 360.669 277.172 360.616V360.504C277.081 360.477 276.972 360.421 276.844 360.336C276.716 360.245 276.601 360.12 276.5 359.96C276.399 359.8 276.348 359.597 276.348 359.352C276.348 359.165 276.383 358.992 276.452 358.832C276.527 358.672 276.639 358.531 276.788 358.408C276.937 358.285 277.121 358.179 277.34 358.088V357.968C277.217 357.925 277.06 357.845 276.868 357.728C276.676 357.611 276.481 357.453 276.284 357.256C276.092 357.053 275.929 356.805 275.796 356.512C275.663 356.219 275.596 355.872 275.596 355.472C275.596 354.955 275.721 354.501 275.972 354.112C276.228 353.723 276.588 353.421 277.052 353.208C277.521 352.989 278.071 352.88 278.7 352.88C278.956 352.88 279.177 352.893 279.364 352.92C279.556 352.947 279.753 352.976 279.956 353.008C280.159 353.035 280.407 353.048 280.7 353.048H283.172V354.04C282.644 354.04 282.129 354.04 281.628 354.04C281.127 354.04 280.623 354.04 280.116 354.04L280.492 353.416C280.961 353.64 281.297 353.939 281.5 354.312C281.708 354.68 281.812 355.096 281.812 355.56C281.812 356.083 281.705 356.525 281.492 356.888C281.279 357.245 280.977 357.536 280.588 357.76C280.199 357.979 279.745 358.147 279.228 358.264C278.668 358.397 278.252 358.52 277.98 358.632C277.708 358.739 277.572 358.901 277.572 359.12C277.572 359.275 277.628 359.395 277.74 359.48C277.852 359.565 278.028 359.627 278.268 359.664C278.513 359.701 278.836 359.72 279.236 359.72H279.58C280.316 359.72 280.919 359.779 281.388 359.896C281.857 360.008 282.204 360.197 282.428 360.464C282.657 360.731 282.772 361.085 282.772 361.528C282.772 361.987 282.652 362.387 282.412 362.728C282.172 363.075 281.852 363.36 281.452 363.584C281.052 363.808 280.615 363.973 280.14 364.08C279.671 364.192 279.201 364.248 278.732 364.248ZM278.844 363.176C279.431 363.176 279.921 363.093 280.316 362.928C280.716 362.768 281.015 362.576 281.212 362.352C281.409 362.128 281.508 361.92 281.508 361.728C281.508 361.525 281.449 361.357 281.332 361.224C281.215 361.091 280.996 360.992 280.676 360.928C280.356 360.859 279.892 360.824 279.284 360.824H278.988C278.647 360.829 278.316 360.885 277.996 360.992C277.676 361.099 277.412 361.245 277.204 361.432C277.001 361.624 276.9 361.845 276.9 362.096C276.9 362.235 276.932 362.368 276.996 362.496C277.065 362.629 277.175 362.747 277.324 362.848C277.479 362.949 277.679 363.029 277.924 363.088C278.175 363.147 278.481 363.176 278.844 363.176ZM278.612 357.328C278.809 357.296 279.02 357.248 279.244 357.184C279.473 357.115 279.687 357.019 279.884 356.896C280.087 356.773 280.252 356.611 280.38 356.408C280.508 356.205 280.572 355.949 280.572 355.64C280.572 355.256 280.473 354.944 280.276 354.704C280.079 354.464 279.833 354.288 279.54 354.176C279.252 354.059 278.972 354 278.7 354C278.375 354 278.071 354.059 277.788 354.176C277.505 354.288 277.276 354.461 277.1 354.696C276.924 354.925 276.836 355.216 276.836 355.568C276.836 355.92 276.921 356.219 277.092 356.464C277.268 356.709 277.489 356.904 277.756 357.048C278.028 357.192 278.313 357.285 278.612 357.328ZM284.892 361C284.892 360.408 284.892 359.84 284.892 359.296C284.892 358.752 284.892 358.152 284.892 357.496V356.696C284.892 356.221 284.892 355.784 284.892 355.384C284.892 354.979 284.892 354.589 284.892 354.216C284.892 353.837 284.892 353.453 284.892 353.064L286.22 353.016C286.22 353.411 286.22 353.8 286.22 354.184C286.22 354.563 286.22 354.957 286.22 355.368C286.22 355.773 286.22 356.216 286.22 356.696V357.496C286.22 358.152 286.22 358.752 286.22 359.296C286.22 359.84 286.22 360.408 286.22 361H284.892ZM285.532 351.232C285.244 351.232 285.009 351.152 284.828 350.992C284.647 350.832 284.556 350.587 284.556 350.256C284.556 349.931 284.647 349.688 284.828 349.528C285.009 349.363 285.249 349.28 285.548 349.28C285.841 349.28 286.076 349.365 286.252 349.536C286.428 349.701 286.516 349.941 286.516 350.256C286.516 350.587 286.428 350.832 286.252 350.992C286.076 351.152 285.836 351.232 285.532 351.232ZM291.225 361.176C290.895 361.176 290.561 361.149 290.225 361.096C289.895 361.043 289.583 360.973 289.289 360.888C288.996 360.797 288.74 360.696 288.521 360.584L288.625 359.344C288.871 359.483 289.132 359.605 289.409 359.712C289.692 359.813 289.983 359.893 290.281 359.952C290.585 360.005 290.889 360.032 291.193 360.032C291.487 360.032 291.756 360 292.001 359.936C292.252 359.867 292.449 359.744 292.593 359.568C292.743 359.387 292.817 359.125 292.817 358.784C292.817 358.56 292.753 358.376 292.625 358.232C292.497 358.088 292.281 357.957 291.977 357.84C291.679 357.723 291.273 357.592 290.761 357.448C290.34 357.331 289.964 357.187 289.633 357.016C289.303 356.845 289.041 356.616 288.849 356.328C288.663 356.04 288.569 355.664 288.569 355.2C288.569 354.48 288.804 353.915 289.273 353.504C289.748 353.088 290.385 352.88 291.185 352.88C291.516 352.88 291.836 352.909 292.145 352.968C292.455 353.021 292.74 353.093 293.001 353.184C293.263 353.275 293.489 353.371 293.681 353.472L293.569 354.712C293.313 354.552 293.049 354.421 292.777 354.32C292.505 354.213 292.244 354.139 291.993 354.096C291.743 354.048 291.521 354.024 291.329 354.024C291.111 354.024 290.892 354.056 290.673 354.12C290.46 354.179 290.281 354.291 290.137 354.456C289.993 354.616 289.921 354.848 289.921 355.152C289.921 355.371 289.972 355.555 290.073 355.704C290.175 355.853 290.351 355.987 290.601 356.104C290.852 356.221 291.199 356.344 291.641 356.472C292.169 356.627 292.62 356.789 292.993 356.96C293.372 357.125 293.663 357.344 293.865 357.616C294.068 357.888 294.169 358.264 294.169 358.744C294.169 359.208 294.068 359.624 293.865 359.992C293.663 360.355 293.345 360.643 292.913 360.856C292.481 361.069 291.919 361.176 291.225 361.176ZM299.228 361.176C298.7 361.176 298.252 361.085 297.884 360.904C297.516 360.717 297.236 360.437 297.044 360.064C296.857 359.685 296.764 359.203 296.764 358.616C296.764 358.152 296.764 357.693 296.764 357.24C296.764 356.781 296.764 356.333 296.764 355.896C296.764 355.453 296.764 355.029 296.764 354.624C296.764 354.213 296.764 353.821 296.764 353.448C296.764 352.904 296.764 352.4 296.764 351.936C296.764 351.472 296.764 350.989 296.764 350.488L298.068 350.2C298.068 350.595 298.068 350.96 298.068 351.296C298.068 351.632 298.068 351.971 298.068 352.312C298.068 352.653 298.068 353.032 298.068 353.448V358.304C298.068 358.875 298.188 359.304 298.428 359.592C298.673 359.88 299.046 360.024 299.548 360.024C299.745 360.024 299.961 359.992 300.196 359.928C300.43 359.859 300.638 359.752 300.82 359.608L300.932 360.768C300.825 360.848 300.681 360.92 300.5 360.984C300.318 361.043 300.118 361.088 299.9 361.12C299.681 361.157 299.457 361.176 299.228 361.176ZM295.236 354.112V353.064H300.852V354.112C300.318 354.112 299.78 354.112 299.236 354.112C298.697 354.112 298.172 354.112 297.66 354.112H297.116H295.236ZM306.257 361.176C305.308 361.176 304.526 360.995 303.913 360.632C303.3 360.269 302.844 359.773 302.545 359.144C302.246 358.515 302.097 357.795 302.097 356.984C302.097 356.184 302.244 355.475 302.537 354.856C302.83 354.237 303.252 353.755 303.801 353.408C304.35 353.056 305.006 352.88 305.769 352.88C306.441 352.88 307.017 353.011 307.497 353.272C307.982 353.533 308.356 353.917 308.617 354.424C308.878 354.925 309.009 355.547 309.009 356.288C309.009 356.485 309.004 356.664 308.993 356.824C308.988 356.979 308.972 357.136 308.945 357.296L307.785 356.712C307.796 356.627 307.801 356.547 307.801 356.472C307.806 356.392 307.809 356.315 307.809 356.24C307.809 355.488 307.622 354.917 307.249 354.528C306.876 354.133 306.388 353.936 305.785 353.936C305.3 353.936 304.881 354.061 304.529 354.312C304.182 354.557 303.913 354.899 303.721 355.336C303.529 355.773 303.433 356.272 303.433 356.832V357.016C303.433 357.635 303.54 358.168 303.753 358.616C303.966 359.064 304.289 359.411 304.721 359.656C305.158 359.896 305.713 360.016 306.385 360.016C306.636 360.016 306.9 359.997 307.177 359.96C307.46 359.917 307.737 359.853 308.009 359.768C308.286 359.683 308.55 359.571 308.801 359.432L308.857 360.624C308.654 360.736 308.42 360.835 308.153 360.92C307.886 361 307.593 361.061 307.273 361.104C306.953 361.152 306.614 361.176 306.257 361.176ZM302.649 357.296V356.352L308.137 356.304L308.945 356.608V357.296H302.649ZM311.11 361C311.11 360.408 311.11 359.84 311.11 359.296C311.11 358.752 311.11 358.152 311.11 357.496V356.696C311.11 356.109 311.11 355.509 311.11 354.896C311.11 354.283 311.11 353.672 311.11 353.064L312.262 352.984L312.302 354.6H312.438C312.657 354.115 312.908 353.749 313.19 353.504C313.478 353.253 313.769 353.085 314.062 353C314.356 352.915 314.625 352.872 314.87 352.872C315.02 352.872 315.169 352.883 315.318 352.904C315.468 352.925 315.609 352.96 315.742 353.008L315.622 354.336C315.446 354.304 315.286 354.277 315.142 354.256C315.004 354.235 314.841 354.224 314.654 354.224C314.5 354.224 314.324 354.248 314.126 354.296C313.934 354.339 313.734 354.432 313.526 354.576C313.324 354.715 313.126 354.925 312.934 355.208C312.742 355.485 312.574 355.856 312.43 356.32V357.552C312.43 358.176 312.43 358.76 312.43 359.304C312.43 359.843 312.43 360.408 312.43 361H311.11Z" fill="#333333"/>
<g clip-path="url(#clip0_189_751)">
<path d="M392.755 43H71.2453C67.2438 43 64 45.6221 64 48.8566V231.143C64 234.378 67.2438 237 71.2453 237H392.755C396.756 237 400 234.378 400 231.143V48.8566C400 45.6221 396.756 43 392.755 43Z" fill="#FFF2E6"/>
<mask id="mask0_189_751" style="mask-type:alpha" maskUnits="userSpaceOnUse" x="64" y="43" width="336" height="194">
<path d="M400 43H64V237H400V43Z" fill="#1D4645"/>
</mask>
<g mask="url(#mask0_189_751)">
<path opacity="0.5" d="M88.4529 120.234C121.715 120.234 148.679 98.4378 148.679 71.5509C148.679 44.6641 121.715 22.8679 88.4529 22.8679C55.1907 22.8679 28.2264 44.6641 28.2264 71.5509C28.2264 98.4378 55.1907 120.234 88.4529 120.234Z" stroke="#F8DEBA" stroke-width="19"/>
<path opacity="0.5" d="M387.321 196.37C420.583 196.37 447.547 174.574 447.547 147.687C447.547 120.8 420.583 99.0037 387.321 99.0037C354.059 99.0037 327.094 120.8 327.094 147.687C327.094 174.574 354.059 196.37 387.321 196.37Z" stroke="#F8DEBA" stroke-width="19"/>
<g filter="url(#filter1_d_189_751)">
<path d="M87.5472 81.7999C87.5472 76.5439 92.8184 72.283 99.3208 72.283H364.679C371.182 72.283 376.453 76.5439 376.453 81.7999V237H87.5472V81.7999Z" fill="white"/>
</g>
<path d="M340.226 104.86H124.679C117.927 104.86 112.453 109.285 112.453 114.743V134.509C112.453 139.968 117.927 144.392 124.679 144.392H340.226C346.979 144.392 352.453 139.968 352.453 134.509V114.743C352.453 109.285 346.979 104.86 340.226 104.86Z" fill="white"/>
<path d="M177.66 104.494V144.759" stroke="#BDC7D2"/>
<path d="M340.226 104.86H124.679C117.927 104.86 112.453 109.285 112.453 114.743V134.509C112.453 139.968 117.927 144.392 124.679 144.392H340.226C346.979 144.392 352.453 139.968 352.453 134.509V114.743C352.453 109.285 346.979 104.86 340.226 104.86Z" stroke="#BDC7D2"/>
<path d="M340.226 162.694H124.679C117.927 162.694 112.453 167.119 112.453 172.577V192.343C112.453 197.802 117.927 202.226 124.679 202.226H340.226C346.979 202.226 352.453 197.802 352.453 192.343V172.577C352.453 167.119 346.979 162.694 340.226 162.694Z" fill="white"/>
<path d="M340.226 162.694H124.679C117.927 162.694 112.453 167.119 112.453 172.577V192.343C112.453 197.802 117.927 202.226 124.679 202.226H340.226C346.979 202.226 352.453 197.802 352.453 192.343V172.577C352.453 167.119 346.979 162.694 340.226 162.694Z" stroke="url(#paint0_linear_189_751)"/>
<g opacity="0.3">
<path opacity="0.3" d="M323.642 191.287C316.856 192.63 310.099 189.197 308.479 183.853C306.818 178.367 311.064 172.905 317.676 171.596C324.288 170.287 331.22 173.686 332.839 179.031C334.501 184.515 330.427 189.944 323.642 191.287ZM318.315 173.706C312.922 174.774 309.637 179.151 310.957 183.511C312.279 187.871 317.694 190.526 323.088 189.458C328.482 188.391 331.766 184.013 330.445 179.654C328.95 175.328 323.709 172.638 318.315 173.706Z" fill="#12E1FF"/>
<path opacity="0.3" d="M324.962 195.647C315.218 197.575 305.472 192.796 303.085 184.92C300.699 177.044 306.611 169.165 316.355 167.236C326.099 165.307 335.846 170.086 338.232 177.962C340.619 185.839 334.706 193.718 324.962 195.647ZM317.207 170.049C309.378 171.599 304.516 178.077 306.434 184.407C308.352 190.736 316.366 194.665 324.195 193.115C332.026 191.565 336.886 185.087 334.969 178.757C332.835 172.323 325.037 168.499 317.207 170.049Z" fill="#12E1FF"/>
</g>
<path d="M354.574 249.814C354.574 249.814 347.704 241.801 345.418 240.359C343.13 238.917 339.599 236.624 338.064 235.632C335.922 234.261 328.091 226.737 327.631 226.03C324.405 221.085 319.294 215.615 318.021 214.671C315.793 213.018 311.669 212.438 311.881 211.1C312.092 209.762 317.163 207.362 321.538 209.587C326.029 211.789 331.775 218.131 331.775 218.131C331.775 218.131 330.867 214.322 329.894 211.922C328.92 209.521 323.927 198.744 322.866 196.461C321.92 194.155 318.051 185.049 317.74 183.615C317.429 182.181 316.37 179.499 319.31 178.618C322.017 177.782 323.545 179.973 324.751 182.327C325.958 184.681 328.995 191.857 330.49 194.752C331.955 197.553 334.508 203.13 335.665 204.098C336.822 205.066 338.71 205.19 338.71 205.19C338.71 205.19 338.468 201.948 338.389 200.468C338.306 199.786 338.062 196.943 341.465 196.369C344.636 195.84 346.303 198.901 346.303 198.901C346.303 198.901 347.151 198.035 348.605 197.947C350.174 197.835 351.218 198.427 352.139 199.84C352.426 200.381 353.087 201.746 353.087 201.746C353.087 201.746 353.963 200.974 355.328 201.003C356.839 201.103 357.789 202.61 358.395 203.387C358.884 204.188 362.713 210.311 363.513 212.546C364.313 214.78 365.841 226.743 366.616 228.484C367.389 230.225 381.196 244.444 381.196 244.444L354.545 249.72L354.574 249.814Z" fill="#FFBD95"/>
<path d="M319.426 178.594C320.766 178.13 321.752 178.533 322.417 179.099C323.053 179.572 324.167 182.841 323.961 183.38C323.753 183.92 320.638 185.036 319.941 184.774C318.984 184.465 317.868 181.595 317.757 180.82C317.5 179.973 317.854 179.105 319.426 178.594Z" fill="#FFC8A7"/>
<path d="M323.507 210.793C323.507 210.793 327.124 213.367 330.504 216.787C331.024 217.282 331.775 218.131 331.775 218.131C331.775 218.131 331.466 221.184 331.749 222.523C331.914 223.886 333.439 226.476 333.439 226.476C333.439 226.476 330.806 224.704 330.242 221.625C329.791 219.321 329.654 218.052 329.281 217.228C328.452 214.899 323.507 210.793 323.507 210.793Z" fill="#1D4645"/>
<path d="M346.564 198.949C346.564 198.949 347.752 204.497 348.443 205.557C349.163 206.711 350.001 207.443 350.583 207.328C351.398 207.167 351.084 206.131 350.307 204.789C349.414 203.47 346.564 198.949 346.564 198.949Z" fill="#1D4645"/>
<path d="M353.348 201.794C353.348 201.794 354.459 205.463 355.15 206.523C355.841 207.583 356.39 208.172 357 208.151C357.611 208.13 357.672 207.519 357.183 206.718C356.349 205.188 353.348 201.794 353.348 201.794Z" fill="#1D4645"/>
<path d="M335.435 203.745C335.435 203.745 336.067 205.015 337.254 205.678C338.441 206.341 339.024 206.225 339.024 206.225L338.826 205.167C338.826 205.167 337.926 205.046 337.114 204.808C336.04 204.522 335.435 203.745 335.435 203.745Z" fill="#1D4645"/>
<path d="M319.797 184.703C320.492 184.965 323.521 183.966 323.844 183.404C323.437 183.285 322.449 183.281 321.43 183.583C320.324 184.001 319.972 184.469 319.797 184.703Z" fill="#FFD3B9"/>
<path d="M351.868 240.478C348.51 238.351 343.897 236.97 339.639 234.722C335.496 232.451 329.774 227.002 328.853 225.589C325.713 220.926 321.148 216.445 319.73 215.429C316.778 213.421 319.633 212.257 316.282 213.819C316.861 214.103 317.469 214.481 318.049 214.765C319.322 215.71 324.433 221.179 327.659 226.125C328.119 226.832 335.95 234.355 338.092 235.726C339.627 236.719 343.158 239.011 345.446 240.453C347.733 241.895 354.602 249.908 354.602 249.908L359.723 248.895C357.763 246.092 354.184 242.014 351.868 240.478Z" fill="#1D4645"/>
<path d="M317.412 214.292C317.645 214.246 318.291 213.122 318.117 212.956C318.06 212.768 314.671 210.946 313.451 210.989C312.23 211.031 311.356 211.403 311.441 211.685C311.527 211.967 317.063 214.362 317.412 214.292Z" fill="#FFC8A7"/>
<path d="M363.774 212.593C362.945 210.265 359.262 204.213 358.656 203.436C358.167 202.635 357.1 201.151 355.589 201.052C354.079 200.951 353.348 201.795 353.348 201.795C353.348 201.795 352.687 200.429 352.399 199.887C351.506 198.569 350.435 197.884 348.866 197.995C347.412 198.083 346.564 198.949 346.564 198.949C346.564 198.949 346.305 198.502 345.756 197.912C342.693 204.901 341.978 212.72 344.344 220.528C347.963 232.476 357.934 241.77 370.517 246.658L381.341 244.516C381.341 244.516 367.651 230.274 366.76 228.556C365.985 226.814 364.603 214.922 363.774 212.593Z" fill="#FFC6A3"/>
<path d="M201.752 188.208C201.277 188.208 200.789 188.168 200.288 188.088C199.792 188.013 199.325 187.915 198.888 187.792C198.456 187.669 198.104 187.541 197.832 187.408L198.024 185.096C198.392 185.304 198.776 185.483 199.176 185.632C199.581 185.776 199.984 185.888 200.384 185.968C200.789 186.048 201.176 186.088 201.544 186.088C201.912 186.088 202.232 186.043 202.504 185.952C202.776 185.861 202.987 185.725 203.136 185.544C203.285 185.357 203.36 185.117 203.36 184.824C203.36 184.525 203.261 184.28 203.064 184.088C202.872 183.891 202.595 183.72 202.232 183.576C201.869 183.427 201.437 183.28 200.936 183.136C200.243 182.933 199.651 182.699 199.16 182.432C198.669 182.16 198.293 181.813 198.032 181.392C197.776 180.965 197.648 180.419 197.648 179.752C197.648 179.085 197.795 178.499 198.088 177.992C198.381 177.48 198.824 177.08 199.416 176.792C200.008 176.504 200.757 176.36 201.664 176.36C202.021 176.36 202.379 176.384 202.736 176.432C203.093 176.475 203.44 176.533 203.776 176.608C204.117 176.683 204.432 176.768 204.72 176.864C205.008 176.96 205.259 177.061 205.472 177.168L205.272 179.488C204.931 179.275 204.576 179.096 204.208 178.952C203.84 178.808 203.48 178.699 203.128 178.624C202.776 178.549 202.456 178.512 202.168 178.512C201.843 178.512 201.547 178.555 201.28 178.64C201.019 178.725 200.811 178.856 200.656 179.032C200.501 179.208 200.424 179.429 200.424 179.696C200.424 179.957 200.496 180.179 200.64 180.36C200.789 180.536 201.016 180.693 201.32 180.832C201.629 180.965 202.027 181.104 202.512 181.248C203.424 181.52 204.144 181.805 204.672 182.104C205.2 182.397 205.573 182.752 205.792 183.168C206.016 183.584 206.128 184.107 206.128 184.736C206.128 185.435 205.976 186.045 205.672 186.568C205.368 187.085 204.893 187.488 204.248 187.776C203.603 188.064 202.771 188.208 201.752 188.208ZM207.641 188C207.641 187.429 207.641 186.877 207.641 186.344C207.641 185.805 207.641 185.205 207.641 184.544V183.744C207.641 183.216 207.641 182.744 207.641 182.328C207.641 181.907 207.641 181.512 207.641 181.144C207.641 180.771 207.641 180.395 207.641 180.016L210.033 179.944C210.033 180.328 210.033 180.709 210.033 181.088C210.033 181.467 210.033 181.869 210.033 182.296C210.033 182.723 210.033 183.205 210.033 183.744V184.544C210.033 185.205 210.033 185.805 210.033 186.344C210.033 186.877 210.033 187.429 210.033 188H207.641ZM208.817 178.784C208.375 178.784 208.02 178.68 207.753 178.472C207.492 178.259 207.361 177.915 207.361 177.44C207.361 177.013 207.492 176.688 207.753 176.464C208.02 176.235 208.38 176.12 208.833 176.12C209.287 176.12 209.641 176.24 209.897 176.48C210.159 176.715 210.289 177.035 210.289 177.44C210.289 177.915 210.159 178.259 209.897 178.472C209.636 178.68 209.276 178.784 208.817 178.784ZM214.887 191.272C214.284 191.272 213.777 191.221 213.367 191.12C212.961 191.019 212.639 190.88 212.399 190.704C212.159 190.533 211.985 190.336 211.879 190.112C211.777 189.893 211.727 189.667 211.727 189.432C211.727 189.08 211.812 188.789 211.983 188.56C212.153 188.336 212.353 188.16 212.583 188.032C212.817 187.904 213.023 187.813 213.199 187.76V187.6C213.087 187.573 212.961 187.512 212.823 187.416C212.689 187.32 212.572 187.189 212.471 187.024C212.369 186.859 212.319 186.656 212.319 186.416C212.319 186.24 212.351 186.069 212.415 185.904C212.484 185.739 212.591 185.587 212.735 185.448C212.879 185.309 213.068 185.192 213.303 185.096V184.936C213.132 184.867 212.948 184.768 212.751 184.64C212.553 184.512 212.367 184.349 212.191 184.152C212.015 183.949 211.871 183.709 211.759 183.432C211.647 183.155 211.59 182.829 211.59 182.456C211.59 181.96 211.713 181.512 211.959 181.112C212.209 180.707 212.585 180.387 213.087 180.152C213.593 179.917 214.231 179.8 214.999 179.8C215.297 179.8 215.559 179.816 215.783 179.848C216.007 179.875 216.239 179.904 216.479 179.936C216.719 179.968 217.02 179.984 217.383 179.984H219.575V181.56C219.079 181.56 218.604 181.56 218.151 181.56C217.697 181.56 217.236 181.56 216.767 181.56L217.391 180.568C217.732 180.792 217.983 181.075 218.143 181.416C218.308 181.752 218.391 182.136 218.391 182.568C218.391 183.085 218.276 183.52 218.047 183.872C217.817 184.224 217.505 184.507 217.111 184.72C216.721 184.933 216.287 185.091 215.807 185.192C215.364 185.288 215.036 185.376 214.823 185.456C214.609 185.536 214.503 185.656 214.503 185.816C214.503 185.917 214.548 185.997 214.639 186.056C214.729 186.115 214.871 186.157 215.062 186.184C215.255 186.205 215.503 186.216 215.807 186.216H216.127C216.804 186.216 217.385 186.275 217.871 186.392C218.356 186.509 218.727 186.717 218.983 187.016C219.244 187.315 219.375 187.728 219.375 188.256C219.375 188.805 219.241 189.272 218.975 189.656C218.708 190.04 218.353 190.349 217.911 190.584C217.468 190.824 216.983 190.997 216.455 191.104C215.932 191.216 215.409 191.272 214.887 191.272ZM215.183 189.624C215.625 189.624 215.991 189.568 216.279 189.456C216.572 189.344 216.788 189.213 216.927 189.064C217.071 188.92 217.143 188.795 217.143 188.688C217.143 188.555 217.097 188.44 217.007 188.344C216.921 188.248 216.756 188.173 216.511 188.12C216.265 188.072 215.911 188.048 215.447 188.048H215.199C214.98 188.059 214.759 188.099 214.535 188.168C214.316 188.243 214.132 188.341 213.983 188.464C213.839 188.587 213.767 188.728 213.767 188.888C213.767 188.984 213.793 189.075 213.847 189.16C213.905 189.251 213.991 189.331 214.103 189.4C214.215 189.469 214.361 189.523 214.543 189.56C214.724 189.603 214.937 189.624 215.183 189.624ZM214.959 183.864C215.097 183.853 215.244 183.824 215.399 183.776C215.559 183.728 215.708 183.664 215.847 183.584C215.985 183.499 216.097 183.392 216.183 183.264C216.268 183.131 216.311 182.973 216.311 182.792C216.311 182.547 216.247 182.344 216.119 182.184C215.991 182.024 215.828 181.904 215.631 181.824C215.433 181.744 215.225 181.704 215.007 181.704C214.793 181.704 214.593 181.744 214.407 181.824C214.22 181.904 214.068 182.021 213.951 182.176C213.833 182.325 213.775 182.507 213.775 182.72C213.775 182.928 213.831 183.112 213.943 183.272C214.055 183.427 214.199 183.555 214.375 183.656C214.556 183.757 214.751 183.827 214.959 183.864ZM220.843 188C220.843 187.429 220.843 186.877 220.843 186.344C220.843 185.805 220.843 185.205 220.843 184.544V183.744C220.843 183.131 220.843 182.515 220.843 181.896C220.843 181.277 220.843 180.651 220.843 180.016L222.851 179.896L222.955 181.288H223.155C223.337 181.027 223.555 180.784 223.811 180.56C224.067 180.331 224.361 180.147 224.691 180.008C225.027 179.869 225.409 179.8 225.835 179.8C226.635 179.8 227.241 180.037 227.651 180.512C228.062 180.981 228.267 181.685 228.267 182.624C228.267 182.976 228.267 183.304 228.267 183.608C228.267 183.907 228.267 184.219 228.267 184.544C228.267 185.195 228.267 185.792 228.267 186.336C228.267 186.875 228.267 187.429 228.267 188H225.883C225.883 187.429 225.883 186.877 225.883 186.344C225.883 185.811 225.883 185.253 225.883 184.672V183.392C225.883 182.923 225.806 182.571 225.651 182.336C225.497 182.096 225.219 181.976 224.819 181.976C224.59 181.976 224.379 182.024 224.187 182.12C223.995 182.211 223.819 182.336 223.659 182.496C223.499 182.651 223.358 182.824 223.235 183.016V184.672C223.235 185.269 223.235 185.832 223.235 186.36C223.235 186.883 223.235 187.429 223.235 188H220.843ZM235.444 188.216C234.644 188.216 234.039 187.979 233.628 187.504C233.217 187.029 233.012 186.323 233.012 185.384C233.012 185.027 233.012 184.717 233.012 184.456C233.012 184.195 233.012 183.925 233.012 183.648C233.012 183.12 233.012 182.656 233.012 182.256C233.012 181.851 233.012 181.472 233.012 181.12C233.012 180.763 233.012 180.395 233.012 180.016L235.404 179.944C235.404 180.515 235.404 181.077 235.404 181.632C235.404 182.181 235.404 182.752 235.404 183.344V184.672C235.404 185.136 235.481 185.488 235.636 185.728C235.791 185.963 236.068 186.08 236.468 186.08C236.687 186.08 236.889 186.035 237.076 185.944C237.268 185.848 237.441 185.723 237.596 185.568C237.751 185.408 237.892 185.232 238.02 185.04V183.344C238.02 182.752 238.02 182.192 238.02 181.664C238.02 181.131 238.02 180.581 238.02 180.016H240.412C240.412 180.581 240.412 181.141 240.412 181.696C240.412 182.251 240.412 182.901 240.412 183.648V184.544C240.412 185.205 240.412 185.805 240.412 186.344C240.412 186.877 240.412 187.429 240.412 188H238.404L238.3 186.728H238.092C237.916 186.984 237.7 187.227 237.444 187.456C237.193 187.68 236.9 187.861 236.564 188C236.233 188.144 235.86 188.216 235.444 188.216ZM242.281 191.144C242.281 190.573 242.281 190.008 242.281 189.448C242.281 188.888 242.281 188.277 242.281 187.616V183.744C242.281 183.131 242.281 182.515 242.281 181.896C242.281 181.277 242.281 180.651 242.281 180.016L244.401 179.896L244.473 180.992H244.665C244.825 180.741 245.017 180.528 245.241 180.352C245.47 180.171 245.729 180.035 246.017 179.944C246.305 179.848 246.622 179.8 246.969 179.8C247.673 179.8 248.265 179.984 248.745 180.352C249.225 180.72 249.588 181.221 249.833 181.856C250.078 182.491 250.201 183.205 250.201 184C250.201 184.741 250.084 185.432 249.849 186.072C249.62 186.712 249.268 187.229 248.793 187.624C248.318 188.019 247.718 188.216 246.993 188.216C246.668 188.216 246.372 188.171 246.105 188.08C245.844 187.995 245.606 187.872 245.393 187.712C245.18 187.552 244.988 187.36 244.817 187.136H244.673V187.744C244.673 188.341 244.673 188.901 244.673 189.424C244.673 189.952 244.673 190.501 244.673 191.072L242.281 191.144ZM246.089 186.184C246.468 186.184 246.78 186.08 247.025 185.872C247.276 185.664 247.46 185.397 247.577 185.072C247.694 184.741 247.753 184.389 247.753 184.016C247.753 183.627 247.692 183.269 247.569 182.944C247.446 182.613 247.26 182.349 247.009 182.152C246.764 181.955 246.452 181.856 246.073 181.856C245.886 181.856 245.705 181.885 245.529 181.944C245.358 181.997 245.198 182.077 245.049 182.184C244.905 182.291 244.78 182.419 244.673 182.568V185.288C244.769 185.469 244.884 185.627 245.017 185.76C245.15 185.893 245.305 185.997 245.481 186.072C245.662 186.147 245.865 186.184 246.089 186.184Z" fill="#333333"/>
<path d="M118.128 129C118.128 128.387 118.128 127.792 118.128 127.216C118.128 126.64 118.128 125.995 118.128 125.28V121.408C118.128 120.672 118.128 120.008 118.128 119.416C118.128 118.824 118.128 118.216 118.128 117.592H120.424C120.957 118.371 121.461 119.107 121.936 119.8C122.411 120.488 122.885 121.179 123.36 121.872L125.216 124.56H125.408V121.408C125.408 120.672 125.408 120.008 125.408 119.416C125.408 118.824 125.408 118.216 125.408 117.592H127.88C127.88 118.216 127.88 118.824 127.88 119.416C127.88 120.008 127.88 120.672 127.88 121.408V125.28C127.88 125.995 127.88 126.64 127.88 127.216C127.88 127.792 127.88 128.387 127.88 129H125.608C125.171 128.36 124.712 127.693 124.232 127C123.752 126.307 123.227 125.549 122.656 124.728L120.776 122.008H120.592V125.28C120.592 125.995 120.592 126.64 120.592 127.216C120.592 127.792 120.592 128.387 120.592 129H118.128ZM131.864 129.192C131.405 129.192 131.005 129.096 130.664 128.904C130.323 128.712 130.056 128.443 129.864 128.096C129.672 127.744 129.576 127.328 129.576 126.848C129.576 126.395 129.656 126.016 129.816 125.712C129.976 125.403 130.181 125.152 130.432 124.96C130.688 124.768 130.965 124.621 131.264 124.52C131.568 124.419 131.864 124.344 132.152 124.296L134.376 123.952C134.387 123.643 134.328 123.403 134.2 123.232C134.072 123.056 133.885 122.933 133.64 122.864C133.4 122.795 133.112 122.76 132.776 122.76C132.595 122.76 132.397 122.776 132.184 122.808C131.971 122.835 131.747 122.877 131.512 122.936C131.283 122.995 131.043 123.067 130.792 123.152C130.547 123.237 130.299 123.341 130.048 123.464L129.936 121.424C130.133 121.355 130.36 121.283 130.616 121.208C130.872 121.133 131.149 121.067 131.448 121.008C131.747 120.944 132.061 120.893 132.392 120.856C132.728 120.819 133.072 120.8 133.424 120.8C134.091 120.8 134.659 120.899 135.128 121.096C135.603 121.288 135.965 121.592 136.216 122.008C136.467 122.424 136.592 122.968 136.592 123.64C136.592 123.901 136.592 124.221 136.592 124.6C136.592 124.979 136.592 125.317 136.592 125.616V126.376C136.592 126.781 136.592 127.2 136.592 127.632C136.592 128.059 136.592 128.515 136.592 129H134.552L134.4 127.936H134.216C134.072 128.139 133.891 128.339 133.672 128.536C133.453 128.728 133.192 128.885 132.888 129.008C132.589 129.131 132.248 129.192 131.864 129.192ZM132.816 127.344C133.003 127.344 133.189 127.301 133.376 127.216C133.563 127.125 133.736 127 133.896 126.84C134.056 126.675 134.195 126.48 134.312 126.256V125.032C134.248 125.08 134.165 125.125 134.064 125.168C133.968 125.205 133.824 125.248 133.632 125.296C133.445 125.339 133.184 125.395 132.848 125.464C132.656 125.501 132.491 125.565 132.352 125.656C132.213 125.747 132.104 125.864 132.024 126.008C131.949 126.147 131.912 126.312 131.912 126.504C131.912 126.808 132.003 127.024 132.184 127.152C132.371 127.28 132.581 127.344 132.816 127.344ZM138.422 129C138.422 128.429 138.422 127.877 138.422 127.344C138.422 126.805 138.422 126.205 138.422 125.544V124.744C138.422 124.131 138.422 123.515 138.422 122.896C138.422 122.277 138.422 121.651 138.422 121.016L140.43 120.896L140.534 122.28H140.734C140.915 122.024 141.128 121.784 141.374 121.56C141.619 121.331 141.902 121.147 142.222 121.008C142.547 120.869 142.915 120.8 143.326 120.8C143.939 120.8 144.414 120.955 144.75 121.264C145.091 121.568 145.32 122.008 145.438 122.584L145.598 122.608C145.63 122.763 145.654 122.925 145.67 123.096C145.691 123.261 145.701 123.437 145.701 123.624C145.701 123.976 145.701 124.304 145.701 124.608C145.701 124.907 145.701 125.219 145.701 125.544C145.701 126.195 145.701 126.792 145.701 127.336C145.701 127.875 145.701 128.429 145.701 129H143.31C143.31 128.429 143.31 127.877 143.31 127.344C143.31 126.811 143.31 126.253 143.31 125.672V124.392C143.31 123.923 143.235 123.571 143.086 123.336C142.942 123.096 142.683 122.976 142.31 122.976C142.091 122.976 141.891 123.024 141.71 123.12C141.528 123.216 141.363 123.344 141.214 123.504C141.064 123.659 140.931 123.829 140.814 124.016V125.672C140.814 126.269 140.814 126.832 140.814 127.36C140.814 127.883 140.814 128.429 140.814 129H138.422ZM148.166 129C148.166 128.429 148.166 127.877 148.166 127.344C148.166 126.811 148.166 126.253 148.166 125.672V124.392C148.166 123.923 148.094 123.571 147.95 123.336C147.806 123.096 147.544 122.976 147.166 122.976C146.947 122.976 146.747 123.024 146.566 123.12C146.384 123.211 146.216 123.336 146.062 123.496C145.912 123.651 145.779 123.824 145.661 124.016L145.302 122.296H145.51C145.702 122.035 145.926 121.789 146.182 121.56C146.438 121.331 146.731 121.147 147.062 121.008C147.398 120.869 147.774 120.8 148.19 120.8C148.984 120.8 149.576 121.04 149.966 121.52C150.36 121.995 150.558 122.696 150.558 123.624C150.558 123.976 150.558 124.304 150.558 124.608C150.558 124.907 150.558 125.219 150.558 125.544C150.558 126.195 150.558 126.792 150.558 127.336C150.558 127.875 150.558 128.429 150.558 129H148.166ZM156.375 129.208C155.345 129.208 154.503 129.027 153.847 128.664C153.196 128.301 152.716 127.803 152.407 127.168C152.103 126.533 151.951 125.805 151.951 124.984C151.951 124.163 152.095 123.437 152.383 122.808C152.671 122.179 153.1 121.688 153.671 121.336C154.247 120.979 154.961 120.8 155.815 120.8C156.54 120.8 157.161 120.931 157.679 121.192C158.196 121.448 158.593 121.837 158.871 122.36C159.148 122.883 159.287 123.541 159.287 124.336C159.287 124.549 159.281 124.739 159.271 124.904C159.26 125.069 159.241 125.235 159.215 125.4L157.167 124.624C157.177 124.555 157.185 124.483 157.191 124.408C157.196 124.333 157.199 124.264 157.199 124.2C157.199 123.661 157.071 123.24 156.815 122.936C156.564 122.627 156.239 122.472 155.839 122.472C155.535 122.472 155.265 122.563 155.031 122.744C154.796 122.92 154.612 123.168 154.479 123.488C154.345 123.808 154.279 124.189 154.279 124.632V125.024C154.279 125.488 154.361 125.885 154.527 126.216C154.697 126.547 154.959 126.8 155.311 126.976C155.663 127.152 156.113 127.24 156.663 127.24C156.876 127.24 157.121 127.221 157.399 127.184C157.681 127.141 157.967 127.08 158.255 127C158.548 126.915 158.82 126.808 159.071 126.68L159.151 128.696C158.943 128.792 158.7 128.88 158.423 128.96C158.151 129.035 157.841 129.093 157.495 129.136C157.148 129.184 156.775 129.208 156.375 129.208ZM152.871 125.4V124.12L157.823 124.016L159.215 124.408V125.4H152.871Z" fill="#333333"/>
<path d="M194.98 129C194.98 128.463 194.98 127.943 194.98 127.439C194.98 126.935 194.98 126.37 194.98 125.745V122.357C194.98 121.713 194.98 121.132 194.98 120.614C194.98 120.096 194.98 119.564 194.98 119.018H201.609V120.901C201.18 120.901 200.718 120.901 200.223 120.901C199.733 120.901 199.154 120.901 198.487 120.901H196.135L197.234 119.382C197.234 119.928 197.234 120.46 197.234 120.978C197.234 121.496 197.234 122.077 197.234 122.721V125.381C197.234 126.002 197.234 126.566 197.234 127.075C197.234 127.579 197.234 128.099 197.234 128.636L196.282 127.117H198.655C199.21 127.117 199.735 127.117 200.23 127.117C200.729 127.117 201.21 127.117 201.672 127.117V129H194.98ZM196.709 124.842V123.092H198.536C199.152 123.092 199.679 123.092 200.118 123.092C200.557 123.092 200.979 123.092 201.385 123.092V124.842C200.956 124.842 200.522 124.842 200.083 124.842C199.644 124.842 199.129 124.842 198.536 124.842H196.709ZM203.215 129C203.215 128.501 203.215 128.018 203.215 127.551C203.215 127.08 203.215 126.555 203.215 125.976V125.276C203.215 124.739 203.215 124.2 203.215 123.659C203.215 123.118 203.215 122.569 203.215 122.014L204.972 121.909L205.063 123.127H205.238C205.396 122.898 205.588 122.686 205.812 122.49C206.036 122.289 206.292 122.128 206.582 122.007C206.876 121.886 207.209 121.825 207.583 121.825C208.283 121.825 208.812 122.033 209.172 122.448C209.531 122.859 209.711 123.475 209.711 124.296C209.711 124.604 209.711 124.891 209.711 125.157C209.711 125.418 209.711 125.691 209.711 125.976C209.711 126.545 209.711 127.068 209.711 127.544C209.711 128.015 209.711 128.501 209.711 129H207.625C207.625 128.501 207.625 128.018 207.625 127.551C207.625 127.084 207.625 126.597 207.625 126.088V124.968C207.625 124.557 207.557 124.249 207.422 124.044C207.286 123.834 207.044 123.729 206.694 123.729C206.493 123.729 206.309 123.771 206.141 123.855C205.973 123.934 205.819 124.044 205.679 124.184C205.539 124.319 205.415 124.471 205.308 124.639V126.088C205.308 126.611 205.308 127.103 205.308 127.565C205.308 128.022 205.308 128.501 205.308 129H203.215ZM214.297 129.189C213.779 129.189 213.336 129.112 212.967 128.958C212.603 128.799 212.323 128.547 212.127 128.202C211.936 127.857 211.84 127.402 211.84 126.837C211.84 126.534 211.84 126.223 211.84 125.906C211.84 125.584 211.84 125.248 211.84 124.898C211.84 124.548 211.84 124.179 211.84 123.792C211.84 123.405 211.84 122.987 211.84 122.539C211.84 122.012 211.84 121.529 211.84 121.09C211.84 120.651 211.84 120.203 211.84 119.746L213.898 119.375C213.898 119.739 213.898 120.084 213.898 120.411C213.898 120.733 213.898 121.067 213.898 121.412C213.898 121.753 213.898 122.128 213.898 122.539V126.179C213.898 126.604 213.975 126.928 214.129 127.152C214.288 127.371 214.545 127.481 214.899 127.481C215.049 127.481 215.212 127.455 215.389 127.404C215.567 127.348 215.737 127.262 215.9 127.145L216.019 128.839C215.898 128.914 215.744 128.977 215.557 129.028C215.371 129.079 215.168 129.119 214.948 129.147C214.729 129.175 214.512 129.189 214.297 129.189ZM210.706 123.589V122.014H215.984V123.589C215.546 123.589 215.105 123.589 214.661 123.589C214.223 123.589 213.798 123.589 213.387 123.589H212.456H210.706ZM220.674 129.182C219.773 129.182 219.036 129.023 218.462 128.706C217.892 128.389 217.472 127.952 217.202 127.397C216.936 126.842 216.803 126.205 216.803 125.486C216.803 124.767 216.929 124.133 217.181 123.582C217.433 123.031 217.808 122.602 218.308 122.294C218.812 121.981 219.437 121.825 220.184 121.825C220.818 121.825 221.362 121.939 221.815 122.168C222.267 122.392 222.615 122.733 222.858 123.19C223.1 123.647 223.222 124.224 223.222 124.919C223.222 125.106 223.217 125.271 223.208 125.416C223.198 125.561 223.182 125.705 223.159 125.85L221.367 125.171C221.376 125.11 221.383 125.047 221.388 124.982C221.392 124.917 221.395 124.856 221.395 124.8C221.395 124.329 221.283 123.96 221.059 123.694C220.839 123.423 220.555 123.288 220.205 123.288C219.939 123.288 219.703 123.367 219.498 123.526C219.292 123.68 219.131 123.897 219.015 124.177C218.898 124.457 218.84 124.791 218.84 125.178V125.521C218.84 125.927 218.912 126.275 219.057 126.564C219.206 126.853 219.435 127.075 219.743 127.229C220.051 127.383 220.445 127.46 220.926 127.46C221.112 127.46 221.327 127.444 221.57 127.411C221.817 127.374 222.067 127.32 222.319 127.25C222.575 127.175 222.813 127.082 223.033 126.97L223.103 128.734C222.921 128.818 222.708 128.895 222.466 128.965C222.228 129.03 221.957 129.082 221.654 129.119C221.35 129.161 221.024 129.182 220.674 129.182ZM217.608 125.85V124.73L221.941 124.639L223.159 124.982V125.85H217.608ZM224.543 129C224.543 128.501 224.543 128.018 224.543 127.551C224.543 127.08 224.543 126.555 224.543 125.976V125.276C224.543 124.739 224.543 124.2 224.543 123.659C224.543 123.118 224.543 122.569 224.543 122.014L226.3 121.909L226.391 123.197H226.566C226.748 122.819 226.948 122.532 227.168 122.336C227.387 122.135 227.611 122 227.84 121.93C228.068 121.86 228.288 121.825 228.498 121.825C228.605 121.825 228.724 121.834 228.855 121.853C228.99 121.872 229.116 121.904 229.233 121.951L229.051 123.981C228.869 123.967 228.705 123.955 228.561 123.946C228.416 123.937 228.262 123.932 228.099 123.932C227.968 123.932 227.833 123.946 227.693 123.974C227.557 124.002 227.424 124.058 227.294 124.142C227.163 124.226 227.042 124.343 226.93 124.492C226.818 124.641 226.72 124.835 226.636 125.073V126.088C226.636 126.611 226.636 127.103 226.636 127.565C226.636 128.022 226.636 128.501 226.636 129H224.543ZM233.72 131.751C233.911 131.275 234.105 130.787 234.301 130.288C234.497 129.793 234.691 129.31 234.882 128.839V129.231C234.714 128.75 234.544 128.267 234.371 127.782C234.198 127.292 234.028 126.814 233.86 126.347L233.419 125.087C233.242 124.588 233.06 124.077 232.873 123.554C232.691 123.027 232.511 122.513 232.334 122.014L234.588 121.951C234.719 122.46 234.847 122.957 234.973 123.442C235.099 123.923 235.227 124.417 235.358 124.926L235.848 126.816H236.016L236.555 124.926C236.695 124.436 236.833 123.951 236.968 123.47C237.103 122.989 237.239 122.504 237.374 122.014H239.614C239.469 122.387 239.329 122.749 239.194 123.099C239.059 123.449 238.909 123.836 238.746 124.261C238.587 124.681 238.396 125.183 238.172 125.766L237.409 127.726C237.068 128.613 236.777 129.369 236.534 129.994C236.296 130.619 236.079 131.184 235.883 131.688L233.72 131.751ZM243.741 129.189C243.107 129.189 242.554 129.089 242.082 128.888C241.616 128.687 241.228 128.414 240.92 128.069C240.617 127.724 240.388 127.329 240.234 126.886C240.085 126.438 240.01 125.971 240.01 125.486C240.01 124.791 240.15 124.168 240.43 123.617C240.715 123.062 241.13 122.625 241.676 122.308C242.227 121.986 242.901 121.825 243.699 121.825C244.315 121.825 244.854 121.918 245.316 122.105C245.783 122.287 246.17 122.546 246.478 122.882C246.791 123.213 247.024 123.603 247.178 124.051C247.332 124.494 247.409 124.973 247.409 125.486C247.409 126.191 247.267 126.823 246.982 127.383C246.698 127.938 246.282 128.379 245.736 128.706C245.19 129.028 244.525 129.189 243.741 129.189ZM243.734 127.481C244.084 127.481 244.371 127.388 244.595 127.201C244.824 127.01 244.994 126.762 245.106 126.459C245.223 126.156 245.281 125.831 245.281 125.486C245.281 125.075 245.216 124.725 245.085 124.436C244.955 124.142 244.773 123.918 244.539 123.764C244.306 123.61 244.035 123.533 243.727 123.533C243.382 123.533 243.09 123.619 242.852 123.792C242.619 123.965 242.442 124.198 242.32 124.492C242.204 124.786 242.145 125.117 242.145 125.486C242.145 125.831 242.204 126.156 242.32 126.459C242.442 126.762 242.619 127.01 242.852 127.201C243.09 127.388 243.384 127.481 243.734 127.481ZM250.758 129.189C250.058 129.189 249.528 128.981 249.169 128.566C248.809 128.151 248.63 127.532 248.63 126.711C248.63 126.398 248.63 126.128 248.63 125.899C248.63 125.67 248.63 125.435 248.63 125.192C248.63 124.73 248.63 124.324 248.63 123.974C248.63 123.619 248.63 123.288 248.63 122.98C248.63 122.667 248.63 122.345 248.63 122.014L250.723 121.951C250.723 122.45 250.723 122.943 250.723 123.428C250.723 123.909 250.723 124.408 250.723 124.926V126.088C250.723 126.494 250.79 126.802 250.926 127.012C251.061 127.217 251.304 127.32 251.654 127.32C251.845 127.32 252.022 127.28 252.186 127.201C252.354 127.117 252.505 127.007 252.641 126.872C252.776 126.732 252.9 126.578 253.012 126.41V124.926C253.012 124.408 253.012 123.918 253.012 123.456C253.012 122.989 253.012 122.509 253.012 122.014H255.105C255.105 122.509 255.105 122.999 255.105 123.484C255.105 123.969 255.105 124.539 255.105 125.192V125.976C255.105 126.555 255.105 127.08 255.105 127.551C255.105 128.018 255.105 128.501 255.105 129H253.348L253.257 127.887H253.075C252.921 128.111 252.732 128.323 252.508 128.524C252.288 128.72 252.032 128.879 251.738 129C251.448 129.126 251.122 129.189 250.758 129.189ZM256.74 129C256.74 128.501 256.74 128.018 256.74 127.551C256.74 127.08 256.74 126.555 256.74 125.976V125.276C256.74 124.739 256.74 124.2 256.74 123.659C256.74 123.118 256.74 122.569 256.74 122.014L258.497 121.909L258.588 123.197H258.763C258.945 122.819 259.146 122.532 259.365 122.336C259.584 122.135 259.808 122 260.037 121.93C260.266 121.86 260.485 121.825 260.695 121.825C260.802 121.825 260.921 121.834 261.052 121.853C261.187 121.872 261.313 121.904 261.43 121.951L261.248 123.981C261.066 123.967 260.903 123.955 260.758 123.946C260.613 123.937 260.459 123.932 260.296 123.932C260.165 123.932 260.03 123.946 259.89 123.974C259.755 124.002 259.622 124.058 259.491 124.142C259.36 124.226 259.239 124.343 259.127 124.492C259.015 124.641 258.917 124.835 258.833 125.073V126.088C258.833 126.611 258.833 127.103 258.833 127.565C258.833 128.022 258.833 128.501 258.833 129H256.74ZM265.189 129C265.189 128.501 265.189 128.018 265.189 127.551C265.189 127.08 265.189 126.555 265.189 125.976V125.276C265.189 124.739 265.189 124.2 265.189 123.659C265.189 123.118 265.189 122.569 265.189 122.014L266.946 121.909L267.037 123.127H267.212C267.371 122.898 267.562 122.686 267.786 122.49C268.01 122.289 268.267 122.128 268.556 122.007C268.85 121.886 269.184 121.825 269.557 121.825C270.257 121.825 270.787 122.033 271.146 122.448C271.505 122.859 271.685 123.475 271.685 124.296C271.685 124.604 271.685 124.891 271.685 125.157C271.685 125.418 271.685 125.691 271.685 125.976C271.685 126.545 271.685 127.068 271.685 127.544C271.685 128.015 271.685 128.501 271.685 129H269.599C269.599 128.501 269.599 128.018 269.599 127.551C269.599 127.084 269.599 126.597 269.599 126.088V124.968C269.599 124.557 269.531 124.249 269.396 124.044C269.261 123.834 269.018 123.729 268.668 123.729C268.467 123.729 268.283 123.771 268.115 123.855C267.947 123.934 267.793 124.044 267.653 124.184C267.513 124.319 267.389 124.471 267.282 124.639V126.088C267.282 126.611 267.282 127.103 267.282 127.565C267.282 128.022 267.282 128.501 267.282 129H265.189ZM274.928 129.168C274.527 129.168 274.177 129.084 273.878 128.916C273.579 128.748 273.346 128.512 273.178 128.209C273.01 127.901 272.926 127.537 272.926 127.117C272.926 126.72 272.996 126.389 273.136 126.123C273.276 125.852 273.456 125.633 273.675 125.465C273.899 125.297 274.142 125.169 274.403 125.08C274.669 124.991 274.928 124.926 275.18 124.884L277.126 124.583C277.135 124.312 277.084 124.102 276.972 123.953C276.86 123.799 276.697 123.692 276.482 123.631C276.272 123.57 276.02 123.54 275.726 123.54C275.567 123.54 275.395 123.554 275.208 123.582C275.021 123.605 274.825 123.643 274.62 123.694C274.419 123.745 274.209 123.808 273.99 123.883C273.775 123.958 273.558 124.049 273.339 124.156L273.241 122.371C273.414 122.31 273.612 122.247 273.836 122.182C274.06 122.117 274.303 122.058 274.564 122.007C274.825 121.951 275.101 121.907 275.39 121.874C275.684 121.841 275.985 121.825 276.293 121.825C276.876 121.825 277.373 121.911 277.784 122.084C278.199 122.252 278.517 122.518 278.736 122.882C278.955 123.246 279.065 123.722 279.065 124.31C279.065 124.539 279.065 124.819 279.065 125.15C279.065 125.481 279.065 125.778 279.065 126.039V126.704C279.065 127.059 279.065 127.425 279.065 127.803C279.065 128.176 279.065 128.575 279.065 129H277.28L277.147 128.069H276.986C276.86 128.246 276.701 128.421 276.51 128.594C276.319 128.762 276.09 128.9 275.824 129.007C275.563 129.114 275.264 129.168 274.928 129.168ZM275.761 127.551C275.924 127.551 276.088 127.514 276.251 127.439C276.414 127.36 276.566 127.25 276.706 127.11C276.846 126.965 276.967 126.795 277.07 126.599V125.528C277.014 125.57 276.942 125.61 276.853 125.647C276.769 125.68 276.643 125.717 276.475 125.759C276.312 125.796 276.083 125.845 275.789 125.906C275.621 125.939 275.476 125.995 275.355 126.074C275.234 126.153 275.138 126.256 275.068 126.382C275.003 126.503 274.97 126.648 274.97 126.816C274.97 127.082 275.049 127.271 275.208 127.383C275.371 127.495 275.556 127.551 275.761 127.551ZM280.666 129C280.666 128.501 280.666 128.018 280.666 127.551C280.666 127.08 280.666 126.555 280.666 125.976V125.276C280.666 124.739 280.666 124.2 280.666 123.659C280.666 123.118 280.666 122.569 280.666 122.014L282.423 121.909L282.514 123.12H282.689C282.847 122.896 283.034 122.686 283.249 122.49C283.463 122.289 283.711 122.128 283.991 122.007C284.275 121.886 284.597 121.825 284.957 121.825C285.493 121.825 285.909 121.96 286.203 122.231C286.501 122.497 286.702 122.882 286.805 123.386L286.945 123.407C286.973 123.542 286.994 123.685 287.008 123.834C287.026 123.979 287.036 124.133 287.036 124.296C287.036 124.604 287.036 124.891 287.036 125.157C287.036 125.418 287.036 125.691 287.036 125.976C287.036 126.545 287.036 127.068 287.036 127.544C287.036 128.015 287.036 128.501 287.036 129H284.943C284.943 128.501 284.943 128.018 284.943 127.551C284.943 127.084 284.943 126.597 284.943 126.088V124.968C284.943 124.557 284.877 124.249 284.747 124.044C284.621 123.834 284.394 123.729 284.068 123.729C283.876 123.729 283.701 123.771 283.543 123.855C283.384 123.939 283.239 124.051 283.109 124.191C282.978 124.326 282.861 124.476 282.759 124.639V126.088C282.759 126.611 282.759 127.103 282.759 127.565C282.759 128.022 282.759 128.501 282.759 129H280.666ZM289.192 129C289.192 128.501 289.192 128.018 289.192 127.551C289.192 127.084 289.192 126.597 289.192 126.088V124.968C289.192 124.557 289.129 124.249 289.003 124.044C288.877 123.834 288.648 123.729 288.317 123.729C288.125 123.729 287.95 123.771 287.792 123.855C287.633 123.934 287.486 124.044 287.351 124.184C287.22 124.319 287.103 124.471 287.001 124.639L286.686 123.134H286.868C287.036 122.905 287.232 122.691 287.456 122.49C287.68 122.289 287.936 122.128 288.226 122.007C288.52 121.886 288.849 121.825 289.213 121.825C289.908 121.825 290.426 122.035 290.767 122.455C291.112 122.87 291.285 123.484 291.285 124.296C291.285 124.604 291.285 124.891 291.285 125.157C291.285 125.418 291.285 125.691 291.285 125.976C291.285 126.545 291.285 127.068 291.285 127.544C291.285 128.015 291.285 128.501 291.285 129H289.192ZM296.375 129.182C295.474 129.182 294.737 129.023 294.163 128.706C293.593 128.389 293.173 127.952 292.903 127.397C292.637 126.842 292.504 126.205 292.504 125.486C292.504 124.767 292.63 124.133 292.882 123.582C293.134 123.031 293.509 122.602 294.009 122.294C294.513 121.981 295.138 121.825 295.885 121.825C296.519 121.825 297.063 121.939 297.516 122.168C297.968 122.392 298.316 122.733 298.559 123.19C298.801 123.647 298.923 124.224 298.923 124.919C298.923 125.106 298.918 125.271 298.909 125.416C298.899 125.561 298.883 125.705 298.86 125.85L297.068 125.171C297.077 125.11 297.084 125.047 297.089 124.982C297.093 124.917 297.096 124.856 297.096 124.8C297.096 124.329 296.984 123.96 296.76 123.694C296.54 123.423 296.256 123.288 295.906 123.288C295.64 123.288 295.404 123.367 295.199 123.526C294.993 123.68 294.832 123.897 294.716 124.177C294.599 124.457 294.541 124.791 294.541 125.178V125.521C294.541 125.927 294.613 126.275 294.758 126.564C294.907 126.853 295.136 127.075 295.444 127.229C295.752 127.383 296.146 127.46 296.627 127.46C296.813 127.46 297.028 127.444 297.271 127.411C297.518 127.374 297.768 127.32 298.02 127.25C298.276 127.175 298.514 127.082 298.734 126.97L298.804 128.734C298.622 128.818 298.409 128.895 298.167 128.965C297.929 129.03 297.658 129.082 297.355 129.119C297.051 129.161 296.725 129.182 296.375 129.182ZM293.309 125.85V124.73L297.642 124.639L298.86 124.982V125.85H293.309ZM302.924 129C302.924 128.501 302.924 128.018 302.924 127.551C302.924 127.08 302.924 126.555 302.924 125.976V122.091C302.924 121.522 302.924 120.959 302.924 120.404C302.924 119.849 302.924 119.293 302.924 118.738L305.017 118.556C305.017 119.107 305.017 119.674 305.017 120.257C305.017 120.836 305.017 121.447 305.017 122.091V122.987H305.192C305.332 122.786 305.502 122.597 305.703 122.42C305.903 122.243 306.134 122.1 306.396 121.993C306.662 121.881 306.96 121.825 307.292 121.825C307.992 121.825 308.521 122.033 308.881 122.448C309.24 122.859 309.419 123.475 309.419 124.296C309.419 124.604 309.419 124.891 309.419 125.157C309.419 125.418 309.419 125.691 309.419 125.976C309.419 126.545 309.419 127.068 309.419 127.544C309.419 128.015 309.419 128.501 309.419 129H307.334C307.334 128.501 307.334 128.018 307.334 127.551C307.334 127.084 307.334 126.597 307.334 126.088V124.968C307.334 124.557 307.266 124.249 307.131 124.044C306.995 123.834 306.753 123.729 306.403 123.729C306.202 123.729 306.018 123.771 305.85 123.855C305.681 123.934 305.528 124.044 305.388 124.184C305.248 124.319 305.124 124.471 305.017 124.639V126.088C305.017 126.611 305.017 127.103 305.017 127.565C305.017 128.022 305.017 128.501 305.017 129H302.924ZM314.517 129.182C313.617 129.182 312.879 129.023 312.305 128.706C311.736 128.389 311.316 127.952 311.045 127.397C310.779 126.842 310.646 126.205 310.646 125.486C310.646 124.767 310.772 124.133 311.024 123.582C311.276 123.031 311.652 122.602 312.151 122.294C312.655 121.981 313.281 121.825 314.027 121.825C314.662 121.825 315.206 121.939 315.658 122.168C316.111 122.392 316.459 122.733 316.701 123.19C316.944 123.647 317.065 124.224 317.065 124.919C317.065 125.106 317.061 125.271 317.051 125.416C317.042 125.561 317.026 125.705 317.002 125.85L315.21 125.171C315.22 125.11 315.227 125.047 315.231 124.982C315.236 124.917 315.238 124.856 315.238 124.8C315.238 124.329 315.126 123.96 314.902 123.694C314.683 123.423 314.398 123.288 314.048 123.288C313.782 123.288 313.547 123.367 313.341 123.526C313.136 123.68 312.975 123.897 312.858 124.177C312.742 124.457 312.683 124.791 312.683 125.178V125.521C312.683 125.927 312.756 126.275 312.9 126.564C313.05 126.853 313.278 127.075 313.586 127.229C313.894 127.383 314.289 127.46 314.769 127.46C314.956 127.46 315.171 127.444 315.413 127.411C315.661 127.374 315.91 127.32 316.162 127.25C316.419 127.175 316.657 127.082 316.876 126.97L316.946 128.734C316.764 128.818 316.552 128.895 316.309 128.965C316.071 129.03 315.801 129.082 315.497 129.119C315.194 129.161 314.867 129.182 314.517 129.182ZM311.451 125.85V124.73L315.784 124.639L317.002 124.982V125.85H311.451ZM318.386 129C318.386 128.501 318.386 128.018 318.386 127.551C318.386 127.08 318.386 126.555 318.386 125.976V125.276C318.386 124.739 318.386 124.2 318.386 123.659C318.386 123.118 318.386 122.569 318.386 122.014L320.143 121.909L320.234 123.197H320.409C320.591 122.819 320.792 122.532 321.011 122.336C321.231 122.135 321.455 122 321.683 121.93C321.912 121.86 322.131 121.825 322.341 121.825C322.449 121.825 322.568 121.834 322.698 121.853C322.834 121.872 322.96 121.904 323.076 121.951L322.894 123.981C322.712 123.967 322.549 123.955 322.404 123.946C322.26 123.937 322.106 123.932 321.942 123.932C321.812 123.932 321.676 123.946 321.536 123.974C321.401 124.002 321.268 124.058 321.137 124.142C321.007 124.226 320.885 124.343 320.773 124.492C320.661 124.641 320.563 124.835 320.479 125.073V126.088C320.479 126.611 320.479 127.103 320.479 127.565C320.479 128.022 320.479 128.501 320.479 129H318.386ZM327.465 129.182C326.564 129.182 325.827 129.023 325.253 128.706C324.683 128.389 324.263 127.952 323.993 127.397C323.727 126.842 323.594 126.205 323.594 125.486C323.594 124.767 323.72 124.133 323.972 123.582C324.224 123.031 324.599 122.602 325.099 122.294C325.603 121.981 326.228 121.825 326.975 121.825C327.609 121.825 328.153 121.939 328.606 122.168C329.058 122.392 329.406 122.733 329.649 123.19C329.891 123.647 330.013 124.224 330.013 124.919C330.013 125.106 330.008 125.271 329.999 125.416C329.989 125.561 329.973 125.705 329.95 125.85L328.158 125.171C328.167 125.11 328.174 125.047 328.179 124.982C328.183 124.917 328.186 124.856 328.186 124.8C328.186 124.329 328.074 123.96 327.85 123.694C327.63 123.423 327.346 123.288 326.996 123.288C326.73 123.288 326.494 123.367 326.289 123.526C326.083 123.68 325.922 123.897 325.806 124.177C325.689 124.457 325.631 124.791 325.631 125.178V125.521C325.631 125.927 325.703 126.275 325.848 126.564C325.997 126.853 326.226 127.075 326.534 127.229C326.842 127.383 327.236 127.46 327.717 127.46C327.903 127.46 328.118 127.444 328.361 127.411C328.608 127.374 328.858 127.32 329.11 127.25C329.366 127.175 329.604 127.082 329.824 126.97L329.894 128.734C329.712 128.818 329.499 128.895 329.257 128.965C329.019 129.03 328.748 129.082 328.445 129.119C328.141 129.161 327.815 129.182 327.465 129.182ZM324.399 125.85V124.73L328.732 124.639L329.95 124.982V125.85H324.399Z" fill="#D8D8D8"/>
</g>
</g>
<defs>
<filter id="filter0_d_189_751" x="0.5" y="0.5" width="467" height="529" filterUnits="userSpaceOnUse" color-interpolation-filters="sRGB">
<feFlood flood-opacity="0" result="BackgroundImageFix"/>
<feColorMatrix in="SourceAlpha" type="matrix" values="0 0 0 0 0 0 0 0 0 0 0 0 0 0 0 0 0 0 127 0" result="hardAlpha"/>
<feOffset dy="24"/>
<feGaussianBlur stdDeviation="24"/>
<feColorMatrix type="matrix" values="0 0 0 0 0 0 0 0 0 0 0 0 0 0 0 0 0 0 0.04 0"/>
<feBlend mode="normal" in2="BackgroundImageFix" result="effect1_dropShadow_189_751"/>
<feBlend mode="normal" in="SourceGraphic" in2="effect1_dropShadow_189_751" result="shape"/>
</filter>
<filter id="filter1_d_189_751" x="63.5472" y="48.283" width="336.906" height="212.717" filterUnits="userSpaceOnUse" color-interpolation-filters="sRGB">
<feFlood flood-opacity="0" result="BackgroundImageFix"/>
<feColorMatrix in="SourceAlpha" type="matrix" values="0 0 0 0 0 0 0 0 0 0 0 0 0 0 0 0 0 0 127 0" result="hardAlpha"/>
<feOffset/>
<feGaussianBlur stdDeviation="12"/>
<feColorMatrix type="matrix" values="0 0 0 0 0.977647 0 0 0 0 0.87141 0 0 0 0 0.724314 0 0 0 0.7 0"/>
<feBlend mode="normal" in2="BackgroundImageFix" result="effect1_dropShadow_189_751"/>
<feBlend mode="normal" in="SourceGraphic" in2="effect1_dropShadow_189_751" result="shape"/>
</filter>
<linearGradient id="paint0_linear_189_751" x1="232.453" y1="162.328" x2="232.453" y2="202.592" gradientUnits="userSpaceOnUse">
<stop stop-color="#41FFFF"/>
<stop offset="1" stop-color="#12E1FF"/>
</linearGradient>
<clipPath id="clip0_189_751">
<rect width="336" height="194" fill="white" transform="translate(64 43)"/>
</clipPath>
</defs>
</svg>
