<svg width="468" height="530" viewBox="0 0 468 530" fill="none" xmlns="http://www.w3.org/2000/svg">
<g filter="url(#filter0_d_189_753)">
<rect x="49" y="25" width="370" height="432" rx="8" fill="white"/>
<rect x="49" y="25" width="370" height="432" rx="8" stroke="#F1D7C8"/>
</g>
<path d="M106.504 316.416C105.555 316.416 104.579 316.336 103.576 316.176C102.584 316.027 101.651 315.829 100.776 315.584C99.912 315.339 99.208 315.083 98.664 314.816L99.048 310.192C99.784 310.608 100.552 310.965 101.352 311.264C102.163 311.552 102.968 311.776 103.768 311.936C104.579 312.096 105.352 312.176 106.088 312.176C106.824 312.176 107.464 312.085 108.008 311.904C108.552 311.723 108.973 311.451 109.272 311.088C109.571 310.715 109.72 310.235 109.72 309.648C109.72 309.051 109.523 308.56 109.128 308.176C108.744 307.781 108.189 307.44 107.464 307.152C106.739 306.853 105.875 306.56 104.872 306.272C103.485 305.867 102.301 305.397 101.32 304.864C100.339 304.32 99.5867 303.627 99.064 302.784C98.552 301.931 98.296 300.837 98.296 299.504C98.296 298.171 98.5893 296.997 99.176 295.984C99.7627 294.96 100.648 294.16 101.832 293.584C103.016 293.008 104.515 292.72 106.328 292.72C107.043 292.72 107.757 292.768 108.472 292.864C109.187 292.949 109.88 293.067 110.552 293.216C111.235 293.365 111.864 293.536 112.44 293.728C113.016 293.92 113.517 294.123 113.944 294.336L113.544 298.976C112.861 298.549 112.152 298.192 111.416 297.904C110.68 297.616 109.96 297.397 109.256 297.248C108.552 297.099 107.912 297.024 107.336 297.024C106.685 297.024 106.093 297.109 105.56 297.28C105.037 297.451 104.621 297.712 104.312 298.064C104.003 298.416 103.848 298.859 103.848 299.392C103.848 299.915 103.992 300.357 104.28 300.72C104.579 301.072 105.032 301.387 105.64 301.664C106.259 301.931 107.053 302.208 108.024 302.496C109.848 303.04 111.288 303.611 112.344 304.208C113.4 304.795 114.147 305.504 114.584 306.336C115.032 307.168 115.256 308.213 115.256 309.472C115.256 310.869 114.952 312.091 114.344 313.136C113.736 314.171 112.787 314.976 111.496 315.552C110.205 316.128 108.541 316.416 106.504 316.416ZM124.706 316.432C123.522 316.432 122.509 316.256 121.666 315.904C120.834 315.541 120.194 314.965 119.746 314.176C119.309 313.387 119.09 312.347 119.09 311.056C119.09 310.363 119.09 309.653 119.09 308.928C119.09 308.192 119.09 307.424 119.09 306.624C119.09 305.824 119.09 304.981 119.09 304.096C119.09 303.211 119.09 302.256 119.09 301.232C119.09 300.027 119.09 298.923 119.09 297.92C119.09 296.917 119.09 295.893 119.09 294.848L123.794 294C123.794 294.832 123.794 295.621 123.794 296.368C123.794 297.104 123.794 297.867 123.794 298.656C123.794 299.435 123.794 300.293 123.794 301.232V309.552C123.794 310.523 123.97 311.264 124.322 311.776C124.685 312.277 125.272 312.528 126.082 312.528C126.424 312.528 126.797 312.469 127.202 312.352C127.608 312.224 127.997 312.027 128.37 311.76L128.642 315.632C128.365 315.803 128.013 315.947 127.586 316.064C127.16 316.181 126.696 316.272 126.194 316.336C125.693 316.4 125.197 316.432 124.706 316.432ZM116.498 303.632V300.032H128.562V303.632C127.56 303.632 126.552 303.632 125.538 303.632C124.536 303.632 123.565 303.632 122.626 303.632H120.498H116.498ZM139.281 316.416C137.222 316.416 135.537 316.053 134.225 315.328C132.923 314.603 131.963 313.605 131.345 312.336C130.737 311.067 130.433 309.611 130.433 307.968C130.433 306.325 130.721 304.875 131.297 303.616C131.873 302.357 132.731 301.376 133.873 300.672C135.025 299.957 136.454 299.6 138.161 299.6C139.611 299.6 140.854 299.861 141.889 300.384C142.923 300.896 143.718 301.675 144.273 302.72C144.827 303.765 145.105 305.083 145.105 306.672C145.105 307.099 145.094 307.477 145.073 307.808C145.051 308.139 145.014 308.469 144.961 308.8L140.865 307.248C140.886 307.109 140.902 306.965 140.913 306.816C140.923 306.667 140.929 306.528 140.929 306.4C140.929 305.323 140.673 304.48 140.161 303.872C139.659 303.253 139.009 302.944 138.209 302.944C137.601 302.944 137.062 303.125 136.593 303.488C136.123 303.84 135.755 304.336 135.489 304.976C135.222 305.616 135.089 306.379 135.089 307.264V308.048C135.089 308.976 135.254 309.771 135.585 310.432C135.926 311.093 136.449 311.6 137.153 311.952C137.857 312.304 138.758 312.48 139.857 312.48C140.283 312.48 140.774 312.443 141.329 312.368C141.894 312.283 142.465 312.16 143.041 312C143.627 311.829 144.171 311.616 144.673 311.36L144.833 315.392C144.417 315.584 143.931 315.76 143.377 315.92C142.833 316.069 142.214 316.187 141.521 316.272C140.827 316.368 140.081 316.416 139.281 316.416ZM132.273 308.8V306.24L142.177 306.032L144.961 306.816V308.8H132.273ZM148.124 322.288C148.124 321.147 148.124 320.016 148.124 318.896C148.124 317.776 148.124 316.555 148.124 315.232V307.488C148.124 306.261 148.124 305.029 148.124 303.792C148.124 302.555 148.124 301.301 148.124 300.032L152.364 299.792L152.508 301.984H152.892C153.212 301.483 153.596 301.056 154.044 300.704C154.503 300.341 155.02 300.069 155.596 299.888C156.172 299.696 156.807 299.6 157.5 299.6C158.908 299.6 160.092 299.968 161.052 300.704C162.012 301.44 162.738 302.443 163.228 303.712C163.719 304.981 163.964 306.411 163.964 308C163.964 309.483 163.73 310.864 163.26 312.144C162.802 313.424 162.098 314.459 161.148 315.248C160.199 316.037 158.999 316.432 157.548 316.432C156.898 316.432 156.306 316.341 155.772 316.16C155.25 315.989 154.775 315.744 154.348 315.424C153.922 315.104 153.538 314.72 153.196 314.272H152.908V315.488C152.908 316.683 152.908 317.803 152.908 318.848C152.908 319.904 152.908 321.003 152.908 322.144L148.124 322.288ZM155.74 312.368C156.498 312.368 157.122 312.16 157.612 311.744C158.114 311.328 158.482 310.795 158.716 310.144C158.951 309.483 159.068 308.779 159.068 308.032C159.068 307.253 158.946 306.539 158.7 305.888C158.455 305.227 158.082 304.699 157.58 304.304C157.09 303.909 156.466 303.712 155.708 303.712C155.335 303.712 154.972 303.771 154.62 303.888C154.279 303.995 153.959 304.155 153.66 304.368C153.372 304.581 153.122 304.837 152.908 305.136V310.576C153.1 310.939 153.33 311.253 153.596 311.52C153.863 311.787 154.172 311.995 154.524 312.144C154.887 312.293 155.292 312.368 155.74 312.368ZM180.163 316.416C179.395 316.416 178.643 316.373 177.907 316.288C177.181 316.203 176.483 316.085 175.811 315.936C175.149 315.776 174.531 315.595 173.955 315.392C173.389 315.189 172.877 314.976 172.419 314.752L172.787 310.272C173.363 310.571 173.944 310.843 174.531 311.088C175.117 311.333 175.699 311.547 176.275 311.728C176.861 311.899 177.437 312.032 178.003 312.128C178.579 312.224 179.128 312.272 179.651 312.272C181.037 312.272 182.029 312.016 182.627 311.504C183.224 310.981 183.523 310.315 183.523 309.504C183.523 308.555 183.139 307.84 182.371 307.36C181.603 306.869 180.504 306.624 179.075 306.624C178.605 306.624 178.147 306.624 177.699 306.624C177.261 306.624 176.819 306.624 176.371 306.624V303.008C176.765 303.008 177.16 303.008 177.555 303.008C177.96 303.008 178.365 303.008 178.771 303.008C179.741 303.008 180.531 302.896 181.139 302.672C181.747 302.437 182.189 302.112 182.467 301.696C182.755 301.28 182.899 300.795 182.899 300.24C182.899 299.387 182.584 298.752 181.955 298.336C181.336 297.909 180.515 297.696 179.491 297.696C178.989 297.696 178.472 297.749 177.939 297.856C177.416 297.963 176.888 298.112 176.355 298.304C175.821 298.485 175.293 298.704 174.771 298.96C174.248 299.216 173.741 299.504 173.251 299.824L172.803 295.28C173.283 295.045 173.811 294.821 174.387 294.608C174.963 294.395 175.576 294.208 176.227 294.048C176.877 293.888 177.549 293.76 178.243 293.664C178.936 293.568 179.629 293.52 180.323 293.52C181.944 293.52 183.325 293.755 184.467 294.224C185.608 294.683 186.477 295.339 187.075 296.192C187.683 297.035 187.987 298.032 187.987 299.184C187.987 300.101 187.805 300.896 187.443 301.568C187.08 302.24 186.589 302.789 185.971 303.216C185.363 303.632 184.685 303.92 183.939 304.08V304.464C184.504 304.571 185.064 304.757 185.619 305.024C186.173 305.28 186.675 305.632 187.123 306.08C187.571 306.528 187.928 307.072 188.195 307.712C188.461 308.352 188.595 309.104 188.595 309.968C188.595 311.205 188.291 312.315 187.683 313.296C187.085 314.267 186.163 315.029 184.915 315.584C183.677 316.139 182.093 316.416 180.163 316.416Z" fill="#1D4645"/>
<path d="M101.792 361.176C101.317 361.176 100.837 361.131 100.352 361.04C99.872 360.955 99.4267 360.848 99.016 360.72C98.6107 360.587 98.2827 360.453 98.032 360.32L98.168 358.952C98.5253 359.149 98.896 359.323 99.28 359.472C99.6693 359.616 100.064 359.728 100.464 359.808C100.869 359.888 101.283 359.928 101.704 359.928C102.179 359.928 102.605 359.864 102.984 359.736C103.368 359.603 103.669 359.395 103.888 359.112C104.112 358.824 104.224 358.448 104.224 357.984C104.224 357.579 104.109 357.245 103.88 356.984C103.651 356.717 103.317 356.488 102.88 356.296C102.448 356.104 101.923 355.912 101.304 355.72C100.579 355.491 99.96 355.243 99.448 354.976C98.936 354.709 98.544 354.381 98.272 353.992C98.0053 353.597 97.872 353.096 97.872 352.488C97.872 351.896 98.0107 351.365 98.288 350.896C98.5707 350.427 98.9893 350.059 99.544 349.792C100.099 349.52 100.787 349.384 101.608 349.384C101.949 349.384 102.285 349.408 102.616 349.456C102.952 349.504 103.272 349.571 103.576 349.656C103.88 349.736 104.157 349.827 104.408 349.928C104.659 350.029 104.872 350.133 105.048 350.24L104.904 351.616C104.579 351.397 104.235 351.216 103.872 351.072C103.509 350.923 103.149 350.813 102.792 350.744C102.435 350.669 102.104 350.632 101.8 350.632C101.368 350.632 100.971 350.696 100.608 350.824C100.245 350.952 99.952 351.149 99.728 351.416C99.5093 351.677 99.4 352.016 99.4 352.432C99.4 352.795 99.4933 353.096 99.68 353.336C99.8667 353.576 100.16 353.792 100.56 353.984C100.965 354.171 101.485 354.365 102.12 354.568C103.037 354.856 103.757 355.149 104.28 355.448C104.808 355.741 105.181 356.083 105.4 356.472C105.624 356.861 105.736 357.339 105.736 357.904C105.736 358.528 105.597 359.085 105.32 359.576C105.048 360.067 104.621 360.456 104.04 360.744C103.459 361.032 102.709 361.176 101.792 361.176ZM107.767 361C107.767 360.408 107.767 359.84 107.767 359.296C107.767 358.752 107.767 358.152 107.767 357.496V353.104C107.767 352.432 107.767 351.779 107.767 351.144C107.767 350.509 107.767 349.891 107.767 349.288L109.087 349.128C109.087 349.763 109.087 350.408 109.087 351.064C109.087 351.715 109.087 352.395 109.087 353.104V354.384H109.231C109.391 354.16 109.596 353.931 109.847 353.696C110.103 353.461 110.404 353.267 110.751 353.112C111.103 352.952 111.503 352.872 111.951 352.872C112.793 352.872 113.409 353.115 113.799 353.6C114.188 354.085 114.383 354.789 114.383 355.712C114.383 356.059 114.383 356.365 114.383 356.632C114.383 356.899 114.383 357.187 114.383 357.496C114.383 358.125 114.383 358.72 114.383 359.28C114.383 359.835 114.383 360.408 114.383 361H113.063C113.063 360.408 113.063 359.837 113.063 359.288C113.063 358.733 113.063 358.155 113.063 357.552V356.048C113.063 355.413 112.948 354.933 112.719 354.608C112.495 354.283 112.087 354.12 111.495 354.12C111.137 354.12 110.812 354.192 110.519 354.336C110.225 354.48 109.959 354.675 109.719 354.92C109.484 355.16 109.273 355.427 109.087 355.72V357.552C109.087 358.176 109.087 358.76 109.087 359.304C109.087 359.843 109.087 360.408 109.087 361H107.767ZM118.795 361.16C118.32 361.16 117.904 361.069 117.547 360.888C117.189 360.701 116.909 360.437 116.707 360.096C116.509 359.755 116.411 359.344 116.411 358.864C116.411 358.432 116.488 358.069 116.643 357.776C116.797 357.477 117 357.235 117.251 357.048C117.501 356.861 117.779 356.717 118.083 356.616C118.387 356.509 118.691 356.429 118.995 356.376L121.483 355.944C121.504 355.405 121.432 355 121.267 354.728C121.107 354.451 120.88 354.264 120.587 354.168C120.293 354.072 119.968 354.024 119.611 354.024C119.429 354.024 119.235 354.037 119.027 354.064C118.819 354.091 118.597 354.133 118.363 354.192C118.133 354.245 117.891 354.315 117.635 354.4C117.379 354.485 117.109 354.589 116.827 354.712L116.755 353.504C116.947 353.424 117.163 353.347 117.403 353.272C117.648 353.197 117.907 353.131 118.179 353.072C118.456 353.008 118.739 352.96 119.027 352.928C119.315 352.896 119.605 352.88 119.899 352.88C120.491 352.88 121 352.973 121.427 353.16C121.859 353.347 122.189 353.64 122.419 354.04C122.648 354.44 122.763 354.963 122.763 355.608C122.763 355.853 122.763 356.165 122.763 356.544C122.763 356.923 122.763 357.283 122.763 357.624V358.656C122.763 359.019 122.763 359.389 122.763 359.768C122.763 360.141 122.763 360.552 122.763 361H121.563L121.491 359.872H121.363C121.197 360.085 120.989 360.291 120.739 360.488C120.488 360.685 120.197 360.848 119.867 360.976C119.541 361.099 119.184 361.16 118.795 361.16ZM119.179 360.064C119.461 360.064 119.744 360.005 120.027 359.888C120.309 359.771 120.573 359.597 120.819 359.368C121.069 359.133 121.28 358.84 121.451 358.488L121.459 356.776C121.373 356.824 121.259 356.872 121.115 356.92C120.976 356.968 120.765 357.024 120.483 357.088C120.205 357.147 119.819 357.221 119.323 357.312C119.019 357.365 118.749 357.453 118.515 357.576C118.28 357.693 118.093 357.856 117.955 358.064C117.821 358.267 117.755 358.515 117.755 358.808C117.755 359.267 117.891 359.592 118.163 359.784C118.44 359.971 118.779 360.064 119.179 360.064ZM125.314 361C125.314 360.408 125.314 359.84 125.314 359.296C125.314 358.752 125.314 358.152 125.314 357.496V356.696C125.314 356.109 125.314 355.509 125.314 354.896C125.314 354.283 125.314 353.672 125.314 353.064L126.466 352.984L126.506 354.6H126.642C126.86 354.115 127.111 353.749 127.394 353.504C127.682 353.253 127.972 353.085 128.266 353C128.559 352.915 128.828 352.872 129.074 352.872C129.223 352.872 129.372 352.883 129.522 352.904C129.671 352.925 129.812 352.96 129.946 353.008L129.826 354.336C129.65 354.304 129.49 354.277 129.346 354.256C129.207 354.235 129.044 354.224 128.858 354.224C128.703 354.224 128.527 354.248 128.33 354.296C128.138 354.339 127.938 354.432 127.73 354.576C127.527 354.715 127.33 354.925 127.138 355.208C126.946 355.485 126.778 355.856 126.634 356.32V357.552C126.634 358.176 126.634 358.76 126.634 359.304C126.634 359.843 126.634 360.408 126.634 361H125.314ZM135.023 361.176C134.073 361.176 133.292 360.995 132.679 360.632C132.065 360.269 131.609 359.773 131.311 359.144C131.012 358.515 130.863 357.795 130.863 356.984C130.863 356.184 131.009 355.475 131.303 354.856C131.596 354.237 132.017 353.755 132.567 353.408C133.116 353.056 133.772 352.88 134.535 352.88C135.207 352.88 135.783 353.011 136.263 353.272C136.748 353.533 137.121 353.917 137.383 354.424C137.644 354.925 137.775 355.547 137.775 356.288C137.775 356.485 137.769 356.664 137.759 356.824C137.753 356.979 137.737 357.136 137.711 357.296L136.551 356.712C136.561 356.627 136.567 356.547 136.567 356.472C136.572 356.392 136.575 356.315 136.575 356.24C136.575 355.488 136.388 354.917 136.015 354.528C135.641 354.133 135.153 353.936 134.551 353.936C134.065 353.936 133.647 354.061 133.295 354.312C132.948 354.557 132.679 354.899 132.487 355.336C132.295 355.773 132.199 356.272 132.199 356.832V357.016C132.199 357.635 132.305 358.168 132.519 358.616C132.732 359.064 133.055 359.411 133.487 359.656C133.924 359.896 134.479 360.016 135.151 360.016C135.401 360.016 135.665 359.997 135.943 359.96C136.225 359.917 136.503 359.853 136.775 359.768C137.052 359.683 137.316 359.571 137.567 359.432L137.623 360.624C137.42 360.736 137.185 360.835 136.919 360.92C136.652 361 136.359 361.061 136.039 361.104C135.719 361.152 135.38 361.176 135.023 361.176ZM131.415 357.296V356.352L136.903 356.304L137.711 356.608V357.296H131.415ZM143.707 364.12C143.92 363.597 144.133 363.069 144.347 362.536C144.56 362.003 144.773 361.475 144.987 360.952V361.288C144.784 360.744 144.581 360.192 144.379 359.632C144.176 359.072 143.976 358.528 143.779 358L143.251 356.56C143.043 355.989 142.827 355.405 142.603 354.808C142.384 354.211 142.171 353.629 141.963 353.064L143.379 353.008C143.608 353.696 143.832 354.368 144.051 355.024C144.269 355.68 144.493 356.349 144.723 357.032L145.562 359.584H145.707L146.627 357.024C146.867 356.357 147.104 355.696 147.339 355.04C147.573 354.384 147.811 353.725 148.051 353.064H149.451C149.28 353.491 149.115 353.904 148.955 354.304C148.8 354.699 148.627 355.136 148.435 355.616C148.248 356.096 148.024 356.667 147.763 357.328L146.883 359.56C146.483 360.573 146.141 361.435 145.859 362.144C145.581 362.853 145.328 363.496 145.099 364.072L143.707 364.12ZM154.371 361.176C153.715 361.176 153.136 361.064 152.635 360.84C152.139 360.611 151.723 360.301 151.387 359.912C151.051 359.523 150.795 359.077 150.618 358.576C150.448 358.069 150.363 357.539 150.363 356.984C150.363 356.189 150.523 355.485 150.843 354.872C151.168 354.253 151.627 353.765 152.219 353.408C152.816 353.051 153.525 352.872 154.347 352.872C154.981 352.872 155.544 352.976 156.035 353.184C156.525 353.392 156.941 353.683 157.283 354.056C157.624 354.429 157.883 354.867 158.059 355.368C158.235 355.864 158.323 356.403 158.323 356.984C158.323 357.768 158.163 358.477 157.843 359.112C157.523 359.747 157.067 360.251 156.475 360.624C155.888 360.992 155.187 361.176 154.371 361.176ZM154.371 360.024C154.952 360.024 155.435 359.88 155.819 359.592C156.203 359.304 156.491 358.928 156.683 358.464C156.875 358 156.971 357.507 156.971 356.984C156.971 356.387 156.864 355.867 156.651 355.424C156.437 354.981 156.136 354.637 155.747 354.392C155.357 354.147 154.896 354.024 154.363 354.024C153.787 354.024 153.301 354.155 152.907 354.416C152.512 354.677 152.213 355.032 152.011 355.48C151.813 355.928 151.715 356.429 151.715 356.984C151.715 357.507 151.811 358 152.003 358.464C152.2 358.928 152.496 359.304 152.891 359.592C153.285 359.88 153.779 360.024 154.371 360.024ZM162.733 361.176C161.89 361.176 161.274 360.933 160.885 360.448C160.496 359.963 160.301 359.259 160.301 358.336C160.301 357.984 160.301 357.68 160.301 357.424C160.301 357.163 160.301 356.907 160.301 356.656C160.301 356.181 160.301 355.747 160.301 355.352C160.301 354.952 160.301 354.568 160.301 354.2C160.301 353.832 160.301 353.453 160.301 353.064L161.621 353.008C161.621 353.595 161.621 354.171 161.621 354.736C161.621 355.301 161.621 355.896 161.621 356.52V358.024C161.621 358.653 161.736 359.133 161.965 359.464C162.194 359.789 162.602 359.952 163.189 359.952C163.53 359.952 163.842 359.88 164.125 359.736C164.408 359.587 164.666 359.392 164.901 359.152C165.136 358.912 165.349 358.645 165.541 358.352V356.52C165.541 355.896 165.541 355.309 165.541 354.76C165.541 354.211 165.541 353.645 165.541 353.064H166.861C166.861 353.645 166.861 354.216 166.861 354.776C166.861 355.336 166.861 355.963 166.861 356.656V357.496C166.861 358.152 166.861 358.752 166.861 359.296C166.861 359.84 166.861 360.408 166.861 361H165.709L165.661 359.6H165.517C165.352 359.84 165.136 360.083 164.869 360.328C164.608 360.568 164.298 360.771 163.941 360.936C163.584 361.096 163.181 361.176 162.733 361.176ZM169.439 361C169.439 360.408 169.439 359.84 169.439 359.296C169.439 358.752 169.439 358.152 169.439 357.496V356.696C169.439 356.109 169.439 355.509 169.439 354.896C169.439 354.283 169.439 353.672 169.439 353.064L170.591 352.984L170.631 354.6H170.767C170.985 354.115 171.236 353.749 171.519 353.504C171.807 353.253 172.097 353.085 172.391 353C172.684 352.915 172.953 352.872 173.199 352.872C173.348 352.872 173.497 352.883 173.647 352.904C173.796 352.925 173.937 352.96 174.071 353.008L173.951 354.336C173.775 354.304 173.615 354.277 173.471 354.256C173.332 354.235 173.169 354.224 172.983 354.224C172.828 354.224 172.652 354.248 172.455 354.296C172.263 354.339 172.063 354.432 171.855 354.576C171.652 354.715 171.455 354.925 171.263 355.208C171.071 355.485 170.903 355.856 170.759 356.32V357.552C170.759 358.176 170.759 358.76 170.759 359.304C170.759 359.843 170.759 360.408 170.759 361H169.439ZM184.284 364.12C184.284 363.533 184.284 362.96 184.284 362.4C184.284 361.84 184.284 361.248 184.284 360.624V359.992H184.172C183.969 360.243 183.745 360.456 183.5 360.632C183.254 360.808 182.982 360.941 182.684 361.032C182.39 361.128 182.068 361.176 181.716 361.176C180.958 361.176 180.329 360.984 179.828 360.6C179.326 360.211 178.95 359.701 178.7 359.072C178.449 358.437 178.324 357.749 178.324 357.008C178.324 356.219 178.457 355.512 178.724 354.888C178.99 354.264 179.377 353.773 179.884 353.416C180.396 353.053 181.014 352.872 181.74 352.872C182.118 352.872 182.465 352.925 182.78 353.032C183.1 353.133 183.382 353.272 183.628 353.448C183.873 353.619 184.076 353.808 184.236 354.016H184.372L184.404 353.064L185.604 352.984C185.604 353.613 185.604 354.227 185.604 354.824C185.604 355.416 185.604 356.04 185.604 356.696V360.568C185.604 361.224 185.604 361.824 185.604 362.368C185.604 362.912 185.604 363.48 185.604 364.072L184.284 364.12ZM182.116 359.992C182.446 359.992 182.745 359.941 183.012 359.84C183.278 359.733 183.516 359.584 183.724 359.392C183.937 359.2 184.124 358.968 184.284 358.696V355.168C184.118 354.928 183.921 354.728 183.692 354.568C183.468 354.403 183.222 354.28 182.956 354.2C182.689 354.115 182.417 354.072 182.14 354.072C181.58 354.072 181.118 354.205 180.756 354.472C180.393 354.739 180.121 355.096 179.94 355.544C179.764 355.987 179.676 356.477 179.676 357.016C179.676 357.533 179.761 358.019 179.932 358.472C180.102 358.92 180.366 359.285 180.724 359.568C181.081 359.851 181.545 359.992 182.116 359.992ZM190.483 361.176C189.64 361.176 189.024 360.933 188.635 360.448C188.246 359.963 188.051 359.259 188.051 358.336C188.051 357.984 188.051 357.68 188.051 357.424C188.051 357.163 188.051 356.907 188.051 356.656C188.051 356.181 188.051 355.747 188.051 355.352C188.051 354.952 188.051 354.568 188.051 354.2C188.051 353.832 188.051 353.453 188.051 353.064L189.371 353.008C189.371 353.595 189.371 354.171 189.371 354.736C189.371 355.301 189.371 355.896 189.371 356.52V358.024C189.371 358.653 189.486 359.133 189.715 359.464C189.944 359.789 190.352 359.952 190.939 359.952C191.28 359.952 191.592 359.88 191.875 359.736C192.158 359.587 192.416 359.392 192.651 359.152C192.886 358.912 193.099 358.645 193.291 358.352V356.52C193.291 355.896 193.291 355.309 193.291 354.76C193.291 354.211 193.291 353.645 193.291 353.064H194.611C194.611 353.645 194.611 354.216 194.611 354.776C194.611 355.336 194.611 355.963 194.611 356.656V357.496C194.611 358.152 194.611 358.752 194.611 359.296C194.611 359.84 194.611 360.408 194.611 361H193.459L193.411 359.6H193.267C193.102 359.84 192.886 360.083 192.619 360.328C192.358 360.568 192.048 360.771 191.691 360.936C191.334 361.096 190.931 361.176 190.483 361.176ZM197.205 361C197.205 360.408 197.205 359.84 197.205 359.296C197.205 358.752 197.205 358.152 197.205 357.496V356.696C197.205 356.221 197.205 355.784 197.205 355.384C197.205 354.979 197.205 354.589 197.205 354.216C197.205 353.837 197.205 353.453 197.205 353.064L198.533 353.016C198.533 353.411 198.533 353.8 198.533 354.184C198.533 354.563 198.533 354.957 198.533 355.368C198.533 355.773 198.533 356.216 198.533 356.696V357.496C198.533 358.152 198.533 358.752 198.533 359.296C198.533 359.84 198.533 360.408 198.533 361H197.205ZM197.845 351.232C197.557 351.232 197.322 351.152 197.141 350.992C196.959 350.832 196.868 350.587 196.868 350.256C196.868 349.931 196.959 349.688 197.141 349.528C197.322 349.363 197.562 349.28 197.861 349.28C198.154 349.28 198.389 349.365 198.565 349.536C198.741 349.701 198.829 349.941 198.829 350.256C198.829 350.587 198.741 350.832 198.565 350.992C198.389 351.152 198.149 351.232 197.845 351.232ZM200.538 361V360.32C200.991 359.728 201.434 359.149 201.866 358.584C202.298 358.013 202.706 357.477 203.09 356.976L205.634 353.64L205.826 354.12H204.074C203.786 354.12 203.442 354.12 203.042 354.12C202.647 354.12 202.234 354.12 201.802 354.12C201.37 354.12 200.959 354.12 200.57 354.12V353.064H207.05V353.856C206.842 354.123 206.599 354.435 206.322 354.792C206.05 355.149 205.767 355.52 205.474 355.904C205.186 356.283 204.909 356.643 204.642 356.984L202.114 360.288L201.97 359.944H203.906C204.194 359.944 204.533 359.944 204.922 359.944C205.317 359.944 205.722 359.944 206.138 359.944C206.554 359.944 206.941 359.944 207.298 359.944V361H200.538ZM212.314 361C212.314 360.408 212.314 359.84 212.314 359.296C212.314 358.752 212.314 358.152 212.314 357.496V353.104C212.314 352.432 212.314 351.779 212.314 351.144C212.314 350.509 212.314 349.891 212.314 349.288L213.634 349.128C213.634 349.773 213.634 350.421 213.634 351.072C213.634 351.717 213.634 352.395 213.634 353.104V357.496C213.634 358.152 213.634 358.752 213.634 359.296C213.634 359.84 213.634 360.408 213.634 361H212.314ZM216.392 361C216.392 360.408 216.392 359.84 216.392 359.296C216.392 358.752 216.392 358.152 216.392 357.496V356.696C216.392 356.221 216.392 355.784 216.392 355.384C216.392 354.979 216.392 354.589 216.392 354.216C216.392 353.837 216.392 353.453 216.392 353.064L217.72 353.016C217.72 353.411 217.72 353.8 217.72 354.184C217.72 354.563 217.72 354.957 217.72 355.368C217.72 355.773 217.72 356.216 217.72 356.696V357.496C217.72 358.152 217.72 358.752 217.72 359.296C217.72 359.84 217.72 360.408 217.72 361H216.392ZM217.032 351.232C216.744 351.232 216.509 351.152 216.328 350.992C216.147 350.832 216.056 350.587 216.056 350.256C216.056 349.931 216.147 349.688 216.328 349.528C216.509 349.363 216.749 349.28 217.048 349.28C217.341 349.28 217.576 349.365 217.752 349.536C217.928 349.701 218.016 349.941 218.016 350.256C218.016 350.587 217.928 350.832 217.752 350.992C217.576 351.152 217.336 351.232 217.032 351.232ZM220.485 361C220.485 360.408 220.485 359.84 220.485 359.296C220.485 358.752 220.485 358.152 220.485 357.496V356.696C220.485 356.109 220.485 355.509 220.485 354.896C220.485 354.283 220.485 353.672 220.485 353.064L221.637 352.984L221.677 354.456H221.821C221.992 354.216 222.211 353.973 222.477 353.728C222.744 353.483 223.059 353.28 223.421 353.12C223.784 352.955 224.2 352.872 224.669 352.872C225.512 352.872 226.128 353.115 226.517 353.6C226.907 354.085 227.101 354.789 227.101 355.712C227.101 356.059 227.101 356.365 227.101 356.632C227.101 356.899 227.101 357.187 227.101 357.496C227.101 358.125 227.101 358.72 227.101 359.28C227.101 359.835 227.101 360.408 227.101 361H225.781C225.781 360.408 225.781 359.837 225.781 359.288C225.781 358.733 225.781 358.155 225.781 357.552V356.048C225.781 355.413 225.667 354.933 225.437 354.608C225.213 354.283 224.805 354.12 224.213 354.12C223.856 354.12 223.531 354.192 223.237 354.336C222.944 354.48 222.677 354.675 222.437 354.92C222.203 355.16 221.992 355.427 221.805 355.72V357.552C221.805 358.176 221.805 358.76 221.805 359.304C221.805 359.843 221.805 360.408 221.805 361H220.485ZM234.921 361C234.564 360.637 234.201 360.275 233.833 359.912C233.471 359.549 233.111 359.189 232.753 358.832L231.385 357.464H230.825V356.52H231.465L232.617 355.296C232.969 354.928 233.324 354.557 233.681 354.184C234.039 353.805 234.391 353.432 234.737 353.064H236.369C235.911 353.528 235.455 353.992 235.001 354.456C234.548 354.92 234.097 355.384 233.649 355.848L232.297 357.224L232.249 356.584L233.817 358.2C234.292 358.669 234.764 359.139 235.233 359.608C235.708 360.072 236.177 360.536 236.641 361H234.921ZM229.657 361C229.657 360.408 229.657 359.84 229.657 359.296C229.657 358.752 229.657 358.152 229.657 357.496V353.104C229.657 352.432 229.657 351.779 229.657 351.144C229.657 350.509 229.657 349.891 229.657 349.288L230.977 349.128C230.977 349.763 230.977 350.408 230.977 351.064C230.977 351.715 230.977 352.395 230.977 353.104V357.704C230.977 358.301 230.977 358.859 230.977 359.376C230.977 359.893 230.977 360.435 230.977 361H229.657Z" fill="#333333"/>
<path d="M393.235 47H74.7652C70.8015 47 67.5884 49.5453 67.5884 52.685V229.63C67.5884 232.77 70.8015 235.315 74.7652 235.315H393.235C397.198 235.315 400.412 232.77 400.412 229.63V52.685C400.412 49.5453 397.198 47 393.235 47Z" fill="#E4E0F7"/>
<mask id="mask0_189_753" style="mask-type:alpha" maskUnits="userSpaceOnUse" x="67" y="47" width="334" height="189">
<path d="M400.412 47H67.5884V235.315H400.412V47Z" fill="#FFF2E6"/>
</mask>
<g mask="url(#mask0_189_753)">
<path opacity="0.5" d="M91.81 121.971C124.758 121.971 151.467 100.813 151.467 74.7142C151.467 48.6152 124.758 27.4578 91.81 27.4578C58.8624 27.4578 32.153 48.6152 32.153 74.7142C32.153 100.813 58.8624 121.971 91.81 121.971Z" stroke="#CDC6F4" stroke-width="19"/>
<path opacity="0.5" d="M387.852 195.875C420.8 195.875 447.509 174.718 447.509 148.619C447.509 122.52 420.8 101.363 387.852 101.363C354.905 101.363 328.195 122.52 328.195 148.619C328.195 174.718 354.905 195.875 387.852 195.875Z" stroke="#CDC6F4" stroke-width="19"/>
<g filter="url(#filter1_d_189_753)">
<path d="M90.9129 84.6629C90.9129 79.5608 96.1343 75.4248 102.575 75.4248H365.425C371.866 75.4248 377.087 79.5608 377.087 84.6629V235.315H90.9129V84.6629Z" fill="white"/>
</g>
<path d="M341.203 135.472H127.694C121.005 135.472 115.583 139.768 115.583 145.066V164.253C115.583 169.551 121.005 173.846 127.694 173.846H341.203C347.892 173.846 353.314 169.551 353.314 164.253V145.066C353.314 139.768 347.892 135.472 341.203 135.472Z" fill="white"/>
<path d="M341.203 135.472H127.694C121.005 135.472 115.583 139.768 115.583 145.066V164.253C115.583 169.551 121.005 173.846 127.694 173.846H341.203C347.892 173.846 353.314 169.551 353.314 164.253V145.066C353.314 139.768 347.892 135.472 341.203 135.472Z" fill="#1D4645" fill-opacity="0.9" stroke="#BDC7D2"/>
<path d="M347.753 183H255.247C252.349 183 250 187.253 250 192.5V211.5C250 216.747 252.349 221 255.247 221H347.753C350.651 221 353 216.747 353 211.5V192.5C353 187.253 350.651 183 347.753 183Z" fill="white"/>
<path d="M347.855 183H257.145C254.304 183 252 187.253 252 192.5V211.5C252 216.747 254.304 221 257.145 221H347.855C350.696 221 353 216.747 353 211.5V192.5C353 187.253 350.696 183 347.855 183Z" stroke="url(#paint0_linear_189_753)"/>
<g opacity="0.3">
<path opacity="0.3" d="M328.812 210.957C323.757 211.938 318.724 209.431 317.517 205.53C316.279 201.526 319.442 197.538 324.368 196.583C329.293 195.627 334.456 198.108 335.663 202.01C336.901 206.014 333.867 209.976 328.812 210.957ZM324.844 198.123C320.827 198.903 318.379 202.098 319.363 205.28C320.347 208.463 324.381 210.402 328.399 209.622C332.417 208.843 334.864 205.647 333.88 202.464C332.766 199.307 328.862 197.343 324.844 198.123Z" fill="#12E1FF"/>
<path opacity="0.3" d="M329.796 214.14C322.537 215.548 315.277 212.059 313.499 206.309C311.722 200.56 316.126 194.809 323.384 193.4C330.643 191.993 337.903 195.481 339.681 201.231C341.458 206.98 337.054 212.731 329.796 214.14ZM324.018 195.454C318.186 196.585 314.565 201.314 315.994 205.934C317.422 210.555 323.392 213.423 329.224 212.291C335.057 211.16 338.678 206.431 337.25 201.811C335.66 197.113 329.851 194.322 324.018 195.454Z" fill="#12E1FF"/>
</g>
<path d="M351.854 253.681C351.854 253.681 346.736 247.831 345.033 246.779C343.329 245.726 340.698 244.053 339.555 243.328C337.959 242.327 332.126 236.835 331.783 236.32C329.38 232.709 325.573 228.717 324.625 228.027C322.965 226.82 319.894 226.397 320.051 225.42C320.208 224.443 323.986 222.691 327.245 224.316C330.591 225.923 334.871 230.552 334.871 230.552C334.871 230.552 334.194 227.772 333.469 226.02C332.744 224.268 329.025 216.4 328.234 214.734C327.53 213.051 324.647 206.403 324.416 205.356C324.184 204.31 323.395 202.352 325.586 201.709C327.602 201.099 328.74 202.698 329.639 204.416C330.538 206.135 332.8 211.373 333.913 213.487C335.005 215.531 336.907 219.602 337.768 220.309C338.63 221.015 340.037 221.107 340.037 221.107C340.037 221.107 339.856 218.74 339.797 217.659C339.736 217.161 339.553 215.086 342.089 214.666C344.451 214.281 345.693 216.515 345.693 216.515C345.693 216.515 346.325 215.883 347.407 215.818C348.576 215.737 349.353 216.169 350.04 217.2C350.254 217.595 350.746 218.592 350.746 218.592C350.746 218.592 351.399 218.029 352.416 218.05C353.541 218.123 354.249 219.223 354.7 219.791C355.064 220.375 357.916 224.844 358.513 226.475C359.109 228.107 360.247 236.839 360.824 238.11C361.4 239.382 371.685 249.761 371.685 249.761L351.832 253.612L351.854 253.681Z" fill="#FFBD95"/>
<path d="M325.673 201.692C326.67 201.353 327.404 201.647 327.899 202.061C328.374 202.405 329.204 204.791 329.049 205.186C328.896 205.58 326.574 206.394 326.057 206.203C325.343 205.978 324.512 203.883 324.428 203.316C324.237 202.698 324.501 202.065 325.673 201.692Z" fill="#FFC8A7"/>
<path d="M328.712 225.196C328.712 225.196 331.406 227.075 333.924 229.572C334.312 229.933 334.871 230.552 334.871 230.552C334.871 230.552 334.641 232.781 334.851 233.759C334.975 234.754 336.11 236.644 336.11 236.644C336.11 236.644 334.148 235.351 333.729 233.103C333.393 231.421 333.291 230.495 333.013 229.893C332.395 228.194 328.712 225.196 328.712 225.196Z" fill="#F9A983"/>
<path d="M345.888 216.55C345.888 216.55 346.772 220.601 347.287 221.374C347.823 222.217 348.447 222.75 348.881 222.667C349.488 222.549 349.255 221.793 348.676 220.813C348.01 219.851 345.888 216.55 345.888 216.55Z" fill="#F9A983"/>
<path d="M350.94 218.627C350.94 218.627 351.768 221.306 352.283 222.079C352.798 222.853 353.206 223.283 353.661 223.268C354.116 223.252 354.162 222.807 353.798 222.222C353.177 221.105 350.94 218.627 350.94 218.627Z" fill="#F9A983"/>
<path d="M337.597 220.051C337.597 220.051 338.068 220.979 338.952 221.462C339.837 221.946 340.27 221.862 340.27 221.862L340.123 221.09C340.123 221.09 339.453 221.002 338.847 220.827C338.048 220.619 337.597 220.051 337.597 220.051Z" fill="#F9A983"/>
<path d="M325.948 206.151C326.467 206.342 328.722 205.613 328.963 205.202C328.66 205.116 327.924 205.113 327.165 205.333C326.341 205.639 326.079 205.981 325.948 206.151Z" fill="#FFD3B9"/>
<path d="M349.838 246.865C347.336 245.313 343.9 244.305 340.728 242.664C337.643 241.006 333.38 237.029 332.694 235.997C330.355 232.593 326.955 229.322 325.898 228.58C323.699 227.114 325.826 226.265 323.329 227.405C323.761 227.612 324.214 227.888 324.645 228.096C325.594 228.785 329.401 232.778 331.804 236.388C332.147 236.904 337.981 242.396 339.576 243.397C340.719 244.122 343.35 245.794 345.053 246.848C346.758 247.9 351.874 253.75 351.874 253.75L355.689 253.009C354.229 250.963 351.563 247.987 349.838 246.865Z" fill="#F9A983"/>
<path d="M324.172 227.751C324.345 227.717 324.827 226.896 324.697 226.775C324.654 226.638 322.13 225.308 321.22 225.339C320.312 225.37 319.66 225.642 319.724 225.847C319.788 226.053 323.912 227.801 324.172 227.751Z" fill="#FFC8A7"/>
<path d="M358.707 226.51C358.09 224.811 355.346 220.393 354.895 219.826C354.53 219.241 353.736 218.158 352.611 218.085C351.485 218.012 350.94 218.627 350.94 218.627C350.94 218.627 350.449 217.63 350.234 217.235C349.569 216.272 348.771 215.772 347.601 215.854C346.518 215.918 345.887 216.55 345.887 216.55C345.887 216.55 345.694 216.223 345.286 215.793C343.004 220.895 342.471 226.603 344.233 232.303C346.929 241.024 354.356 247.808 363.73 251.377L371.792 249.813C371.792 249.813 361.595 239.417 360.931 238.162C360.354 236.891 359.325 228.21 358.707 226.51Z" fill="#FFC6A3"/>
</g>
<path d="M303 212C302.167 212 301.458 211.708 300.875 211.125C300.292 210.542 300 209.833 300 209C300 208.883 300.008 208.762 300.025 208.637C300.042 208.512 300.067 208.399 300.1 208.3L293.05 204.2C292.767 204.45 292.45 204.646 292.1 204.788C291.75 204.93 291.383 205.001 291 205C290.167 205 289.458 204.708 288.875 204.125C288.292 203.542 288 202.833 288 202C288 201.167 288.292 200.458 288.875 199.875C289.458 199.292 290.167 199 291 199C291.383 199 291.75 199.071 292.1 199.213C292.45 199.355 292.767 199.551 293.05 199.8L300.1 195.7C300.067 195.6 300.042 195.488 300.025 195.363C300.008 195.238 300 195.117 300 195C300 194.167 300.292 193.458 300.875 192.875C301.458 192.292 302.167 192 303 192C303.833 192 304.542 192.292 305.125 192.875C305.708 193.458 306 194.167 306 195C306 195.833 305.708 196.542 305.125 197.125C304.542 197.708 303.833 198 303 198C302.617 198 302.25 197.929 301.9 197.788C301.55 197.647 301.233 197.451 300.95 197.2L293.9 201.3C293.933 201.4 293.958 201.513 293.975 201.638C293.992 201.763 294 201.884 294 202C294 202.117 293.992 202.238 293.975 202.363C293.958 202.488 293.933 202.601 293.9 202.7L300.95 206.8C301.233 206.55 301.55 206.354 301.9 206.213C302.25 206.072 302.617 206.001 303 206C303.833 206 304.542 206.292 305.125 206.875C305.708 207.458 306 208.167 306 209C306 209.833 305.708 210.542 305.125 211.125C304.542 211.708 303.833 212 303 212Z" fill="black"/>
<path d="M249.834 111.3C249.6 110.835 249.287 110.401 248.934 109.998C247.134 107.889 244.354 106.494 241.223 106.153C240.831 106.122 240.401 106.184 240.088 106.37C238.443 107.331 236.486 107.827 234.45 107.827C232.415 107.827 230.458 107.331 228.814 106.37C228.501 106.184 228.07 106.091 227.679 106.153C224.547 106.494 221.729 107.889 219.968 109.998C219.615 110.401 219.302 110.866 219.067 111.3C218.95 111.486 218.989 111.703 219.106 111.889C219.419 112.323 219.811 112.758 220.163 113.13C220.711 113.719 221.298 114.246 221.964 114.742C222.512 115.176 223.138 115.579 223.764 115.982C226.857 117.812 230.576 118.773 234.412 118.773C238.248 118.773 241.966 117.812 245.059 115.982C245.685 115.61 246.311 115.176 246.859 114.742C247.486 114.246 248.112 113.719 248.66 113.13C249.052 112.727 249.404 112.323 249.717 111.889C249.913 111.703 249.951 111.486 249.834 111.3Z" fill="white"/>
<path d="M126.295 159C126.295 158.445 126.295 157.91 126.295 157.397C126.295 156.884 126.295 156.319 126.295 155.703V152.35C126.295 151.729 126.295 151.158 126.295 150.635C126.295 150.112 126.295 149.573 126.295 149.018H132.497V150.103C132.03 150.103 131.529 150.103 130.992 150.103C130.46 150.103 129.83 150.103 129.102 150.103H126.834L127.534 149.2C127.534 149.76 127.534 150.301 127.534 150.824C127.534 151.342 127.534 151.911 127.534 152.532V155.514C127.534 156.125 127.534 156.69 127.534 157.208C127.534 157.721 127.534 158.256 127.534 158.811L126.904 157.915H129.214C129.825 157.915 130.402 157.915 130.943 157.915C131.489 157.915 132.012 157.915 132.511 157.915V159H126.295ZM127.261 154.471V153.414H129.2C129.844 153.414 130.399 153.414 130.866 153.414C131.333 153.414 131.783 153.414 132.217 153.414V154.471C131.76 154.471 131.298 154.471 130.831 154.471C130.369 154.471 129.823 154.471 129.193 154.471H127.261ZM134.517 159C134.517 158.482 134.517 157.985 134.517 157.509C134.517 157.033 134.517 156.508 134.517 155.934V155.234C134.517 154.721 134.517 154.196 134.517 153.659C134.517 153.122 134.517 152.588 134.517 152.056L135.525 151.986L135.56 153.274H135.686C135.835 153.064 136.026 152.852 136.26 152.637C136.493 152.422 136.768 152.245 137.086 152.105C137.403 151.96 137.767 151.888 138.178 151.888C138.915 151.888 139.454 152.1 139.795 152.525C140.135 152.95 140.306 153.566 140.306 154.373C140.306 154.676 140.306 154.945 140.306 155.178C140.306 155.411 140.306 155.663 140.306 155.934C140.306 156.485 140.306 157.005 140.306 157.495C140.306 157.98 140.306 158.482 140.306 159H139.151C139.151 158.482 139.151 157.983 139.151 157.502C139.151 157.017 139.151 156.51 139.151 155.983V154.667C139.151 154.112 139.05 153.692 138.85 153.407C138.654 153.122 138.297 152.98 137.779 152.98C137.466 152.98 137.181 153.043 136.925 153.169C136.668 153.295 136.435 153.465 136.225 153.68C136.019 153.89 135.835 154.123 135.672 154.38V155.983C135.672 156.529 135.672 157.04 135.672 157.516C135.672 157.987 135.672 158.482 135.672 159H134.517ZM145.174 159.154C144.712 159.154 144.32 159.075 143.998 158.916C143.676 158.753 143.431 158.508 143.263 158.181C143.1 157.85 143.018 157.427 143.018 156.914C143.018 156.508 143.018 156.107 143.018 155.71C143.018 155.309 143.018 154.917 143.018 154.534C143.018 154.147 143.018 153.776 143.018 153.421C143.018 153.062 143.018 152.719 143.018 152.392C143.018 151.916 143.018 151.475 143.018 151.069C143.018 150.663 143.018 150.241 143.018 149.802L144.159 149.55C144.159 149.895 144.159 150.215 144.159 150.509C144.159 150.803 144.159 151.099 144.159 151.398C144.159 151.697 144.159 152.028 144.159 152.392V156.641C144.159 157.14 144.264 157.516 144.474 157.768C144.689 158.02 145.015 158.146 145.454 158.146C145.627 158.146 145.816 158.118 146.021 158.062C146.226 158.001 146.408 157.908 146.567 157.782L146.665 158.797C146.572 158.867 146.446 158.93 146.287 158.986C146.128 159.037 145.953 159.077 145.762 159.105C145.571 159.138 145.375 159.154 145.174 159.154ZM141.681 152.973V152.056H146.595V152.973C146.128 152.973 145.657 152.973 145.181 152.973C144.71 152.973 144.25 152.973 143.802 152.973H143.326H141.681ZM151.324 159.154C150.494 159.154 149.81 158.995 149.273 158.678C148.737 158.361 148.338 157.927 148.076 157.376C147.815 156.825 147.684 156.195 147.684 155.486C147.684 154.786 147.813 154.165 148.069 153.624C148.326 153.083 148.695 152.66 149.175 152.357C149.656 152.049 150.23 151.895 150.897 151.895C151.485 151.895 151.989 152.009 152.409 152.238C152.834 152.467 153.161 152.803 153.389 153.246C153.618 153.685 153.732 154.228 153.732 154.877C153.732 155.05 153.728 155.206 153.718 155.346C153.714 155.481 153.7 155.619 153.676 155.759L152.661 155.248C152.671 155.173 152.675 155.103 152.675 155.038C152.68 154.968 152.682 154.9 152.682 154.835C152.682 154.177 152.519 153.678 152.192 153.337C151.866 152.992 151.439 152.819 150.911 152.819C150.487 152.819 150.12 152.929 149.812 153.148C149.509 153.363 149.273 153.661 149.105 154.044C148.937 154.427 148.853 154.863 148.853 155.353V155.514C148.853 156.055 148.947 156.522 149.133 156.914C149.32 157.306 149.602 157.609 149.98 157.824C150.363 158.034 150.848 158.139 151.436 158.139C151.656 158.139 151.887 158.123 152.129 158.09C152.377 158.053 152.619 157.997 152.857 157.922C153.1 157.847 153.331 157.749 153.55 157.628L153.599 158.671C153.422 158.769 153.217 158.855 152.983 158.93C152.75 159 152.493 159.054 152.213 159.091C151.933 159.133 151.637 159.154 151.324 159.154ZM148.167 155.759V154.933L152.969 154.891L153.676 155.157V155.759H148.167ZM155.571 159C155.571 158.482 155.571 157.985 155.571 157.509C155.571 157.033 155.571 156.508 155.571 155.934V155.234C155.571 154.721 155.571 154.196 155.571 153.659C155.571 153.122 155.571 152.588 155.571 152.056L156.579 151.986L156.614 153.4H156.733C156.925 152.975 157.144 152.656 157.391 152.441C157.643 152.222 157.898 152.075 158.154 152C158.411 151.925 158.647 151.888 158.861 151.888C158.992 151.888 159.123 151.897 159.253 151.916C159.384 151.935 159.508 151.965 159.624 152.007L159.519 153.169C159.365 153.141 159.225 153.118 159.099 153.099C158.978 153.08 158.836 153.071 158.672 153.071C158.537 153.071 158.383 153.092 158.21 153.134C158.042 153.171 157.867 153.253 157.685 153.379C157.508 153.5 157.335 153.685 157.167 153.932C156.999 154.175 156.852 154.499 156.726 154.905V155.983C156.726 156.529 156.726 157.04 156.726 157.516C156.726 157.987 156.726 158.482 156.726 159H155.571ZM164.515 161.73C164.701 161.273 164.888 160.811 165.075 160.344C165.261 159.877 165.448 159.415 165.635 158.958V159.252C165.457 158.776 165.28 158.293 165.103 157.803C164.925 157.313 164.75 156.837 164.578 156.375L164.116 155.115C163.934 154.616 163.745 154.105 163.549 153.582C163.357 153.059 163.171 152.551 162.989 152.056L164.228 152.007C164.428 152.609 164.624 153.197 164.816 153.771C165.007 154.345 165.203 154.931 165.404 155.528L166.139 157.761H166.265L167.07 155.521C167.28 154.938 167.487 154.359 167.693 153.785C167.898 153.211 168.106 152.635 168.316 152.056H169.541C169.391 152.429 169.247 152.791 169.107 153.141C168.971 153.486 168.82 153.869 168.652 154.289C168.488 154.709 168.292 155.208 168.064 155.787L167.294 157.74C166.944 158.627 166.645 159.38 166.398 160.001C166.155 160.622 165.933 161.184 165.733 161.688L164.515 161.73ZM173.846 159.154C173.272 159.154 172.765 159.056 172.327 158.86C171.893 158.659 171.529 158.389 171.235 158.048C170.941 157.707 170.717 157.318 170.563 156.879C170.413 156.436 170.339 155.971 170.339 155.486C170.339 154.791 170.479 154.175 170.759 153.638C171.043 153.097 171.445 152.67 171.963 152.357C172.485 152.044 173.106 151.888 173.825 151.888C174.38 151.888 174.872 151.979 175.302 152.161C175.731 152.343 176.095 152.597 176.394 152.924C176.692 153.251 176.919 153.633 177.073 154.072C177.227 154.506 177.304 154.977 177.304 155.486C177.304 156.172 177.164 156.793 176.884 157.348C176.604 157.903 176.205 158.344 175.687 158.671C175.173 158.993 174.56 159.154 173.846 159.154ZM173.846 158.146C174.354 158.146 174.777 158.02 175.113 157.768C175.449 157.516 175.701 157.187 175.869 156.781C176.037 156.375 176.121 155.943 176.121 155.486C176.121 154.963 176.027 154.508 175.841 154.121C175.654 153.734 175.39 153.433 175.05 153.218C174.709 153.003 174.305 152.896 173.839 152.896C173.335 152.896 172.91 153.01 172.565 153.239C172.219 153.468 171.958 153.778 171.781 154.17C171.608 154.562 171.522 155.001 171.522 155.486C171.522 155.943 171.606 156.375 171.774 156.781C171.946 157.187 172.205 157.516 172.551 157.768C172.896 158.02 173.328 158.146 173.846 158.146ZM181.163 159.154C180.426 159.154 179.887 158.942 179.546 158.517C179.205 158.092 179.035 157.476 179.035 156.669C179.035 156.361 179.035 156.095 179.035 155.871C179.035 155.642 179.035 155.418 179.035 155.199C179.035 154.784 179.035 154.403 179.035 154.058C179.035 153.708 179.035 153.372 179.035 153.05C179.035 152.728 179.035 152.397 179.035 152.056L180.19 152.007C180.19 152.52 180.19 153.024 180.19 153.519C180.19 154.014 180.19 154.534 180.19 155.08V156.396C180.19 156.947 180.29 157.367 180.491 157.656C180.692 157.941 181.049 158.083 181.562 158.083C181.861 158.083 182.134 158.02 182.381 157.894C182.628 157.763 182.855 157.593 183.06 157.383C183.265 157.173 183.452 156.94 183.62 156.683V155.08C183.62 154.534 183.62 154.021 183.62 153.54C183.62 153.059 183.62 152.565 183.62 152.056H184.775C184.775 152.565 184.775 153.064 184.775 153.554C184.775 154.044 184.775 154.592 184.775 155.199V155.934C184.775 156.508 184.775 157.033 184.775 157.509C184.775 157.985 184.775 158.482 184.775 159H183.767L183.725 157.775H183.599C183.454 157.985 183.265 158.197 183.032 158.412C182.803 158.622 182.533 158.799 182.22 158.944C181.907 159.084 181.555 159.154 181.163 159.154ZM187.03 159C187.03 158.482 187.03 157.985 187.03 157.509C187.03 157.033 187.03 156.508 187.03 155.934V155.234C187.03 154.721 187.03 154.196 187.03 153.659C187.03 153.122 187.03 152.588 187.03 152.056L188.038 151.986L188.073 153.4H188.192C188.384 152.975 188.603 152.656 188.85 152.441C189.102 152.222 189.357 152.075 189.613 152C189.87 151.925 190.106 151.888 190.32 151.888C190.451 151.888 190.582 151.897 190.712 151.916C190.843 151.935 190.967 151.965 191.083 152.007L190.978 153.169C190.824 153.141 190.684 153.118 190.558 153.099C190.437 153.08 190.295 153.071 190.131 153.071C189.996 153.071 189.842 153.092 189.669 153.134C189.501 153.171 189.326 153.253 189.144 153.379C188.967 153.5 188.794 153.685 188.626 153.932C188.458 154.175 188.311 154.499 188.185 154.905V155.983C188.185 156.529 188.185 157.04 188.185 157.516C188.185 157.987 188.185 158.482 188.185 159H187.03ZM195.414 159C195.414 158.445 195.414 157.91 195.414 157.397C195.414 156.884 195.414 156.319 195.414 155.703V152.357C195.414 151.727 195.414 151.153 195.414 150.635C195.414 150.112 195.414 149.573 195.414 149.018H196.702C196.702 149.573 196.702 150.112 196.702 150.635C196.702 151.153 196.702 151.727 196.702 152.357V155.703C196.702 156.319 196.702 156.884 196.702 157.397C196.702 157.91 196.702 158.445 196.702 159H195.414ZM199.212 159C199.212 158.482 199.212 157.985 199.212 157.509C199.212 157.033 199.212 156.508 199.212 155.934V155.234C199.212 154.721 199.212 154.196 199.212 153.659C199.212 153.122 199.212 152.588 199.212 152.056L200.22 151.986L200.255 153.274H200.381C200.53 153.064 200.721 152.852 200.955 152.637C201.188 152.422 201.463 152.245 201.781 152.105C202.098 151.96 202.462 151.888 202.873 151.888C203.61 151.888 204.149 152.1 204.49 152.525C204.83 152.95 205.001 153.566 205.001 154.373C205.001 154.676 205.001 154.945 205.001 155.178C205.001 155.411 205.001 155.663 205.001 155.934C205.001 156.485 205.001 157.005 205.001 157.495C205.001 157.98 205.001 158.482 205.001 159H203.846C203.846 158.482 203.846 157.983 203.846 157.502C203.846 157.017 203.846 156.51 203.846 155.983V154.667C203.846 154.112 203.745 153.692 203.545 153.407C203.349 153.122 202.992 152.98 202.474 152.98C202.161 152.98 201.876 153.043 201.62 153.169C201.363 153.295 201.13 153.465 200.92 153.68C200.714 153.89 200.53 154.123 200.367 154.38V155.983C200.367 156.529 200.367 157.04 200.367 157.516C200.367 157.987 200.367 158.482 200.367 159H199.212ZM207.692 159C207.692 158.482 207.692 157.985 207.692 157.509C207.692 157.033 207.692 156.508 207.692 155.934V155.234C207.692 154.949 207.692 154.651 207.692 154.338C207.692 154.021 207.692 153.692 207.692 153.351C207.692 153.01 207.692 152.658 207.692 152.294C207.692 151.925 207.692 151.543 207.692 151.146C207.692 150.651 207.758 150.238 207.888 149.907C208.024 149.576 208.208 149.312 208.441 149.116C208.679 148.92 208.95 148.78 209.253 148.696C209.557 148.607 209.881 148.563 210.226 148.563C210.394 148.563 210.558 148.572 210.716 148.591C210.875 148.605 211.02 148.626 211.15 148.654C211.286 148.682 211.4 148.715 211.493 148.752L211.388 149.753C211.239 149.697 211.078 149.655 210.905 149.627C210.737 149.594 210.56 149.578 210.373 149.578C209.827 149.578 209.428 149.711 209.176 149.977C208.929 150.238 208.805 150.637 208.805 151.174C208.805 151.319 208.805 151.482 208.805 151.664C208.805 151.841 208.805 151.972 208.805 152.056L208.847 152.315V155.934C208.847 156.508 208.847 157.033 208.847 157.509C208.847 157.985 208.847 158.482 208.847 159H207.692ZM206.376 152.973V152.056H211.199V152.973C210.733 152.973 210.278 152.973 209.834 152.973C209.391 152.973 208.945 152.973 208.497 152.973H208.021H206.376ZM215.422 159.154C214.848 159.154 214.342 159.056 213.903 158.86C213.469 158.659 213.105 158.389 212.811 158.048C212.517 157.707 212.293 157.318 212.139 156.879C211.99 156.436 211.915 155.971 211.915 155.486C211.915 154.791 212.055 154.175 212.335 153.638C212.62 153.097 213.021 152.67 213.539 152.357C214.062 152.044 214.682 151.888 215.401 151.888C215.956 151.888 216.449 151.979 216.878 152.161C217.307 152.343 217.671 152.597 217.97 152.924C218.269 153.251 218.495 153.633 218.649 154.072C218.803 154.506 218.88 154.977 218.88 155.486C218.88 156.172 218.74 156.793 218.46 157.348C218.18 157.903 217.781 158.344 217.263 158.671C216.75 158.993 216.136 159.154 215.422 159.154ZM215.422 158.146C215.931 158.146 216.353 158.02 216.689 157.768C217.025 157.516 217.277 157.187 217.445 156.781C217.613 156.375 217.697 155.943 217.697 155.486C217.697 154.963 217.604 154.508 217.417 154.121C217.23 153.734 216.967 153.433 216.626 153.218C216.285 153.003 215.882 152.896 215.415 152.896C214.911 152.896 214.486 153.01 214.141 153.239C213.796 153.468 213.534 153.778 213.357 154.17C213.184 154.562 213.098 155.001 213.098 155.486C213.098 155.943 213.182 156.375 213.35 156.781C213.523 157.187 213.782 157.516 214.127 157.768C214.472 158.02 214.904 158.146 215.422 158.146ZM225.09 159.14C224.674 159.14 224.31 159.061 223.998 158.902C223.685 158.739 223.44 158.508 223.263 158.209C223.09 157.91 223.004 157.551 223.004 157.131C223.004 156.753 223.071 156.436 223.207 156.179C223.342 155.918 223.519 155.705 223.739 155.542C223.958 155.379 224.201 155.253 224.467 155.164C224.733 155.071 224.999 155.001 225.265 154.954L227.442 154.576C227.46 154.105 227.397 153.75 227.253 153.512C227.113 153.269 226.914 153.106 226.658 153.022C226.401 152.938 226.116 152.896 225.804 152.896C225.645 152.896 225.475 152.908 225.293 152.931C225.111 152.954 224.917 152.992 224.712 153.043C224.511 153.09 224.299 153.15 224.075 153.225C223.851 153.3 223.615 153.391 223.368 153.498L223.305 152.441C223.473 152.371 223.662 152.303 223.872 152.238C224.086 152.173 224.313 152.114 224.551 152.063C224.793 152.007 225.041 151.965 225.293 151.937C225.545 151.909 225.799 151.895 226.056 151.895C226.574 151.895 227.019 151.977 227.393 152.14C227.771 152.303 228.06 152.56 228.261 152.91C228.461 153.26 228.562 153.717 228.562 154.282C228.562 154.497 228.562 154.77 228.562 155.101C228.562 155.432 228.562 155.747 228.562 156.046V156.949C228.562 157.266 228.562 157.591 228.562 157.922C228.562 158.249 228.562 158.608 228.562 159H227.512L227.449 158.013H227.337C227.192 158.2 227.01 158.379 226.791 158.552C226.571 158.725 226.317 158.867 226.028 158.979C225.743 159.086 225.43 159.14 225.09 159.14ZM225.426 158.181C225.673 158.181 225.92 158.13 226.168 158.027C226.415 157.924 226.646 157.773 226.861 157.572C227.08 157.367 227.264 157.11 227.414 156.802L227.421 155.304C227.346 155.346 227.246 155.388 227.12 155.43C226.998 155.472 226.814 155.521 226.567 155.577C226.324 155.628 225.986 155.694 225.552 155.773C225.286 155.82 225.05 155.897 224.845 156.004C224.639 156.107 224.476 156.249 224.355 156.431C224.238 156.608 224.18 156.825 224.18 157.082C224.18 157.483 224.299 157.768 224.537 157.936C224.779 158.099 225.076 158.181 225.426 158.181ZM230.794 159C230.794 158.482 230.794 157.985 230.794 157.509C230.794 157.033 230.794 156.508 230.794 155.934V155.234C230.794 154.721 230.794 154.196 230.794 153.659C230.794 153.122 230.794 152.588 230.794 152.056L231.802 151.986L231.837 153.274H231.963C232.112 153.064 232.304 152.852 232.537 152.637C232.77 152.422 233.046 152.245 233.363 152.105C233.68 151.96 234.044 151.888 234.455 151.888C235.192 151.888 235.731 152.1 236.072 152.525C236.413 152.95 236.583 153.566 236.583 154.373C236.583 154.676 236.583 154.945 236.583 155.178C236.583 155.411 236.583 155.663 236.583 155.934C236.583 156.485 236.583 157.005 236.583 157.495C236.583 157.98 236.583 158.482 236.583 159H235.428C235.428 158.482 235.428 157.983 235.428 157.502C235.428 157.017 235.428 156.51 235.428 155.983V154.667C235.428 154.112 235.328 153.692 235.127 153.407C234.931 153.122 234.574 152.98 234.056 152.98C233.743 152.98 233.459 153.043 233.202 153.169C232.945 153.295 232.712 153.465 232.502 153.68C232.297 153.89 232.112 154.123 231.949 154.38V155.983C231.949 156.529 231.949 157.04 231.949 157.516C231.949 157.987 231.949 158.482 231.949 159H230.794ZM241.29 159.154C240.628 159.154 240.077 158.986 239.638 158.65C239.2 158.309 238.871 157.864 238.651 157.313C238.432 156.758 238.322 156.156 238.322 155.507C238.322 154.816 238.439 154.198 238.672 153.652C238.906 153.106 239.244 152.677 239.687 152.364C240.135 152.047 240.677 151.888 241.311 151.888C241.633 151.888 241.927 151.932 242.193 152.021C242.464 152.105 242.702 152.219 242.907 152.364C243.113 152.504 243.283 152.66 243.418 152.833H243.537V152.091C243.537 151.503 243.537 150.934 243.537 150.383C243.537 149.828 243.537 149.284 243.537 148.752L244.692 148.612C244.692 149.177 244.692 149.744 244.692 150.313C244.692 150.878 244.692 151.47 244.692 152.091V155.934C244.692 156.508 244.692 157.033 244.692 157.509C244.692 157.985 244.692 158.482 244.692 159H243.684L243.628 158.048H243.516C243.334 158.286 243.131 158.487 242.907 158.65C242.683 158.813 242.436 158.937 242.165 159.021C241.899 159.11 241.608 159.154 241.29 159.154ZM241.64 158.118C241.93 158.118 242.191 158.074 242.424 157.985C242.658 157.892 242.865 157.761 243.047 157.593C243.234 157.425 243.397 157.222 243.537 156.984V153.897C243.393 153.687 243.22 153.512 243.019 153.372C242.823 153.227 242.609 153.12 242.375 153.05C242.142 152.975 241.904 152.938 241.661 152.938C241.171 152.938 240.768 153.055 240.45 153.288C240.133 153.521 239.895 153.834 239.736 154.226C239.582 154.613 239.505 155.043 239.505 155.514C239.505 155.967 239.58 156.391 239.729 156.788C239.879 157.18 240.11 157.5 240.422 157.747C240.735 157.994 241.141 158.118 241.64 158.118ZM252.603 159.14C251.852 159.14 251.212 158.981 250.685 158.664C250.162 158.347 249.763 157.915 249.488 157.369C249.213 156.823 249.075 156.207 249.075 155.521C249.075 154.835 249.206 154.219 249.467 153.673C249.733 153.122 250.118 152.688 250.622 152.371C251.131 152.054 251.749 151.895 252.477 151.895C252.748 151.895 253.014 151.918 253.275 151.965C253.541 152.012 253.791 152.075 254.024 152.154C254.257 152.229 254.465 152.317 254.647 152.42L254.542 153.484C254.281 153.335 254.033 153.22 253.8 153.141C253.571 153.057 253.357 153.001 253.156 152.973C252.96 152.94 252.778 152.924 252.61 152.924C251.901 152.924 251.331 153.157 250.902 153.624C250.473 154.086 250.258 154.711 250.258 155.5C250.258 155.995 250.351 156.443 250.538 156.844C250.729 157.241 251.014 157.556 251.392 157.789C251.775 158.018 252.248 158.132 252.813 158.132C253.014 158.132 253.212 158.113 253.408 158.076C253.609 158.039 253.807 157.985 254.003 157.915C254.199 157.84 254.388 157.745 254.57 157.628L254.668 158.685C254.514 158.769 254.334 158.846 254.129 158.916C253.924 158.981 253.693 159.035 253.436 159.077C253.184 159.119 252.906 159.14 252.603 159.14ZM256.497 159C256.497 158.482 256.497 157.985 256.497 157.509C256.497 157.033 256.497 156.508 256.497 155.934V152.091C256.497 151.503 256.497 150.931 256.497 150.376C256.497 149.821 256.497 149.279 256.497 148.752L257.652 148.612C257.652 149.177 257.652 149.744 257.652 150.313C257.652 150.878 257.652 151.47 257.652 152.091V155.934C257.652 156.508 257.652 157.033 257.652 157.509C257.652 157.985 257.652 158.482 257.652 159H256.497ZM260.066 159C260.066 158.482 260.066 157.985 260.066 157.509C260.066 157.033 260.066 156.508 260.066 155.934V155.234C260.066 154.819 260.066 154.436 260.066 154.086C260.066 153.731 260.066 153.391 260.066 153.064C260.066 152.733 260.066 152.397 260.066 152.056L261.228 152.014C261.228 152.359 261.228 152.7 261.228 153.036C261.228 153.367 261.228 153.713 261.228 154.072C261.228 154.427 261.228 154.814 261.228 155.234V155.934C261.228 156.508 261.228 157.033 261.228 157.509C261.228 157.985 261.228 158.482 261.228 159H260.066ZM260.626 150.453C260.374 150.453 260.168 150.383 260.01 150.243C259.851 150.103 259.772 149.888 259.772 149.599C259.772 149.314 259.851 149.102 260.01 148.962C260.168 148.817 260.378 148.745 260.64 148.745C260.896 148.745 261.102 148.82 261.256 148.969C261.41 149.114 261.487 149.324 261.487 149.599C261.487 149.888 261.41 150.103 261.256 150.243C261.102 150.383 260.892 150.453 260.626 150.453ZM266.671 159.14C265.92 159.14 265.281 158.981 264.753 158.664C264.231 158.347 263.832 157.915 263.556 157.369C263.281 156.823 263.143 156.207 263.143 155.521C263.143 154.835 263.274 154.219 263.535 153.673C263.801 153.122 264.186 152.688 264.69 152.371C265.199 152.054 265.817 151.895 266.545 151.895C266.816 151.895 267.082 151.918 267.343 151.965C267.609 152.012 267.859 152.075 268.092 152.154C268.326 152.229 268.533 152.317 268.715 152.42L268.61 153.484C268.349 153.335 268.102 153.22 267.868 153.141C267.64 153.057 267.425 153.001 267.224 152.973C267.028 152.94 266.846 152.924 266.678 152.924C265.969 152.924 265.4 153.157 264.97 153.624C264.541 154.086 264.326 154.711 264.326 155.5C264.326 155.995 264.42 156.443 264.606 156.844C264.798 157.241 265.082 157.556 265.46 157.789C265.843 158.018 266.317 158.132 266.881 158.132C267.082 158.132 267.28 158.113 267.476 158.076C267.677 158.039 267.875 157.985 268.071 157.915C268.267 157.84 268.456 157.745 268.638 157.628L268.736 158.685C268.582 158.769 268.403 158.846 268.197 158.916C267.992 158.981 267.761 159.035 267.504 159.077C267.252 159.119 266.975 159.14 266.671 159.14ZM275.171 159C274.859 158.683 274.541 158.365 274.219 158.048C273.902 157.731 273.587 157.416 273.274 157.103L272.077 155.906H271.587V155.08H272.147L273.155 154.009C273.463 153.687 273.774 153.363 274.086 153.036C274.399 152.705 274.707 152.378 275.01 152.056H276.438C276.037 152.462 275.638 152.868 275.241 153.274C274.845 153.68 274.45 154.086 274.058 154.492L272.875 155.696L272.833 155.136L274.205 156.55C274.621 156.961 275.034 157.371 275.444 157.782C275.86 158.188 276.27 158.594 276.676 159H275.171ZM270.565 159C270.565 158.482 270.565 157.985 270.565 157.509C270.565 157.033 270.565 156.508 270.565 155.934V152.091C270.565 151.503 270.565 150.931 270.565 150.376C270.565 149.821 270.565 149.279 270.565 148.752L271.72 148.612C271.72 149.167 271.72 149.732 271.72 150.306C271.72 150.875 271.72 151.47 271.72 152.091V156.116C271.72 156.639 271.72 157.126 271.72 157.579C271.72 158.032 271.72 158.505 271.72 159H270.565ZM280.924 159C280.924 158.445 280.924 157.91 280.924 157.397C280.924 156.884 280.924 156.319 280.924 155.703V152.35C280.924 151.729 280.924 151.158 280.924 150.635C280.924 150.112 280.924 149.573 280.924 149.018C281.302 149.018 281.79 149.018 282.387 149.018C282.989 149.018 283.677 149.018 284.452 149.018C285.213 149.018 285.84 149.118 286.335 149.319C286.834 149.52 287.208 149.832 287.455 150.257C287.702 150.677 287.826 151.216 287.826 151.874C287.826 152.485 287.712 153.029 287.483 153.505C287.259 153.976 286.881 154.347 286.349 154.618C285.822 154.889 285.101 155.024 284.186 155.024C283.953 155.024 283.703 155.024 283.437 155.024C283.171 155.024 282.912 155.024 282.66 155.024C282.408 155.024 282.189 155.024 282.002 155.024V153.974H283.948C284.545 153.974 285.033 153.904 285.411 153.764C285.794 153.624 286.076 153.4 286.258 153.092C286.44 152.784 286.531 152.38 286.531 151.881C286.531 151.47 286.463 151.144 286.328 150.901C286.197 150.658 286.022 150.479 285.803 150.362C285.588 150.241 285.355 150.161 285.103 150.124C284.851 150.087 284.606 150.068 284.368 150.068H281.554L282.17 149.2C282.17 149.76 282.17 150.301 282.17 150.824C282.17 151.342 282.17 151.911 282.17 152.532V155.703C282.17 156.319 282.17 156.884 282.17 157.397C282.17 157.91 282.17 158.445 282.17 159H280.924ZM289.624 159C289.624 158.482 289.624 157.985 289.624 157.509C289.624 157.033 289.624 156.508 289.624 155.934V152.091C289.624 151.503 289.624 150.931 289.624 150.376C289.624 149.821 289.624 149.279 289.624 148.752L290.779 148.612C290.779 149.177 290.779 149.744 290.779 150.313C290.779 150.878 290.779 151.47 290.779 152.091V155.934C290.779 156.508 290.779 157.033 290.779 157.509C290.779 157.985 290.779 158.482 290.779 159H289.624ZM294.803 159.14C294.387 159.14 294.023 159.061 293.711 158.902C293.398 158.739 293.153 158.508 292.976 158.209C292.803 157.91 292.717 157.551 292.717 157.131C292.717 156.753 292.784 156.436 292.92 156.179C293.055 155.918 293.232 155.705 293.452 155.542C293.671 155.379 293.914 155.253 294.18 155.164C294.446 155.071 294.712 155.001 294.978 154.954L297.155 154.576C297.173 154.105 297.11 153.75 296.966 153.512C296.826 153.269 296.627 153.106 296.371 153.022C296.114 152.938 295.829 152.896 295.517 152.896C295.358 152.896 295.188 152.908 295.006 152.931C294.824 152.954 294.63 152.992 294.425 153.043C294.224 153.09 294.012 153.15 293.788 153.225C293.564 153.3 293.328 153.391 293.081 153.498L293.018 152.441C293.186 152.371 293.375 152.303 293.585 152.238C293.799 152.173 294.026 152.114 294.264 152.063C294.506 152.007 294.754 151.965 295.006 151.937C295.258 151.909 295.512 151.895 295.769 151.895C296.287 151.895 296.732 151.977 297.106 152.14C297.484 152.303 297.773 152.56 297.974 152.91C298.174 153.26 298.275 153.717 298.275 154.282C298.275 154.497 298.275 154.77 298.275 155.101C298.275 155.432 298.275 155.747 298.275 156.046V156.949C298.275 157.266 298.275 157.591 298.275 157.922C298.275 158.249 298.275 158.608 298.275 159H297.225L297.162 158.013H297.05C296.905 158.2 296.723 158.379 296.504 158.552C296.284 158.725 296.03 158.867 295.741 158.979C295.456 159.086 295.143 159.14 294.803 159.14ZM295.139 158.181C295.386 158.181 295.633 158.13 295.881 158.027C296.128 157.924 296.359 157.773 296.574 157.572C296.793 157.367 296.977 157.11 297.127 156.802L297.134 155.304C297.059 155.346 296.959 155.388 296.833 155.43C296.711 155.472 296.527 155.521 296.28 155.577C296.037 155.628 295.699 155.694 295.265 155.773C294.999 155.82 294.763 155.897 294.558 156.004C294.352 156.107 294.189 156.249 294.068 156.431C293.951 156.608 293.893 156.825 293.893 157.082C293.893 157.483 294.012 157.768 294.25 157.936C294.492 158.099 294.789 158.181 295.139 158.181ZM301.028 161.73C301.215 161.273 301.402 160.811 301.588 160.344C301.775 159.877 301.962 159.415 302.148 158.958V159.252C301.971 158.776 301.794 158.293 301.616 157.803C301.439 157.313 301.264 156.837 301.091 156.375L300.629 155.115C300.447 154.616 300.258 154.105 300.062 153.582C299.871 153.059 299.684 152.551 299.502 152.056L300.741 152.007C300.942 152.609 301.138 153.197 301.329 153.771C301.521 154.345 301.717 154.931 301.917 155.528L302.652 157.761H302.778L303.583 155.521C303.793 154.938 304.001 154.359 304.206 153.785C304.412 153.211 304.619 152.635 304.829 152.056H306.054C305.905 152.429 305.76 152.791 305.62 153.141C305.485 153.486 305.333 153.869 305.165 154.289C305.002 154.709 304.806 155.208 304.577 155.787L303.807 157.74C303.457 158.627 303.159 159.38 302.911 160.001C302.669 160.622 302.447 161.184 302.246 161.688L301.028 161.73ZM318.115 161.359C317.821 161.112 317.527 160.867 317.233 160.624C316.944 160.386 316.652 160.146 316.358 159.903L315.231 158.965L315.924 158.237L317.324 159.322C317.627 159.56 317.931 159.796 318.234 160.029C318.542 160.267 318.88 160.531 319.249 160.82L318.115 161.359ZM314.846 159.154C314.001 159.154 313.262 159.019 312.627 158.748C311.992 158.473 311.463 158.097 311.038 157.621C310.618 157.14 310.303 156.59 310.093 155.969C309.883 155.348 309.778 154.693 309.778 154.002C309.778 153.031 309.974 152.156 310.366 151.377C310.763 150.598 311.334 149.979 312.081 149.522C312.828 149.065 313.735 148.836 314.804 148.836C315.616 148.836 316.332 148.969 316.953 149.235C317.578 149.501 318.103 149.87 318.528 150.341C318.953 150.812 319.272 151.361 319.487 151.986C319.702 152.611 319.809 153.281 319.809 153.995C319.809 154.98 319.613 155.862 319.221 156.641C318.829 157.416 318.262 158.029 317.52 158.482C316.778 158.93 315.887 159.154 314.846 159.154ZM314.811 158.062C315.45 158.062 316.001 157.952 316.463 157.733C316.925 157.509 317.305 157.206 317.604 156.823C317.907 156.44 318.131 156.006 318.276 155.521C318.421 155.031 318.493 154.522 318.493 153.995C318.493 153.426 318.414 152.896 318.255 152.406C318.101 151.911 317.868 151.48 317.555 151.111C317.247 150.738 316.864 150.448 316.407 150.243C315.95 150.033 315.418 149.928 314.811 149.928C314.186 149.928 313.64 150.038 313.173 150.257C312.711 150.476 312.326 150.777 312.018 151.16C311.71 151.538 311.479 151.972 311.325 152.462C311.171 152.947 311.094 153.458 311.094 153.995C311.094 154.536 311.169 155.05 311.318 155.535C311.467 156.02 311.694 156.454 311.997 156.837C312.305 157.215 312.692 157.514 313.159 157.733C313.626 157.952 314.176 158.062 314.811 158.062ZM323.678 159.154C322.941 159.154 322.402 158.942 322.061 158.517C321.721 158.092 321.55 157.476 321.55 156.669C321.55 156.361 321.55 156.095 321.55 155.871C321.55 155.642 321.55 155.418 321.55 155.199C321.55 154.784 321.55 154.403 321.55 154.058C321.55 153.708 321.55 153.372 321.55 153.05C321.55 152.728 321.55 152.397 321.55 152.056L322.705 152.007C322.705 152.52 322.705 153.024 322.705 153.519C322.705 154.014 322.705 154.534 322.705 155.08V156.396C322.705 156.947 322.806 157.367 323.006 157.656C323.207 157.941 323.564 158.083 324.077 158.083C324.376 158.083 324.649 158.02 324.896 157.894C325.144 157.763 325.37 157.593 325.575 157.383C325.781 157.173 325.967 156.94 326.135 156.683V155.08C326.135 154.534 326.135 154.021 326.135 153.54C326.135 153.059 326.135 152.565 326.135 152.056H327.29C327.29 152.565 327.29 153.064 327.29 153.554C327.29 154.044 327.29 154.592 327.29 155.199V155.934C327.29 156.508 327.29 157.033 327.29 157.509C327.29 157.985 327.29 158.482 327.29 159H326.282L326.24 157.775H326.114C325.97 157.985 325.781 158.197 325.547 158.412C325.319 158.622 325.048 158.799 324.735 158.944C324.423 159.084 324.07 159.154 323.678 159.154ZM329.56 159C329.56 158.482 329.56 157.985 329.56 157.509C329.56 157.033 329.56 156.508 329.56 155.934V155.234C329.56 154.819 329.56 154.436 329.56 154.086C329.56 153.731 329.56 153.391 329.56 153.064C329.56 152.733 329.56 152.397 329.56 152.056L330.722 152.014C330.722 152.359 330.722 152.7 330.722 153.036C330.722 153.367 330.722 153.713 330.722 154.072C330.722 154.427 330.722 154.814 330.722 155.234V155.934C330.722 156.508 330.722 157.033 330.722 157.509C330.722 157.985 330.722 158.482 330.722 159H329.56ZM330.12 150.453C329.868 150.453 329.662 150.383 329.504 150.243C329.345 150.103 329.266 149.888 329.266 149.599C329.266 149.314 329.345 149.102 329.504 148.962C329.662 148.817 329.872 148.745 330.134 148.745C330.39 148.745 330.596 148.82 330.75 148.969C330.904 149.114 330.981 149.324 330.981 149.599C330.981 149.888 330.904 150.103 330.75 150.243C330.596 150.383 330.386 150.453 330.12 150.453ZM332.477 159V158.405C332.873 157.887 333.261 157.381 333.639 156.886C334.017 156.387 334.374 155.918 334.71 155.479L336.936 152.56L337.104 152.98H335.571C335.319 152.98 335.018 152.98 334.668 152.98C334.322 152.98 333.961 152.98 333.583 152.98C333.205 152.98 332.845 152.98 332.505 152.98V152.056H338.175V152.749C337.993 152.982 337.78 153.255 337.538 153.568C337.3 153.881 337.052 154.205 336.796 154.541C336.544 154.872 336.301 155.187 336.068 155.486L333.856 158.377L333.73 158.076H335.424C335.676 158.076 335.972 158.076 336.312 158.076C336.658 158.076 337.013 158.076 337.377 158.076C337.741 158.076 338.079 158.076 338.392 158.076V159H332.477Z" fill="white"/>
<circle cx="233.5" cy="106.5" r="23.5" fill="#D9D9D9"/>
<path d="M243.542 96.875H225.458C224.773 96.875 224.116 97.1472 223.632 97.6316C223.147 98.1161 222.875 98.7732 222.875 99.4583V117.542C222.875 118.227 223.147 118.884 223.632 119.368C224.116 119.853 224.773 120.125 225.458 120.125H243.542C244.227 120.125 244.884 119.853 245.368 119.368C245.853 118.884 246.125 118.227 246.125 117.542V99.4583C246.125 98.7732 245.853 98.1161 245.368 97.6316C244.884 97.1472 244.227 96.875 243.542 96.875ZM237.006 112.13L234.151 114.958C233.312 115.824 232.201 116.25 231.09 116.25C229.979 116.25 228.868 115.824 228.042 114.958C226.324 113.292 226.324 110.541 228.042 108.836L229.785 107.079L229.773 107.854C229.76 108.5 229.863 109.146 230.07 109.714L230.134 109.908L229.618 110.438C229.422 110.63 229.266 110.859 229.16 111.111C229.054 111.364 228.999 111.636 228.999 111.91C228.999 112.184 229.054 112.456 229.16 112.709C229.266 112.961 229.422 113.19 229.618 113.382C230.405 114.183 231.775 114.183 232.562 113.382L235.404 110.554C235.792 110.153 236.024 109.624 236.024 109.068C236.024 108.5 235.792 107.996 235.404 107.596C235.298 107.491 235.214 107.367 235.156 107.229C235.098 107.092 235.069 106.944 235.069 106.795C235.069 106.646 235.098 106.498 235.156 106.361C235.214 106.223 235.298 106.099 235.404 105.994C235.83 105.568 236.58 105.581 237.006 105.994C237.82 106.821 238.272 107.906 238.272 109.068C238.272 110.231 237.82 111.316 237.006 112.13ZM240.958 108.164L239.227 109.921V109.146C239.24 108.5 239.137 107.854 238.93 107.286L238.866 107.105L239.382 106.562C239.578 106.37 239.734 106.141 239.84 105.889C239.946 105.636 240.001 105.364 240.001 105.09C240.001 104.816 239.946 104.544 239.84 104.291C239.734 104.039 239.578 103.81 239.382 103.618C238.595 102.817 237.212 102.83 236.438 103.618L233.596 106.459C233.208 106.847 232.976 107.376 232.976 107.932C232.976 108.5 233.208 109.004 233.596 109.404C233.815 109.611 233.932 109.895 233.932 110.205C233.932 110.515 233.815 110.799 233.596 111.006C233.491 111.11 233.366 111.193 233.228 111.248C233.091 111.304 232.943 111.331 232.795 111.329C232.511 111.329 232.214 111.225 231.994 111.006C231.182 110.192 230.725 109.088 230.725 107.938C230.725 106.788 231.182 105.685 231.994 104.87L234.849 102.042C235.247 101.635 235.722 101.312 236.247 101.092C236.771 100.872 237.335 100.758 237.904 100.758C238.473 100.758 239.036 100.872 239.56 101.092C240.085 101.312 240.56 101.635 240.958 102.042C241.798 102.842 242.25 103.927 242.25 105.09C242.25 106.252 241.798 107.337 240.958 108.164Z" fill="black"/>
<defs>
<filter id="filter0_d_189_753" x="0.5" y="0.5" width="467" height="529" filterUnits="userSpaceOnUse" color-interpolation-filters="sRGB">
<feFlood flood-opacity="0" result="BackgroundImageFix"/>
<feColorMatrix in="SourceAlpha" type="matrix" values="0 0 0 0 0 0 0 0 0 0 0 0 0 0 0 0 0 0 127 0" result="hardAlpha"/>
<feOffset dy="24"/>
<feGaussianBlur stdDeviation="24"/>
<feColorMatrix type="matrix" values="0 0 0 0 0 0 0 0 0 0 0 0 0 0 0 0 0 0 0.04 0"/>
<feBlend mode="normal" in2="BackgroundImageFix" result="effect1_dropShadow_189_753"/>
<feBlend mode="normal" in="SourceGraphic" in2="effect1_dropShadow_189_753" result="shape"/>
</filter>
<filter id="filter1_d_189_753" x="66.9129" y="51.4248" width="334.174" height="207.89" filterUnits="userSpaceOnUse" color-interpolation-filters="sRGB">
<feFlood flood-opacity="0" result="BackgroundImageFix"/>
<feColorMatrix in="SourceAlpha" type="matrix" values="0 0 0 0 0 0 0 0 0 0 0 0 0 0 0 0 0 0 127 0" result="hardAlpha"/>
<feOffset/>
<feGaussianBlur stdDeviation="12"/>
<feColorMatrix type="matrix" values="0 0 0 0 0.803922 0 0 0 0 0.776471 0 0 0 0 0.956863 0 0 0 0.7 0"/>
<feBlend mode="normal" in2="BackgroundImageFix" result="effect1_dropShadow_189_753"/>
<feBlend mode="normal" in="SourceGraphic" in2="effect1_dropShadow_189_753" result="shape"/>
</filter>
<linearGradient id="paint0_linear_189_753" x1="302.5" y1="182.648" x2="302.5" y2="221.352" gradientUnits="userSpaceOnUse">
<stop stop-color="#41FFFF"/>
<stop offset="1" stop-color="#12E1FF"/>
</linearGradient>
</defs>
</svg>
