<svg width="468" height="530" viewBox="0 0 468 530" fill="none" xmlns="http://www.w3.org/2000/svg">
<g filter="url(#filter0_d_189_752)">
<rect x="49" y="25" width="370" height="432" rx="8" fill="white"/>
<rect x="49" y="25" width="370" height="432" rx="8" stroke="#F1D7C8"/>
</g>
<path d="M106.504 326.416C105.555 326.416 104.579 326.336 103.576 326.176C102.584 326.027 101.651 325.829 100.776 325.584C99.912 325.339 99.208 325.083 98.664 324.816L99.048 320.192C99.784 320.608 100.552 320.965 101.352 321.264C102.163 321.552 102.968 321.776 103.768 321.936C104.579 322.096 105.352 322.176 106.088 322.176C106.824 322.176 107.464 322.085 108.008 321.904C108.552 321.723 108.973 321.451 109.272 321.088C109.571 320.715 109.72 320.235 109.72 319.648C109.72 319.051 109.523 318.56 109.128 318.176C108.744 317.781 108.189 317.44 107.464 317.152C106.739 316.853 105.875 316.56 104.872 316.272C103.485 315.867 102.301 315.397 101.32 314.864C100.339 314.32 99.5867 313.627 99.064 312.784C98.552 311.931 98.296 310.837 98.296 309.504C98.296 308.171 98.5893 306.997 99.176 305.984C99.7627 304.96 100.648 304.16 101.832 303.584C103.016 303.008 104.515 302.72 106.328 302.72C107.043 302.72 107.757 302.768 108.472 302.864C109.187 302.949 109.88 303.067 110.552 303.216C111.235 303.365 111.864 303.536 112.44 303.728C113.016 303.92 113.517 304.123 113.944 304.336L113.544 308.976C112.861 308.549 112.152 308.192 111.416 307.904C110.68 307.616 109.96 307.397 109.256 307.248C108.552 307.099 107.912 307.024 107.336 307.024C106.685 307.024 106.093 307.109 105.56 307.28C105.037 307.451 104.621 307.712 104.312 308.064C104.003 308.416 103.848 308.859 103.848 309.392C103.848 309.915 103.992 310.357 104.28 310.72C104.579 311.072 105.032 311.387 105.64 311.664C106.259 311.931 107.053 312.208 108.024 312.496C109.848 313.04 111.288 313.611 112.344 314.208C113.4 314.795 114.147 315.504 114.584 316.336C115.032 317.168 115.256 318.213 115.256 319.472C115.256 320.869 114.952 322.091 114.344 323.136C113.736 324.171 112.787 324.976 111.496 325.552C110.205 326.128 108.541 326.416 106.504 326.416ZM124.706 326.432C123.522 326.432 122.509 326.256 121.666 325.904C120.834 325.541 120.194 324.965 119.746 324.176C119.309 323.387 119.09 322.347 119.09 321.056C119.09 320.363 119.09 319.653 119.09 318.928C119.09 318.192 119.09 317.424 119.09 316.624C119.09 315.824 119.09 314.981 119.09 314.096C119.09 313.211 119.09 312.256 119.09 311.232C119.09 310.027 119.09 308.923 119.09 307.92C119.09 306.917 119.09 305.893 119.09 304.848L123.794 304C123.794 304.832 123.794 305.621 123.794 306.368C123.794 307.104 123.794 307.867 123.794 308.656C123.794 309.435 123.794 310.293 123.794 311.232V319.552C123.794 320.523 123.97 321.264 124.322 321.776C124.685 322.277 125.272 322.528 126.082 322.528C126.424 322.528 126.797 322.469 127.202 322.352C127.608 322.224 127.997 322.027 128.37 321.76L128.642 325.632C128.365 325.803 128.013 325.947 127.586 326.064C127.16 326.181 126.696 326.272 126.194 326.336C125.693 326.4 125.197 326.432 124.706 326.432ZM116.498 313.632V310.032H128.562V313.632C127.56 313.632 126.552 313.632 125.538 313.632C124.536 313.632 123.565 313.632 122.626 313.632H120.498H116.498ZM139.281 326.416C137.222 326.416 135.537 326.053 134.225 325.328C132.923 324.603 131.963 323.605 131.345 322.336C130.737 321.067 130.433 319.611 130.433 317.968C130.433 316.325 130.721 314.875 131.297 313.616C131.873 312.357 132.731 311.376 133.873 310.672C135.025 309.957 136.454 309.6 138.161 309.6C139.611 309.6 140.854 309.861 141.889 310.384C142.923 310.896 143.718 311.675 144.273 312.72C144.827 313.765 145.105 315.083 145.105 316.672C145.105 317.099 145.094 317.477 145.073 317.808C145.051 318.139 145.014 318.469 144.961 318.8L140.865 317.248C140.886 317.109 140.902 316.965 140.913 316.816C140.923 316.667 140.929 316.528 140.929 316.4C140.929 315.323 140.673 314.48 140.161 313.872C139.659 313.253 139.009 312.944 138.209 312.944C137.601 312.944 137.062 313.125 136.593 313.488C136.123 313.84 135.755 314.336 135.489 314.976C135.222 315.616 135.089 316.379 135.089 317.264V318.048C135.089 318.976 135.254 319.771 135.585 320.432C135.926 321.093 136.449 321.6 137.153 321.952C137.857 322.304 138.758 322.48 139.857 322.48C140.283 322.48 140.774 322.443 141.329 322.368C141.894 322.283 142.465 322.16 143.041 322C143.627 321.829 144.171 321.616 144.673 321.36L144.833 325.392C144.417 325.584 143.931 325.76 143.377 325.92C142.833 326.069 142.214 326.187 141.521 326.272C140.827 326.368 140.081 326.416 139.281 326.416ZM132.273 318.8V316.24L142.177 316.032L144.961 316.816V318.8H132.273ZM148.124 332.288C148.124 331.147 148.124 330.016 148.124 328.896C148.124 327.776 148.124 326.555 148.124 325.232V317.488C148.124 316.261 148.124 315.029 148.124 313.792C148.124 312.555 148.124 311.301 148.124 310.032L152.364 309.792L152.508 311.984H152.892C153.212 311.483 153.596 311.056 154.044 310.704C154.503 310.341 155.02 310.069 155.596 309.888C156.172 309.696 156.807 309.6 157.5 309.6C158.908 309.6 160.092 309.968 161.052 310.704C162.012 311.44 162.738 312.443 163.228 313.712C163.719 314.981 163.964 316.411 163.964 318C163.964 319.483 163.73 320.864 163.26 322.144C162.802 323.424 162.098 324.459 161.148 325.248C160.199 326.037 158.999 326.432 157.548 326.432C156.898 326.432 156.306 326.341 155.772 326.16C155.25 325.989 154.775 325.744 154.348 325.424C153.922 325.104 153.538 324.72 153.196 324.272H152.908V325.488C152.908 326.683 152.908 327.803 152.908 328.848C152.908 329.904 152.908 331.003 152.908 332.144L148.124 332.288ZM155.74 322.368C156.498 322.368 157.122 322.16 157.612 321.744C158.114 321.328 158.482 320.795 158.716 320.144C158.951 319.483 159.068 318.779 159.068 318.032C159.068 317.253 158.946 316.539 158.7 315.888C158.455 315.227 158.082 314.699 157.58 314.304C157.09 313.909 156.466 313.712 155.708 313.712C155.335 313.712 154.972 313.771 154.62 313.888C154.279 313.995 153.959 314.155 153.66 314.368C153.372 314.581 153.122 314.837 152.908 315.136V320.576C153.1 320.939 153.33 321.253 153.596 321.52C153.863 321.787 154.172 321.995 154.524 322.144C154.887 322.293 155.292 322.368 155.74 322.368ZM172.595 326V322.672C173.181 322.171 173.763 321.675 174.339 321.184C174.925 320.693 175.512 320.203 176.099 319.712C177.464 318.56 178.637 317.483 179.619 316.48C180.6 315.477 181.352 314.512 181.875 313.584C182.397 312.656 182.659 311.723 182.659 310.784C182.659 309.76 182.371 308.992 181.795 308.48C181.219 307.957 180.349 307.696 179.187 307.696C178.685 307.696 178.168 307.755 177.635 307.872C177.112 307.979 176.584 308.139 176.051 308.352C175.517 308.555 174.984 308.795 174.451 309.072C173.928 309.349 173.416 309.659 172.915 310L172.483 305.296C172.973 305.061 173.512 304.843 174.099 304.64C174.696 304.427 175.325 304.24 175.987 304.08C176.659 303.909 177.347 303.776 178.051 303.68C178.765 303.584 179.48 303.536 180.195 303.536C181.816 303.536 183.187 303.803 184.307 304.336C185.437 304.859 186.291 305.616 186.867 306.608C187.453 307.589 187.747 308.768 187.747 310.144C187.747 311.275 187.512 312.4 187.043 313.52C186.573 314.629 185.859 315.744 184.899 316.864C183.949 317.984 182.744 319.115 181.283 320.256L178.131 322.736L177.523 321.776H181.491C182.579 321.776 183.667 321.776 184.755 321.776C185.843 321.776 186.925 321.776 188.003 321.776V326H172.595Z" fill="#1D4645"/>
<path d="M98.48 361V349.592H105.568V350.832H99.896V354.616H105.248V355.824H99.896V359.76H105.584V361H98.48ZM107.876 361V353.064L109.028 352.984L109.068 354.456H109.212C109.383 354.216 109.601 353.973 109.868 353.728C110.135 353.483 110.449 353.28 110.812 353.12C111.175 352.955 111.591 352.872 112.06 352.872C112.903 352.872 113.519 353.115 113.908 353.6C114.297 354.085 114.492 354.789 114.492 355.712V361H113.172V356.048C113.172 355.413 113.057 354.933 112.828 354.608C112.604 354.283 112.196 354.12 111.604 354.12C111.065 354.12 110.599 354.277 110.204 354.592C109.815 354.901 109.479 355.277 109.196 355.72V361H107.876ZM120.056 361.176C119.261 361.176 118.651 360.968 118.224 360.552C117.803 360.136 117.592 359.491 117.592 358.616V354.112H116.064V353.064H117.592V350.488L118.896 350.2V353.064H121.68V354.112H118.896V358.304C118.896 359.451 119.389 360.024 120.376 360.024C120.573 360.024 120.787 359.992 121.016 359.928C121.251 359.859 121.461 359.752 121.648 359.608L121.76 360.768C121.595 360.885 121.355 360.981 121.04 361.056C120.731 361.136 120.403 361.176 120.056 361.176ZM127.069 361.176C126.12 361.176 125.339 360.995 124.725 360.632C124.112 360.269 123.656 359.773 123.357 359.144C123.059 358.515 122.909 357.795 122.909 356.984C122.909 356.184 123.056 355.475 123.349 354.856C123.643 354.237 124.064 353.755 124.613 353.408C125.163 353.056 125.819 352.88 126.581 352.88C127.584 352.88 128.373 353.171 128.949 353.752C129.531 354.333 129.821 355.179 129.821 356.288C129.821 356.677 129.8 357.013 129.757 357.296H124.253C124.301 358.139 124.565 358.803 125.045 359.288C125.525 359.773 126.243 360.016 127.197 360.016C127.571 360.016 127.973 359.971 128.405 359.88C128.837 359.789 129.24 359.64 129.613 359.432L129.669 360.624C129.365 360.789 128.989 360.923 128.541 361.024C128.093 361.125 127.603 361.176 127.069 361.176ZM126.597 353.936C125.941 353.936 125.408 354.16 124.997 354.608C124.592 355.051 124.352 355.629 124.277 356.344L128.621 356.304C128.621 356.288 128.621 356.267 128.621 356.24C128.621 355.488 128.435 354.917 128.061 354.528C127.688 354.133 127.2 353.936 126.597 353.936ZM131.923 361V353.064L133.075 352.984L133.115 354.6H133.251C133.47 354.115 133.72 353.749 134.003 353.504C134.291 353.259 134.582 353.093 134.875 353.008C135.168 352.917 135.438 352.872 135.683 352.872C135.998 352.872 136.288 352.917 136.555 353.008L136.435 354.336C136.259 354.304 136.099 354.277 135.955 354.256C135.816 354.235 135.654 354.224 135.467 354.224C135.259 354.224 135.019 354.269 134.747 354.36C134.475 354.451 134.203 354.645 133.931 354.944C133.664 355.237 133.435 355.696 133.243 356.32V361H131.923ZM144.384 361.176C143.589 361.176 142.979 360.968 142.552 360.552C142.131 360.136 141.92 359.491 141.92 358.616V354.112H140.392V353.064H141.92V350.488L143.224 350.2V353.064H146.008V354.112H143.224V358.304C143.224 359.451 143.717 360.024 144.704 360.024C144.901 360.024 145.115 359.992 145.344 359.928C145.579 359.859 145.789 359.752 145.976 359.608L146.088 360.768C145.923 360.885 145.683 360.981 145.368 361.056C145.059 361.136 144.731 361.176 144.384 361.176ZM147.939 361V349.288L149.259 349.128V354.384H149.403C149.563 354.16 149.768 353.931 150.019 353.696C150.275 353.461 150.576 353.267 150.923 353.112C151.275 352.952 151.675 352.872 152.123 352.872C152.965 352.872 153.581 353.115 153.971 353.6C154.36 354.085 154.555 354.789 154.555 355.712V361H153.235V356.048C153.235 355.413 153.12 354.933 152.891 354.608C152.667 354.283 152.259 354.12 151.667 354.12C151.128 354.12 150.661 354.277 150.267 354.592C149.877 354.901 149.541 355.277 149.259 355.72V361H147.939ZM160.694 361.176C159.745 361.176 158.964 360.995 158.35 360.632C157.737 360.269 157.281 359.773 156.982 359.144C156.684 358.515 156.534 357.795 156.534 356.984C156.534 356.184 156.681 355.475 156.974 354.856C157.268 354.237 157.689 353.755 158.238 353.408C158.788 353.056 159.444 352.88 160.206 352.88C161.209 352.88 161.998 353.171 162.574 353.752C163.156 354.333 163.446 355.179 163.446 356.288C163.446 356.677 163.425 357.013 163.382 357.296H157.878C157.926 358.139 158.19 358.803 158.67 359.288C159.15 359.773 159.868 360.016 160.822 360.016C161.196 360.016 161.598 359.971 162.03 359.88C162.462 359.789 162.865 359.64 163.238 359.432L163.294 360.624C162.99 360.789 162.614 360.923 162.166 361.024C161.718 361.125 161.228 361.176 160.694 361.176ZM160.222 353.936C159.566 353.936 159.033 354.16 158.622 354.608C158.217 355.051 157.977 355.629 157.902 356.344L162.246 356.304C162.246 356.288 162.246 356.267 162.246 356.24C162.246 355.488 162.06 354.917 161.686 354.528C161.313 354.133 160.825 353.936 160.222 353.936ZM171.754 361C171.552 360.429 171.333 359.821 171.098 359.176C170.869 358.531 170.656 357.933 170.458 357.384L169.178 353.808C168.96 353.195 168.714 352.509 168.442 351.752C168.17 350.995 167.912 350.275 167.666 349.592H169.274C169.552 350.408 169.85 351.28 170.17 352.208C170.49 353.136 170.789 354.008 171.066 354.824L172.674 359.504H172.81L174.434 354.8C174.717 353.968 175.01 353.104 175.314 352.208C175.624 351.312 175.925 350.44 176.218 349.592H177.77C177.53 350.275 177.277 350.992 177.01 351.744C176.744 352.491 176.501 353.173 176.282 353.792L175.002 357.392C174.805 357.947 174.594 358.544 174.37 359.184C174.146 359.819 173.93 360.424 173.722 361H171.754ZM182.054 361.176C181.104 361.176 180.323 360.995 179.71 360.632C179.096 360.269 178.64 359.773 178.342 359.144C178.043 358.515 177.894 357.795 177.894 356.984C177.894 356.184 178.04 355.475 178.334 354.856C178.627 354.237 179.048 353.755 179.598 353.408C180.147 353.056 180.803 352.88 181.566 352.88C182.568 352.88 183.358 353.171 183.934 353.752C184.515 354.333 184.806 355.179 184.806 356.288C184.806 356.677 184.784 357.013 184.742 357.296H179.238C179.286 358.139 179.55 358.803 180.03 359.288C180.51 359.773 181.227 360.016 182.182 360.016C182.555 360.016 182.958 359.971 183.39 359.88C183.822 359.789 184.224 359.64 184.598 359.432L184.654 360.624C184.35 360.789 183.974 360.923 183.526 361.024C183.078 361.125 182.587 361.176 182.054 361.176ZM181.582 353.936C180.926 353.936 180.392 354.16 179.982 354.608C179.576 355.051 179.336 355.629 179.262 356.344L183.606 356.304C183.606 356.288 183.606 356.267 183.606 356.24C183.606 355.488 183.419 354.917 183.046 354.528C182.672 354.133 182.184 353.936 181.582 353.936ZM186.907 361V353.064L188.059 352.984L188.099 354.6H188.235C188.454 354.115 188.705 353.749 188.987 353.504C189.275 353.259 189.566 353.093 189.859 353.008C190.153 352.917 190.422 352.872 190.667 352.872C190.982 352.872 191.273 352.917 191.539 353.008L191.419 354.336C191.243 354.304 191.083 354.277 190.939 354.256C190.801 354.235 190.638 354.224 190.451 354.224C190.243 354.224 190.003 354.269 189.731 354.36C189.459 354.451 189.187 354.645 188.915 354.944C188.649 355.237 188.419 355.696 188.227 356.32V361H186.907ZM193.314 361V353.064L194.642 353.016V361H193.314ZM193.954 351.232C193.661 351.232 193.423 351.152 193.242 350.992C193.066 350.832 192.978 350.587 192.978 350.256C192.978 349.931 193.069 349.688 193.25 349.528C193.431 349.363 193.671 349.28 193.97 349.28C194.263 349.28 194.498 349.365 194.674 349.536C194.85 349.707 194.938 349.947 194.938 350.256C194.938 350.587 194.85 350.832 194.674 350.992C194.498 351.152 194.258 351.232 193.954 351.232ZM197.927 361V354.112H196.423V353.064H197.927V352.024C197.927 351.272 198.058 350.683 198.319 350.256C198.586 349.824 198.938 349.52 199.375 349.344C199.818 349.163 200.301 349.072 200.823 349.072C201.111 349.072 201.383 349.093 201.639 349.136C201.901 349.173 202.111 349.224 202.271 349.288L202.151 350.432C201.981 350.368 201.797 350.32 201.599 350.288C201.407 350.251 201.205 350.232 200.991 350.232C200.367 350.232 199.911 350.384 199.623 350.688C199.341 350.987 199.199 351.443 199.199 352.056V353.064H201.935V354.112H199.247V361H197.927ZM203.743 361V353.064L205.071 353.016V361H203.743ZM204.391 351.232C204.098 351.232 203.861 351.152 203.679 350.992C203.503 350.832 203.415 350.587 203.415 350.256C203.415 349.931 203.506 349.688 203.687 349.528C203.869 349.363 204.109 349.28 204.407 349.28C204.701 349.28 204.935 349.365 205.111 349.536C205.287 349.707 205.375 349.947 205.375 350.256C205.375 350.587 205.287 350.832 205.111 350.992C204.935 351.152 204.695 351.232 204.391 351.232ZM211.301 361.16C210.442 361.16 209.711 360.979 209.109 360.616C208.506 360.253 208.047 359.76 207.733 359.136C207.423 358.512 207.269 357.808 207.269 357.024C207.269 356.24 207.418 355.536 207.717 354.912C208.021 354.283 208.461 353.787 209.037 353.424C209.618 353.061 210.325 352.88 211.157 352.88C211.621 352.88 212.071 352.936 212.509 353.048C212.951 353.16 213.327 353.304 213.637 353.48L213.517 354.696C213.069 354.435 212.661 354.264 212.293 354.184C211.925 354.099 211.597 354.056 211.309 354.056C210.493 354.056 209.839 354.323 209.349 354.856C208.863 355.384 208.621 356.099 208.621 357C208.621 357.565 208.727 358.077 208.941 358.536C209.159 358.989 209.485 359.349 209.917 359.616C210.354 359.877 210.895 360.008 211.541 360.008C211.887 360.008 212.229 359.963 212.565 359.872C212.906 359.776 213.234 359.629 213.549 359.432L213.661 360.64C213.399 360.779 213.069 360.899 212.669 361C212.274 361.107 211.818 361.16 211.301 361.16ZM217.607 361.16C216.898 361.16 216.322 360.957 215.879 360.552C215.442 360.147 215.223 359.584 215.223 358.864C215.223 358.288 215.354 357.832 215.615 357.496C215.876 357.155 216.204 356.901 216.599 356.736C216.999 356.565 217.402 356.445 217.807 356.376L220.295 355.944C220.316 355.405 220.244 355 220.079 354.728C219.914 354.451 219.684 354.264 219.391 354.168C219.103 354.072 218.78 354.024 218.423 354.024C218.055 354.024 217.639 354.077 217.175 354.184C216.716 354.291 216.204 354.467 215.639 354.712L215.567 353.504C215.956 353.344 216.431 353.2 216.991 353.072C217.556 352.944 218.13 352.88 218.711 352.88C219.602 352.88 220.3 353.093 220.807 353.52C221.319 353.947 221.575 354.643 221.575 355.608V361H220.375L220.303 359.872H220.175C219.93 360.192 219.586 360.488 219.143 360.76C218.706 361.027 218.194 361.16 217.607 361.16ZM217.991 360.064C218.418 360.064 218.836 359.933 219.247 359.672C219.663 359.411 220.002 359.016 220.263 358.488L220.271 356.776C220.186 356.824 220.071 356.872 219.927 356.92C219.788 356.968 219.578 357.024 219.295 357.088C219.018 357.147 218.631 357.221 218.135 357.312C217.676 357.392 217.3 357.552 217.007 357.792C216.714 358.027 216.567 358.365 216.567 358.808C216.567 359.267 216.703 359.592 216.975 359.784C217.252 359.971 217.591 360.064 217.991 360.064ZM227.134 361.176C226.339 361.176 225.729 360.968 225.302 360.552C224.881 360.136 224.67 359.491 224.67 358.616V354.112H223.142V353.064H224.67V350.488L225.974 350.2V353.064H228.758V354.112H225.974V358.304C225.974 359.451 226.467 360.024 227.454 360.024C227.651 360.024 227.865 359.992 228.094 359.928C228.329 359.859 228.539 359.752 228.726 359.608L228.838 360.768C228.673 360.885 228.433 360.981 228.118 361.056C227.809 361.136 227.481 361.176 227.134 361.176ZM230.705 361V353.064L232.033 353.016V361H230.705ZM231.345 351.232C231.051 351.232 230.814 351.152 230.633 350.992C230.457 350.832 230.368 350.587 230.368 350.256C230.368 349.931 230.459 349.688 230.641 349.528C230.822 349.363 231.062 349.28 231.361 349.28C231.654 349.28 231.889 349.365 232.065 349.536C232.241 349.707 232.329 349.947 232.329 350.256C232.329 350.587 232.241 350.832 232.065 350.992C231.889 351.152 231.649 351.232 231.345 351.232ZM238.23 361.176C237.361 361.176 236.627 360.981 236.03 360.592C235.433 360.197 234.982 359.683 234.678 359.048C234.374 358.413 234.222 357.725 234.222 356.984C234.222 356.189 234.382 355.483 234.702 354.864C235.027 354.245 235.486 353.76 236.078 353.408C236.675 353.051 237.385 352.872 238.206 352.872C239.054 352.872 239.771 353.053 240.358 353.416C240.95 353.779 241.401 354.272 241.71 354.896C242.025 355.515 242.182 356.211 242.182 356.984C242.182 357.768 242.022 358.477 241.702 359.112C241.382 359.747 240.926 360.251 240.334 360.624C239.747 360.992 239.046 361.176 238.23 361.176ZM238.23 360.024C238.811 360.024 239.294 359.88 239.678 359.592C240.062 359.304 240.35 358.928 240.542 358.464C240.734 358 240.83 357.507 240.83 356.984C240.83 356.088 240.595 355.371 240.126 354.832C239.657 354.293 239.022 354.024 238.222 354.024C237.646 354.024 237.161 354.157 236.766 354.424C236.371 354.685 236.073 355.04 235.87 355.488C235.673 355.931 235.574 356.429 235.574 356.984C235.574 357.507 235.67 358 235.862 358.464C236.059 358.928 236.355 359.304 236.75 359.592C237.145 359.88 237.638 360.024 238.23 360.024ZM244.36 361V353.064L245.512 352.984L245.552 354.456H245.696C245.867 354.216 246.086 353.973 246.352 353.728C246.619 353.483 246.934 353.28 247.296 353.12C247.659 352.955 248.075 352.872 248.544 352.872C249.387 352.872 250.003 353.115 250.392 353.6C250.782 354.085 250.976 354.789 250.976 355.712V361H249.656V356.048C249.656 355.413 249.542 354.933 249.312 354.608C249.088 354.283 248.68 354.12 248.088 354.12C247.55 354.12 247.083 354.277 246.688 354.592C246.299 354.901 245.963 355.277 245.68 355.72V361H244.36ZM261.867 361.176C260.661 361.176 259.621 360.92 258.747 360.408C257.872 359.896 257.197 359.197 256.723 358.312C256.253 357.421 256.019 356.411 256.019 355.28C256.019 354.128 256.253 353.109 256.723 352.224C257.197 351.333 257.856 350.637 258.699 350.136C259.547 349.635 260.531 349.384 261.651 349.384C262.403 349.384 263.109 349.483 263.771 349.68C264.432 349.877 264.963 350.085 265.363 350.304L265.235 351.696C264.616 351.328 264.019 351.064 263.443 350.904C262.867 350.744 262.309 350.664 261.771 350.664C260.949 350.664 260.219 350.851 259.579 351.224C258.939 351.597 258.435 352.131 258.067 352.824C257.704 353.512 257.523 354.333 257.523 355.288C257.523 356.136 257.691 356.912 258.027 357.616C258.363 358.315 258.861 358.875 259.523 359.296C260.189 359.717 261.016 359.928 262.003 359.928C262.541 359.928 263.083 359.856 263.627 359.712C264.171 359.568 264.688 359.32 265.179 358.968L265.291 360.344C264.837 360.632 264.307 360.843 263.699 360.976C263.091 361.109 262.48 361.176 261.867 361.176ZM270.98 361.176C270.111 361.176 269.377 360.981 268.78 360.592C268.183 360.197 267.732 359.683 267.428 359.048C267.124 358.413 266.972 357.725 266.972 356.984C266.972 356.189 267.132 355.483 267.452 354.864C267.777 354.245 268.236 353.76 268.828 353.408C269.425 353.051 270.135 352.872 270.956 352.872C271.804 352.872 272.521 353.053 273.108 353.416C273.7 353.779 274.151 354.272 274.46 354.896C274.775 355.515 274.932 356.211 274.932 356.984C274.932 357.768 274.772 358.477 274.452 359.112C274.132 359.747 273.676 360.251 273.084 360.624C272.497 360.992 271.796 361.176 270.98 361.176ZM270.98 360.024C271.561 360.024 272.044 359.88 272.428 359.592C272.812 359.304 273.1 358.928 273.292 358.464C273.484 358 273.58 357.507 273.58 356.984C273.58 356.088 273.345 355.371 272.876 354.832C272.407 354.293 271.772 354.024 270.972 354.024C270.396 354.024 269.911 354.157 269.516 354.424C269.121 354.685 268.823 355.04 268.62 355.488C268.423 355.931 268.324 356.429 268.324 356.984C268.324 357.507 268.42 358 268.612 358.464C268.809 358.928 269.105 359.304 269.5 359.592C269.895 359.88 270.388 360.024 270.98 360.024ZM279.934 361.176C279.177 361.176 278.548 360.984 278.046 360.6C277.545 360.211 277.169 359.701 276.918 359.072C276.668 358.437 276.542 357.749 276.542 357.008C276.542 356.219 276.676 355.515 276.942 354.896C277.209 354.272 277.596 353.779 278.102 353.416C278.614 353.053 279.233 352.872 279.958 352.872C280.508 352.872 280.988 352.979 281.398 353.192C281.814 353.4 282.137 353.653 282.366 353.952H282.502V349.288L283.822 349.128V361H282.67L282.606 359.912H282.478C282.164 360.323 281.796 360.637 281.374 360.856C280.958 361.069 280.478 361.176 279.934 361.176ZM280.334 359.992C280.83 359.992 281.254 359.877 281.606 359.648C281.964 359.419 282.262 359.101 282.502 358.696V355.168C282.252 354.805 281.937 354.533 281.558 354.352C281.18 354.165 280.78 354.072 280.358 354.072C279.798 354.072 279.337 354.205 278.974 354.472C278.612 354.739 278.34 355.096 278.158 355.544C277.982 355.987 277.894 356.477 277.894 357.016C277.894 357.533 277.98 358.019 278.15 358.472C278.321 358.925 278.585 359.293 278.942 359.576C279.3 359.853 279.764 359.992 280.334 359.992ZM289.929 361.176C288.979 361.176 288.198 360.995 287.585 360.632C286.971 360.269 286.515 359.773 286.217 359.144C285.918 358.515 285.769 357.795 285.769 356.984C285.769 356.184 285.915 355.475 286.209 354.856C286.502 354.237 286.923 353.755 287.473 353.408C288.022 353.056 288.678 352.88 289.441 352.88C290.443 352.88 291.233 353.171 291.809 353.752C292.39 354.333 292.681 355.179 292.681 356.288C292.681 356.677 292.659 357.013 292.617 357.296H287.113C287.161 358.139 287.425 358.803 287.905 359.288C288.385 359.773 289.102 360.016 290.057 360.016C290.43 360.016 290.833 359.971 291.265 359.88C291.697 359.789 292.099 359.64 292.473 359.432L292.529 360.624C292.225 360.789 291.849 360.923 291.401 361.024C290.953 361.125 290.462 361.176 289.929 361.176ZM289.457 353.936C288.801 353.936 288.267 354.16 287.857 354.608C287.451 355.051 287.211 355.629 287.137 356.344L291.481 356.304C291.481 356.288 291.481 356.267 291.481 356.24C291.481 355.488 291.294 354.917 290.921 354.528C290.547 354.133 290.059 353.936 289.457 353.936ZM299.701 361.16C298.991 361.16 298.415 360.957 297.973 360.552C297.535 360.147 297.317 359.584 297.317 358.864C297.317 358.288 297.447 357.832 297.709 357.496C297.97 357.155 298.298 356.901 298.693 356.736C299.093 356.565 299.495 356.445 299.901 356.376L302.389 355.944C302.41 355.405 302.338 355 302.173 354.728C302.007 354.451 301.778 354.264 301.485 354.168C301.197 354.072 300.874 354.024 300.517 354.024C300.149 354.024 299.733 354.077 299.269 354.184C298.81 354.291 298.298 354.467 297.733 354.712L297.661 353.504C298.05 353.344 298.525 353.2 299.085 353.072C299.65 352.944 300.223 352.88 300.805 352.88C301.695 352.88 302.394 353.093 302.901 353.52C303.413 353.947 303.669 354.643 303.669 355.608V361H302.469L302.397 359.872H302.269C302.023 360.192 301.679 360.488 301.237 360.76C300.799 361.027 300.287 361.16 299.701 361.16ZM300.085 360.064C300.511 360.064 300.93 359.933 301.341 359.672C301.757 359.411 302.095 359.016 302.357 358.488L302.365 356.776C302.279 356.824 302.165 356.872 302.021 356.92C301.882 356.968 301.671 357.024 301.389 357.088C301.111 357.147 300.725 357.221 300.229 357.312C299.77 357.392 299.394 357.552 299.101 357.792C298.807 358.027 298.661 358.365 298.661 358.808C298.661 359.267 298.797 359.592 299.069 359.784C299.346 359.971 299.685 360.064 300.085 360.064ZM306.22 361V353.064L307.372 352.984L307.412 354.456H307.556C307.726 354.216 307.945 353.973 308.212 353.728C308.478 353.483 308.793 353.28 309.156 353.12C309.518 352.955 309.934 352.872 310.404 352.872C311.246 352.872 311.862 353.115 312.252 353.6C312.641 354.085 312.836 354.789 312.836 355.712V361H311.516V356.048C311.516 355.413 311.401 354.933 311.172 354.608C310.948 354.283 310.54 354.12 309.948 354.12C309.409 354.12 308.942 354.277 308.548 354.592C308.158 354.901 307.822 355.277 307.54 355.72V361H306.22ZM318.216 361.176C317.458 361.176 316.829 360.984 316.328 360.6C315.826 360.211 315.45 359.701 315.2 359.072C314.949 358.437 314.824 357.749 314.824 357.008C314.824 356.219 314.957 355.515 315.224 354.896C315.49 354.272 315.877 353.779 316.384 353.416C316.896 353.053 317.514 352.872 318.24 352.872C318.789 352.872 319.269 352.979 319.68 353.192C320.096 353.4 320.418 353.653 320.648 353.952H320.784V349.288L322.104 349.128V361H320.952L320.888 359.912H320.76C320.445 360.323 320.077 360.637 319.656 360.856C319.24 361.069 318.76 361.176 318.216 361.176ZM318.616 359.992C319.112 359.992 319.536 359.877 319.888 359.648C320.245 359.419 320.544 359.101 320.784 358.696V355.168C320.533 354.805 320.218 354.533 319.84 354.352C319.461 354.165 319.061 354.072 318.64 354.072C318.08 354.072 317.618 354.205 317.256 354.472C316.893 354.739 316.621 355.096 316.44 355.544C316.264 355.987 316.176 356.477 316.176 357.016C316.176 357.533 316.261 358.019 316.432 358.472C316.602 358.925 316.866 359.293 317.224 359.576C317.581 359.853 318.045 359.992 318.616 359.992ZM331.145 361.16C330.286 361.16 329.555 360.979 328.953 360.616C328.35 360.253 327.891 359.76 327.577 359.136C327.267 358.512 327.113 357.808 327.113 357.024C327.113 356.24 327.262 355.536 327.561 354.912C327.865 354.283 328.305 353.787 328.881 353.424C329.462 353.061 330.169 352.88 331.001 352.88C331.465 352.88 331.915 352.936 332.353 353.048C332.795 353.16 333.171 353.304 333.481 353.48L333.361 354.696C332.913 354.435 332.505 354.264 332.137 354.184C331.769 354.099 331.441 354.056 331.153 354.056C330.337 354.056 329.683 354.323 329.193 354.856C328.707 355.384 328.465 356.099 328.465 357C328.465 357.565 328.571 358.077 328.785 358.536C329.003 358.989 329.329 359.349 329.761 359.616C330.198 359.877 330.739 360.008 331.385 360.008C331.731 360.008 332.073 359.963 332.409 359.872C332.75 359.776 333.078 359.629 333.393 359.432L333.505 360.64C333.243 360.779 332.913 360.899 332.513 361C332.118 361.107 331.662 361.16 331.145 361.16ZM335.595 361V349.288L336.915 349.128V361H335.595ZM339.673 361V353.064L341.001 353.016V361H339.673ZM340.313 351.232C340.02 351.232 339.783 351.152 339.601 350.992C339.425 350.832 339.337 350.587 339.337 350.256C339.337 349.931 339.428 349.688 339.609 349.528C339.791 349.363 340.031 349.28 340.329 349.28C340.623 349.28 340.857 349.365 341.033 349.536C341.209 349.707 341.297 349.947 341.297 350.256C341.297 350.587 341.209 350.832 341.033 350.992C340.857 351.152 340.617 351.232 340.313 351.232ZM347.223 361.16C346.364 361.16 345.633 360.979 345.031 360.616C344.428 360.253 343.969 359.76 343.655 359.136C343.345 358.512 343.191 357.808 343.191 357.024C343.191 356.24 343.34 355.536 343.639 354.912C343.943 354.283 344.383 353.787 344.959 353.424C345.54 353.061 346.247 352.88 347.079 352.88C347.543 352.88 347.993 352.936 348.431 353.048C348.873 353.16 349.249 353.304 349.559 353.48L349.439 354.696C348.991 354.435 348.583 354.264 348.215 354.184C347.847 354.099 347.519 354.056 347.231 354.056C346.415 354.056 345.761 354.323 345.271 354.856C344.785 355.384 344.543 356.099 344.543 357C344.543 357.565 344.649 358.077 344.863 358.536C345.081 358.989 345.407 359.349 345.839 359.616C346.276 359.877 346.817 360.008 347.463 360.008C347.809 360.008 348.151 359.963 348.487 359.872C348.828 359.776 349.156 359.629 349.471 359.432L349.583 360.64C349.321 360.779 348.991 360.899 348.591 361C348.196 361.107 347.74 361.16 347.223 361.16ZM351.673 361V349.288L352.993 349.128V356.52H353.481L354.633 355.296C354.985 354.928 355.337 354.557 355.689 354.184C356.046 353.805 356.401 353.432 356.753 353.064H358.385C357.926 353.528 357.47 353.992 357.017 354.456C356.564 354.92 356.113 355.384 355.665 355.848L354.601 356.928L355.833 358.2C356.302 358.664 356.774 359.131 357.249 359.6C357.724 360.069 358.193 360.536 358.657 361H356.937C356.574 360.637 356.212 360.275 355.849 359.912C355.486 359.549 355.126 359.189 354.769 358.832L353.401 357.464H352.993V361H351.673ZM101.52 393C101.317 392.429 101.099 391.821 100.864 391.176C100.635 390.531 100.421 389.933 100.224 389.384L98.944 385.808C98.7253 385.195 98.48 384.509 98.208 383.752C97.936 382.995 97.6773 382.275 97.432 381.592H99.04C99.3173 382.408 99.616 383.28 99.936 384.208C100.256 385.136 100.555 386.008 100.832 386.824L102.44 391.504H102.576L104.2 386.8C104.483 385.968 104.776 385.104 105.08 384.208C105.389 383.312 105.691 382.44 105.984 381.592H107.536C107.296 382.275 107.043 382.992 106.776 383.744C106.509 384.491 106.267 385.173 106.048 385.792L104.768 389.392C104.571 389.947 104.36 390.544 104.136 391.184C103.912 391.819 103.696 392.424 103.488 393H101.52ZM111.819 393.176C110.87 393.176 110.089 392.995 109.475 392.632C108.862 392.269 108.406 391.773 108.107 391.144C107.809 390.515 107.659 389.795 107.659 388.984C107.659 388.184 107.806 387.475 108.099 386.856C108.393 386.237 108.814 385.755 109.363 385.408C109.913 385.056 110.569 384.88 111.331 384.88C112.334 384.88 113.123 385.171 113.699 385.752C114.281 386.333 114.571 387.179 114.571 388.288C114.571 388.677 114.55 389.013 114.507 389.296H109.003C109.051 390.139 109.315 390.803 109.795 391.288C110.275 391.773 110.993 392.016 111.947 392.016C112.321 392.016 112.723 391.971 113.155 391.88C113.587 391.789 113.99 391.64 114.363 391.432L114.419 392.624C114.115 392.789 113.739 392.923 113.291 393.024C112.843 393.125 112.353 393.176 111.819 393.176ZM111.347 385.936C110.691 385.936 110.158 386.16 109.747 386.608C109.342 387.051 109.102 387.629 109.027 388.344L113.371 388.304C113.371 388.288 113.371 388.267 113.371 388.24C113.371 387.488 113.185 386.917 112.811 386.528C112.438 386.133 111.95 385.936 111.347 385.936ZM116.673 393V385.064L117.825 384.984L117.865 386.6H118.001C118.22 386.115 118.47 385.749 118.753 385.504C119.041 385.259 119.332 385.093 119.625 385.008C119.918 384.917 120.188 384.872 120.433 384.872C120.748 384.872 121.038 384.917 121.305 385.008L121.185 386.336C121.009 386.304 120.849 386.277 120.705 386.256C120.566 386.235 120.404 386.224 120.217 386.224C120.009 386.224 119.769 386.269 119.497 386.36C119.225 386.451 118.953 386.645 118.681 386.944C118.414 387.237 118.185 387.696 117.993 388.32V393H116.673ZM123.08 393V385.064L124.408 385.016V393H123.08ZM123.72 383.232C123.426 383.232 123.189 383.152 123.008 382.992C122.832 382.832 122.743 382.587 122.743 382.256C122.743 381.931 122.834 381.688 123.016 381.528C123.197 381.363 123.437 381.28 123.736 381.28C124.029 381.28 124.264 381.365 124.44 381.536C124.616 381.707 124.704 381.947 124.704 382.256C124.704 382.587 124.616 382.832 124.44 382.992C124.264 383.152 124.024 383.232 123.72 383.232ZM127.693 393V386.112H126.189V385.064H127.693V384.024C127.693 383.272 127.824 382.683 128.085 382.256C128.352 381.824 128.704 381.52 129.141 381.344C129.584 381.163 130.066 381.072 130.589 381.072C130.877 381.072 131.149 381.093 131.405 381.136C131.666 381.173 131.877 381.224 132.037 381.288L131.917 382.432C131.746 382.368 131.562 382.32 131.365 382.288C131.173 382.251 130.97 382.232 130.757 382.232C130.133 382.232 129.677 382.384 129.389 382.688C129.106 382.987 128.965 383.443 128.965 384.056V385.064H131.701V386.112H129.013V393H127.693ZM134.253 396.12C134.456 395.624 134.659 395.123 134.861 394.616C135.064 394.109 135.267 393.608 135.469 393.112C135.277 392.595 135.083 392.072 134.885 391.544C134.693 391.016 134.507 390.501 134.325 390L133.797 388.56C133.584 387.989 133.368 387.405 133.149 386.808C132.931 386.211 132.717 385.629 132.509 385.064L133.925 385.008C134.155 385.696 134.379 386.368 134.597 387.024C134.816 387.68 135.04 388.349 135.269 389.032L136.109 391.584H136.253L137.173 389.024C137.413 388.357 137.651 387.696 137.885 387.04C138.12 386.384 138.357 385.725 138.597 385.064H139.997C139.827 385.491 139.661 385.904 139.501 386.304C139.347 386.699 139.173 387.136 138.981 387.616C138.795 388.096 138.571 388.667 138.309 389.328L137.429 391.56C137.024 392.579 136.683 393.44 136.405 394.144C136.128 394.853 135.875 395.496 135.645 396.072L134.253 396.12ZM141.513 393.176C141.188 393.176 140.929 393.08 140.737 392.888C140.55 392.691 140.457 392.437 140.457 392.128C140.457 391.819 140.55 391.571 140.737 391.384C140.929 391.192 141.188 391.096 141.513 391.096C141.844 391.096 142.102 391.192 142.289 391.384C142.481 391.571 142.577 391.819 142.577 392.128C142.577 392.437 142.481 392.691 142.289 392.888C142.102 393.08 141.844 393.176 141.513 393.176Z" fill="#333333"/>
<g clip-path="url(#clip0_189_752)">
<path d="M394.755 45H73.2453C69.2438 45 66 47.6221 66 50.8566V233.143C66 236.378 69.2438 239 73.2453 239H394.755C398.756 239 402 236.378 402 233.143V50.8566C402 47.6221 398.756 45 394.755 45Z" fill="#E4F9F4"/>
<mask id="mask0_189_752" style="mask-type:alpha" maskUnits="userSpaceOnUse" x="66" y="45" width="336" height="194">
<path d="M402 45H66V239H402V45Z" fill="#FFF2E6"/>
</mask>
<g mask="url(#mask0_189_752)">
<path opacity="0.5" d="M90.4528 122.234C123.715 122.234 150.679 100.438 150.679 73.5509C150.679 46.6641 123.715 24.8679 90.4528 24.8679C57.1907 24.8679 30.2264 46.6641 30.2264 73.5509C30.2264 100.438 57.1907 122.234 90.4528 122.234Z" stroke="#C7EFE4" stroke-width="19"/>
<path opacity="0.5" d="M389.321 198.37C422.583 198.37 449.547 176.574 449.547 149.687C449.547 122.8 422.583 101.004 389.321 101.004C356.059 101.004 329.094 122.8 329.094 149.687C329.094 176.574 356.059 198.37 389.321 198.37Z" stroke="#C7EFE4" stroke-width="19"/>
<g filter="url(#filter1_d_189_752)">
<path d="M89.5472 83.7999C89.5472 78.5439 94.8184 74.283 101.321 74.283H366.679C373.182 74.283 378.453 78.5439 378.453 83.7999V239H89.5472V83.7999Z" fill="white"/>
</g>
<path d="M342.226 106.86H126.679C119.927 106.86 114.453 111.285 114.453 116.743V136.509C114.453 141.968 119.927 146.392 126.679 146.392H342.226C348.979 146.392 354.453 141.968 354.453 136.509V116.743C354.453 111.285 348.979 106.86 342.226 106.86Z" fill="white"/>
<path d="M192.987 132C192.987 131.463 192.987 130.943 192.987 130.439C192.987 129.935 192.987 129.37 192.987 128.745V125.357C192.987 124.713 192.987 124.132 192.987 123.614C192.987 123.096 192.987 122.564 192.987 122.018H194.996C195.463 122.699 195.904 123.343 196.319 123.95C196.734 124.552 197.15 125.156 197.565 125.763L199.189 128.115H199.357V125.357C199.357 124.713 199.357 124.132 199.357 123.614C199.357 123.096 199.357 122.564 199.357 122.018H201.52C201.52 122.564 201.52 123.096 201.52 123.614C201.52 124.132 201.52 124.713 201.52 125.357V128.745C201.52 129.37 201.52 129.935 201.52 130.439C201.52 130.943 201.52 131.463 201.52 132H199.532C199.149 131.44 198.748 130.857 198.328 130.25C197.908 129.643 197.448 128.981 196.949 128.262L195.304 125.882H195.143V128.745C195.143 129.37 195.143 129.935 195.143 130.439C195.143 130.943 195.143 131.463 195.143 132H192.987ZM205.006 132.168C204.605 132.168 204.255 132.084 203.956 131.916C203.657 131.748 203.424 131.512 203.256 131.209C203.088 130.901 203.004 130.537 203.004 130.117C203.004 129.72 203.074 129.389 203.214 129.123C203.354 128.852 203.534 128.633 203.753 128.465C203.977 128.297 204.22 128.169 204.481 128.08C204.747 127.991 205.006 127.926 205.258 127.884L207.204 127.583C207.213 127.312 207.162 127.102 207.05 126.953C206.938 126.799 206.775 126.692 206.56 126.631C206.35 126.57 206.098 126.54 205.804 126.54C205.645 126.54 205.473 126.554 205.286 126.582C205.099 126.605 204.903 126.643 204.698 126.694C204.497 126.745 204.287 126.808 204.068 126.883C203.853 126.958 203.636 127.049 203.417 127.156L203.319 125.371C203.492 125.31 203.69 125.247 203.914 125.182C204.138 125.117 204.381 125.058 204.642 125.007C204.903 124.951 205.179 124.907 205.468 124.874C205.762 124.841 206.063 124.825 206.371 124.825C206.954 124.825 207.451 124.911 207.862 125.084C208.277 125.252 208.595 125.518 208.814 125.882C209.033 126.246 209.143 126.722 209.143 127.31C209.143 127.539 209.143 127.819 209.143 128.15C209.143 128.481 209.143 128.778 209.143 129.039V129.704C209.143 130.059 209.143 130.425 209.143 130.803C209.143 131.176 209.143 131.575 209.143 132H207.358L207.225 131.069H207.064C206.938 131.246 206.779 131.421 206.588 131.594C206.397 131.762 206.168 131.9 205.902 132.007C205.641 132.114 205.342 132.168 205.006 132.168ZM205.839 130.551C206.002 130.551 206.166 130.514 206.329 130.439C206.492 130.36 206.644 130.25 206.784 130.11C206.924 129.965 207.045 129.795 207.148 129.599V128.528C207.092 128.57 207.02 128.61 206.931 128.647C206.847 128.68 206.721 128.717 206.553 128.759C206.39 128.796 206.161 128.845 205.867 128.906C205.699 128.939 205.554 128.995 205.433 129.074C205.312 129.153 205.216 129.256 205.146 129.382C205.081 129.503 205.048 129.648 205.048 129.816C205.048 130.082 205.127 130.271 205.286 130.383C205.449 130.495 205.634 130.551 205.839 130.551ZM210.744 132C210.744 131.501 210.744 131.018 210.744 130.551C210.744 130.08 210.744 129.555 210.744 128.976V128.276C210.744 127.739 210.744 127.2 210.744 126.659C210.744 126.118 210.744 125.569 210.744 125.014L212.501 124.909L212.592 126.12H212.767C212.925 125.896 213.112 125.686 213.327 125.49C213.541 125.289 213.789 125.128 214.069 125.007C214.353 124.886 214.675 124.825 215.035 124.825C215.571 124.825 215.987 124.96 216.281 125.231C216.579 125.497 216.78 125.882 216.883 126.386L217.023 126.407C217.051 126.542 217.072 126.685 217.086 126.834C217.104 126.979 217.114 127.133 217.114 127.296C217.114 127.604 217.114 127.891 217.114 128.157C217.114 128.418 217.114 128.691 217.114 128.976C217.114 129.545 217.114 130.068 217.114 130.544C217.114 131.015 217.114 131.501 217.114 132H215.021C215.021 131.501 215.021 131.018 215.021 130.551C215.021 130.084 215.021 129.597 215.021 129.088V127.968C215.021 127.557 214.955 127.249 214.825 127.044C214.699 126.834 214.472 126.729 214.146 126.729C213.954 126.729 213.779 126.771 213.621 126.855C213.462 126.939 213.317 127.051 213.187 127.191C213.056 127.326 212.939 127.476 212.837 127.639V129.088C212.837 129.611 212.837 130.103 212.837 130.565C212.837 131.022 212.837 131.501 212.837 132H210.744ZM219.27 132C219.27 131.501 219.27 131.018 219.27 130.551C219.27 130.084 219.27 129.597 219.27 129.088V127.968C219.27 127.557 219.207 127.249 219.081 127.044C218.955 126.834 218.726 126.729 218.395 126.729C218.203 126.729 218.028 126.771 217.87 126.855C217.711 126.934 217.564 127.044 217.429 127.184C217.298 127.319 217.181 127.471 217.079 127.639L216.764 126.134H216.946C217.114 125.905 217.31 125.691 217.534 125.49C217.758 125.289 218.014 125.128 218.304 125.007C218.598 124.886 218.927 124.825 219.291 124.825C219.986 124.825 220.504 125.035 220.845 125.455C221.19 125.87 221.363 126.484 221.363 127.296C221.363 127.604 221.363 127.891 221.363 128.157C221.363 128.418 221.363 128.691 221.363 128.976C221.363 129.545 221.363 130.068 221.363 130.544C221.363 131.015 221.363 131.501 221.363 132H219.27ZM226.453 132.182C225.552 132.182 224.815 132.023 224.241 131.706C223.671 131.389 223.251 130.952 222.981 130.397C222.715 129.842 222.582 129.205 222.582 128.486C222.582 127.767 222.708 127.133 222.96 126.582C223.212 126.031 223.587 125.602 224.087 125.294C224.591 124.981 225.216 124.825 225.963 124.825C226.597 124.825 227.141 124.939 227.594 125.168C228.046 125.392 228.394 125.733 228.637 126.19C228.879 126.647 229.001 127.224 229.001 127.919C229.001 128.106 228.996 128.271 228.987 128.416C228.977 128.561 228.961 128.705 228.938 128.85L227.146 128.171C227.155 128.11 227.162 128.047 227.167 127.982C227.171 127.917 227.174 127.856 227.174 127.8C227.174 127.329 227.062 126.96 226.838 126.694C226.618 126.423 226.334 126.288 225.984 126.288C225.718 126.288 225.482 126.367 225.277 126.526C225.071 126.68 224.91 126.897 224.794 127.177C224.677 127.457 224.619 127.791 224.619 128.178V128.521C224.619 128.927 224.691 129.275 224.836 129.564C224.985 129.853 225.214 130.075 225.522 130.229C225.83 130.383 226.224 130.46 226.705 130.46C226.891 130.46 227.106 130.444 227.349 130.411C227.596 130.374 227.846 130.32 228.098 130.25C228.354 130.175 228.592 130.082 228.812 129.97L228.882 131.734C228.7 131.818 228.487 131.895 228.245 131.965C228.007 132.03 227.736 132.082 227.433 132.119C227.129 132.161 226.803 132.182 226.453 132.182ZM223.387 128.85V127.73L227.72 127.639L228.938 127.982V128.85H223.387ZM236.355 132.189C235.72 132.189 235.167 132.089 234.696 131.888C234.229 131.687 233.842 131.414 233.534 131.069C233.23 130.724 233.002 130.329 232.848 129.886C232.698 129.438 232.624 128.971 232.624 128.486C232.624 127.791 232.764 127.168 233.044 126.617C233.328 126.062 233.744 125.625 234.29 125.308C234.84 124.986 235.515 124.825 236.313 124.825C236.929 124.825 237.468 124.918 237.93 125.105C238.396 125.287 238.784 125.546 239.092 125.882C239.404 126.213 239.638 126.603 239.792 127.051C239.946 127.494 240.023 127.973 240.023 128.486C240.023 129.191 239.88 129.823 239.596 130.383C239.311 130.938 238.896 131.379 238.35 131.706C237.804 132.028 237.139 132.189 236.355 132.189ZM236.348 130.481C236.698 130.481 236.985 130.388 237.209 130.201C237.437 130.01 237.608 129.762 237.72 129.459C237.836 129.156 237.895 128.831 237.895 128.486C237.895 128.075 237.829 127.725 237.699 127.436C237.568 127.142 237.386 126.918 237.153 126.764C236.919 126.61 236.649 126.533 236.341 126.533C235.995 126.533 235.704 126.619 235.466 126.792C235.232 126.965 235.055 127.198 234.934 127.492C234.817 127.786 234.759 128.117 234.759 128.486C234.759 128.831 234.817 129.156 234.934 129.459C235.055 129.762 235.232 130.01 235.466 130.201C235.704 130.388 235.998 130.481 236.348 130.481ZM241.867 132C241.867 131.501 241.867 131.018 241.867 130.551C241.867 130.08 241.867 129.555 241.867 128.976V128.276C241.867 128.001 241.867 127.7 241.867 127.373C241.867 127.042 241.867 126.701 241.867 126.351C241.867 126.001 241.867 125.656 241.867 125.315C241.867 124.97 241.867 124.641 241.867 124.328C241.867 123.777 241.942 123.322 242.091 122.963C242.245 122.599 242.453 122.314 242.714 122.109C242.98 121.899 243.281 121.752 243.617 121.668C243.953 121.584 244.305 121.542 244.674 121.542C244.889 121.542 245.092 121.554 245.283 121.577C245.479 121.596 245.654 121.621 245.808 121.654C245.967 121.687 246.095 121.724 246.193 121.766L246.032 123.474C245.869 123.409 245.698 123.357 245.521 123.32C245.348 123.283 245.178 123.264 245.01 123.264C244.632 123.264 244.347 123.355 244.156 123.537C243.965 123.714 243.869 123.994 243.869 124.377C243.869 124.47 243.869 124.582 243.869 124.713C243.869 124.844 243.869 124.944 243.869 125.014L243.953 125.364V128.976C243.953 129.555 243.953 130.08 243.953 130.551C243.953 131.018 243.953 131.501 243.953 132H241.867ZM240.712 126.589V125.014H245.878V126.589C245.439 126.589 245.017 126.589 244.611 126.589C244.21 126.589 243.804 126.589 243.393 126.589H242.462H240.712ZM254.202 134.751C254.202 134.252 254.202 133.762 254.202 133.281C254.202 132.8 254.202 132.299 254.202 131.776V131.237H254.076C253.922 131.433 253.752 131.603 253.565 131.748C253.379 131.888 253.169 131.995 252.935 132.07C252.707 132.149 252.452 132.189 252.172 132.189C251.533 132.189 251.006 132.016 250.59 131.671C250.175 131.326 249.867 130.873 249.666 130.313C249.466 129.753 249.365 129.149 249.365 128.5C249.365 127.805 249.47 127.179 249.68 126.624C249.895 126.069 250.212 125.63 250.632 125.308C251.052 124.986 251.573 124.825 252.193 124.825C252.497 124.825 252.774 124.867 253.026 124.951C253.278 125.03 253.502 125.149 253.698 125.308C253.894 125.462 254.062 125.649 254.202 125.868H254.377L254.433 125.014L256.288 124.909C256.288 125.488 256.288 126.05 256.288 126.596C256.288 127.142 256.288 127.702 256.288 128.276V131.664C256.288 132.243 256.288 132.765 256.288 133.232C256.288 133.703 256.288 134.189 256.288 134.688L254.202 134.751ZM252.963 130.411C253.155 130.411 253.327 130.378 253.481 130.313C253.64 130.248 253.778 130.157 253.894 130.04C254.016 129.923 254.118 129.786 254.202 129.627V127.247C254.109 127.116 253.997 127.004 253.866 126.911C253.74 126.818 253.6 126.748 253.446 126.701C253.292 126.65 253.134 126.624 252.97 126.624C252.644 126.624 252.371 126.71 252.151 126.883C251.937 127.056 251.773 127.287 251.661 127.576C251.554 127.861 251.5 128.173 251.5 128.514C251.5 128.841 251.552 129.149 251.654 129.438C251.762 129.723 251.923 129.956 252.137 130.138C252.357 130.32 252.632 130.411 252.963 130.411ZM259.968 132.189C259.268 132.189 258.739 131.981 258.379 131.566C258.02 131.151 257.84 130.532 257.84 129.711C257.84 129.398 257.84 129.128 257.84 128.899C257.84 128.67 257.84 128.435 257.84 128.192C257.84 127.73 257.84 127.324 257.84 126.974C257.84 126.619 257.84 126.288 257.84 125.98C257.84 125.667 257.84 125.345 257.84 125.014L259.933 124.951C259.933 125.45 259.933 125.943 259.933 126.428C259.933 126.909 259.933 127.408 259.933 127.926V129.088C259.933 129.494 260.001 129.802 260.136 130.012C260.272 130.217 260.514 130.32 260.864 130.32C261.056 130.32 261.233 130.28 261.396 130.201C261.564 130.117 261.716 130.007 261.851 129.872C261.987 129.732 262.11 129.578 262.222 129.41V127.926C262.222 127.408 262.222 126.918 262.222 126.456C262.222 125.989 262.222 125.509 262.222 125.014H264.315C264.315 125.509 264.315 125.999 264.315 126.484C264.315 126.969 264.315 127.539 264.315 128.192V128.976C264.315 129.555 264.315 130.08 264.315 130.551C264.315 131.018 264.315 131.501 264.315 132H262.558L262.467 130.887H262.285C262.131 131.111 261.942 131.323 261.718 131.524C261.499 131.72 261.242 131.879 260.948 132C260.659 132.126 260.332 132.189 259.968 132.189ZM265.993 132C265.993 131.501 265.993 131.018 265.993 130.551C265.993 130.08 265.993 129.555 265.993 128.976V128.276C265.993 127.814 265.993 127.401 265.993 127.037C265.993 126.668 265.993 126.323 265.993 126.001C265.993 125.674 265.993 125.345 265.993 125.014L268.086 124.951C268.086 125.287 268.086 125.621 268.086 125.952C268.086 126.283 268.086 126.636 268.086 127.009C268.086 127.382 268.086 127.805 268.086 128.276V128.976C268.086 129.555 268.086 130.08 268.086 130.551C268.086 131.018 268.086 131.501 268.086 132H265.993ZM267.022 123.936C266.635 123.936 266.324 123.845 266.091 123.663C265.862 123.476 265.748 123.175 265.748 122.76C265.748 122.387 265.862 122.102 266.091 121.906C266.324 121.705 266.639 121.605 267.036 121.605C267.433 121.605 267.743 121.71 267.967 121.92C268.196 122.125 268.31 122.405 268.31 122.76C268.31 123.175 268.196 123.476 267.967 123.663C267.738 123.845 267.423 123.936 267.022 123.936ZM269.427 132V131.02C269.773 130.567 270.111 130.126 270.442 129.697C270.774 129.263 271.091 128.848 271.394 128.451L273.277 125.987L273.529 126.603H272.185C271.961 126.603 271.695 126.603 271.387 126.603C271.084 126.603 270.767 126.603 270.435 126.603C270.104 126.603 269.789 126.603 269.49 126.603V125.014H275.58V126.183C275.417 126.393 275.23 126.633 275.02 126.904C274.815 127.17 274.6 127.448 274.376 127.737C274.157 128.022 273.945 128.297 273.739 128.563L271.919 130.915L271.723 130.411H273.193C273.417 130.411 273.679 130.411 273.977 130.411C274.276 130.411 274.584 130.411 274.901 130.411C275.219 130.411 275.513 130.411 275.783 130.411V132H269.427Z" fill="#D8D8D8"/>
<path d="M342.226 106.86H126.679C119.927 106.86 114.453 111.285 114.453 116.743V136.509C114.453 141.968 119.927 146.392 126.679 146.392H342.226C348.979 146.392 354.453 141.968 354.453 136.509V116.743C354.453 111.285 348.979 106.86 342.226 106.86Z" stroke="#BDC7D2"/>
<path d="M197.517 165H118.483C116.007 165 114 169.365 114 174.75V194.25C114 199.635 116.007 204 118.483 204H197.517C199.993 204 202 199.635 202 194.25V174.75C202 169.365 199.993 165 197.517 165Z" fill="white"/>
<path d="M213.651 165H119.349C116.395 165 114 169.365 114 174.75V194.25C114 199.635 116.395 204 119.349 204H213.651C216.605 204 219 199.635 219 194.25V174.75C219 169.365 216.605 165 213.651 165Z" fill="#1D4645" stroke="url(#paint0_linear_189_752)"/>
<path d="M321.426 180.594C322.766 180.13 323.752 180.533 324.417 181.099C325.053 181.572 326.167 184.841 325.961 185.38C325.753 185.92 322.638 187.036 321.941 186.774C320.984 186.465 319.868 183.595 319.757 182.82C319.5 181.973 319.854 181.105 321.426 180.594Z" fill="#FFC8A7"/>
<path d="M325.507 212.793C325.507 212.793 329.124 215.367 332.504 218.787C333.024 219.282 333.775 220.131 333.775 220.131C333.775 220.131 333.466 223.184 333.749 224.523C333.914 225.886 335.439 228.476 335.439 228.476C335.439 228.476 332.806 226.704 332.242 223.625C331.791 221.321 331.654 220.052 331.281 219.228C330.452 216.899 325.507 212.793 325.507 212.793Z" fill="#F9A983"/>
<path d="M348.564 200.949C348.564 200.949 349.752 206.497 350.443 207.557C351.163 208.711 352.001 209.443 352.583 209.328C353.398 209.167 353.084 208.131 352.307 206.789C351.414 205.47 348.564 200.949 348.564 200.949Z" fill="#F9A983"/>
<path d="M355.347 203.794C355.347 203.794 356.459 207.463 357.15 208.523C357.841 209.583 358.39 210.172 359 210.151C359.611 210.13 359.672 209.519 359.183 208.718C358.349 207.188 355.347 203.794 355.347 203.794Z" fill="#F9A983"/>
<path d="M337.435 205.745C337.435 205.745 338.067 207.015 339.254 207.678C340.441 208.341 341.024 208.225 341.024 208.225L340.826 207.167C340.826 207.167 339.926 207.046 339.114 206.808C338.04 206.522 337.435 205.745 337.435 205.745Z" fill="#F9A983"/>
<path d="M321.797 186.703C322.492 186.965 325.521 185.966 325.844 185.404C325.437 185.285 324.449 185.281 323.43 185.583C322.324 186.001 321.972 186.469 321.797 186.703Z" fill="#FFD3B9"/>
<path d="M353.868 242.478C350.509 240.351 345.897 238.97 341.638 236.722C337.496 234.451 331.774 229.002 330.853 227.589C327.713 222.926 323.148 218.445 321.73 217.429C318.778 215.421 321.633 214.257 318.282 215.819C318.86 216.103 319.469 216.481 320.049 216.765C321.321 217.71 326.433 223.179 329.658 228.125C330.119 228.832 337.95 236.355 340.092 237.726C341.626 238.719 345.158 241.011 347.445 242.453C349.732 243.895 356.601 251.908 356.601 251.908L361.722 250.895C359.763 248.092 356.184 244.014 353.868 242.478Z" fill="#F9A983"/>
<path d="M319.412 216.292C319.645 216.246 320.291 215.122 320.117 214.956C320.06 214.768 316.671 212.946 315.451 212.989C314.23 213.031 313.356 213.403 313.441 213.685C313.527 213.967 319.063 216.362 319.412 216.292Z" fill="#FFC8A7"/>
<path d="M365.774 214.593C364.945 212.265 361.262 206.213 360.656 205.436C360.167 204.635 359.1 203.151 357.589 203.052C356.079 202.951 355.348 203.795 355.348 203.795C355.348 203.795 354.687 202.429 354.399 201.887C353.506 200.569 352.436 199.884 350.866 199.995C349.412 200.083 348.564 200.949 348.564 200.949C348.564 200.949 348.305 200.502 347.756 199.912C344.693 206.901 343.978 214.72 346.344 222.528C349.963 234.476 359.934 243.77 372.517 248.658L383.341 246.516C383.341 246.516 369.651 232.274 368.76 230.556C367.985 228.814 366.603 216.922 365.774 214.593Z" fill="#FFC6A3"/>
<path d="M356.573 251.814C356.573 251.814 349.704 243.801 347.417 242.359C345.13 240.917 341.598 238.624 340.064 237.632C337.922 236.261 330.091 228.737 329.63 228.03C326.405 223.085 321.293 217.615 320.021 216.671C317.793 215.018 313.669 214.438 313.88 213.1C314.092 211.762 319.163 209.362 323.538 211.587C328.029 213.789 333.775 220.131 333.775 220.131C333.775 220.131 332.867 216.322 331.894 213.922C330.919 211.521 325.927 200.744 324.865 198.461C323.92 196.155 320.051 187.049 319.74 185.615C319.428 184.181 318.37 181.499 321.309 180.618C324.017 179.782 325.544 181.973 326.751 184.327C327.958 186.681 330.995 193.857 332.49 196.752C333.955 199.553 336.508 205.13 337.665 206.098C338.821 207.066 340.709 207.19 340.709 207.19C340.709 207.19 340.468 203.948 340.389 202.468C340.306 201.786 340.061 198.943 343.464 198.369C346.635 197.84 348.303 200.901 348.303 200.901C348.303 200.901 349.151 200.035 350.605 199.947C352.174 199.835 353.217 200.427 354.139 201.84C354.426 202.381 355.086 203.746 355.086 203.746C355.086 203.746 355.963 202.974 357.328 203.003C358.839 203.103 359.789 204.61 360.395 205.387C360.884 206.188 364.712 212.311 365.513 214.546C366.313 216.78 367.84 228.743 368.615 230.484C369.389 232.225 383.196 246.444 383.196 246.444L356.545 251.72L356.573 251.814Z" fill="#FFBD95"/>
<path d="M148.752 191.208C148.277 191.208 147.789 191.168 147.288 191.088C146.792 191.013 146.325 190.915 145.888 190.792C145.456 190.669 145.104 190.541 144.832 190.408L145.024 188.096C145.392 188.304 145.776 188.483 146.176 188.632C146.581 188.776 146.984 188.888 147.384 188.968C147.789 189.048 148.176 189.088 148.544 189.088C148.912 189.088 149.232 189.043 149.504 188.952C149.776 188.861 149.987 188.725 150.136 188.544C150.285 188.357 150.36 188.117 150.36 187.824C150.36 187.525 150.261 187.28 150.064 187.088C149.872 186.891 149.595 186.72 149.232 186.576C148.869 186.427 148.437 186.28 147.936 186.136C147.243 185.933 146.651 185.699 146.16 185.432C145.669 185.16 145.293 184.813 145.032 184.392C144.776 183.965 144.648 183.419 144.648 182.752C144.648 182.085 144.795 181.499 145.088 180.992C145.381 180.48 145.824 180.08 146.416 179.792C147.008 179.504 147.757 179.36 148.664 179.36C149.021 179.36 149.379 179.384 149.736 179.432C150.093 179.475 150.44 179.533 150.776 179.608C151.117 179.683 151.432 179.768 151.72 179.864C152.008 179.96 152.259 180.061 152.472 180.168L152.272 182.488C151.931 182.275 151.576 182.096 151.208 181.952C150.84 181.808 150.48 181.699 150.128 181.624C149.776 181.549 149.456 181.512 149.168 181.512C148.843 181.512 148.547 181.555 148.28 181.64C148.019 181.725 147.811 181.856 147.656 182.032C147.501 182.208 147.424 182.429 147.424 182.696C147.424 182.957 147.496 183.179 147.64 183.36C147.789 183.536 148.016 183.693 148.32 183.832C148.629 183.965 149.027 184.104 149.512 184.248C150.424 184.52 151.144 184.805 151.672 185.104C152.2 185.397 152.573 185.752 152.792 186.168C153.016 186.584 153.128 187.107 153.128 187.736C153.128 188.435 152.976 189.045 152.672 189.568C152.368 190.085 151.893 190.488 151.248 190.776C150.603 191.064 149.771 191.208 148.752 191.208ZM158.593 191.208C157.564 191.208 156.721 191.027 156.065 190.664C155.415 190.301 154.935 189.803 154.625 189.168C154.321 188.533 154.169 187.805 154.169 186.984C154.169 186.163 154.313 185.437 154.601 184.808C154.889 184.179 155.319 183.688 155.889 183.336C156.465 182.979 157.18 182.8 158.033 182.8C158.759 182.8 159.38 182.931 159.897 183.192C160.415 183.448 160.812 183.837 161.089 184.36C161.367 184.883 161.505 185.541 161.505 186.336C161.505 186.549 161.5 186.739 161.489 186.904C161.479 187.069 161.46 187.235 161.433 187.4L159.385 186.624C159.396 186.555 159.404 186.483 159.409 186.408C159.415 186.333 159.417 186.264 159.417 186.2C159.417 185.661 159.289 185.24 159.033 184.936C158.783 184.627 158.457 184.472 158.057 184.472C157.753 184.472 157.484 184.563 157.249 184.744C157.015 184.92 156.831 185.168 156.697 185.488C156.564 185.808 156.497 186.189 156.497 186.632V187.024C156.497 187.488 156.58 187.885 156.745 188.216C156.916 188.547 157.177 188.8 157.529 188.976C157.881 189.152 158.332 189.24 158.881 189.24C159.095 189.24 159.34 189.221 159.617 189.184C159.9 189.141 160.185 189.08 160.473 189C160.767 188.915 161.039 188.808 161.289 188.68L161.369 190.696C161.161 190.792 160.919 190.88 160.641 190.96C160.369 191.035 160.06 191.093 159.713 191.136C159.367 191.184 158.993 191.208 158.593 191.208ZM155.089 187.4V186.12L160.041 186.016L161.433 186.408V187.4H155.089ZM166.369 191.216C165.777 191.216 165.27 191.128 164.849 190.952C164.433 190.771 164.113 190.483 163.889 190.088C163.67 189.693 163.561 189.173 163.561 188.528C163.561 188.181 163.561 187.827 163.561 187.464C163.561 187.096 163.561 186.712 163.561 186.312C163.561 185.912 163.561 185.491 163.561 185.048C163.561 184.605 163.561 184.128 163.561 183.616C163.561 183.013 163.561 182.461 163.561 181.96C163.561 181.459 163.561 180.947 163.561 180.424L165.913 180C165.913 180.416 165.913 180.811 165.913 181.184C165.913 181.552 165.913 181.933 165.913 182.328C165.913 182.717 165.913 183.147 165.913 183.616V187.776C165.913 188.261 166.001 188.632 166.177 188.888C166.358 189.139 166.651 189.264 167.057 189.264C167.227 189.264 167.414 189.235 167.617 189.176C167.819 189.112 168.014 189.013 168.201 188.88L168.337 190.816C168.198 190.901 168.022 190.973 167.809 191.032C167.595 191.091 167.363 191.136 167.113 191.168C166.862 191.2 166.614 191.216 166.369 191.216ZM162.265 184.816V183.016H168.297V184.816C167.795 184.816 167.291 184.816 166.785 184.816C166.283 184.816 165.798 184.816 165.329 184.816H164.265H162.265ZM175.069 191.216C174.269 191.216 173.664 190.979 173.253 190.504C172.842 190.029 172.637 189.323 172.637 188.384C172.637 188.027 172.637 187.717 172.637 187.456C172.637 187.195 172.637 186.925 172.637 186.648C172.637 186.12 172.637 185.656 172.637 185.256C172.637 184.851 172.637 184.472 172.637 184.12C172.637 183.763 172.637 183.395 172.637 183.016L175.029 182.944C175.029 183.515 175.029 184.077 175.029 184.632C175.029 185.181 175.029 185.752 175.029 186.344V187.672C175.029 188.136 175.106 188.488 175.261 188.728C175.416 188.963 175.693 189.08 176.093 189.08C176.312 189.08 176.514 189.035 176.701 188.944C176.893 188.848 177.066 188.723 177.221 188.568C177.376 188.408 177.517 188.232 177.645 188.04V186.344C177.645 185.752 177.645 185.192 177.645 184.664C177.645 184.131 177.645 183.581 177.645 183.016H180.037C180.037 183.581 180.037 184.141 180.037 184.696C180.037 185.251 180.037 185.901 180.037 186.648V187.544C180.037 188.205 180.037 188.805 180.037 189.344C180.037 189.877 180.037 190.429 180.037 191H178.029L177.925 189.728H177.717C177.541 189.984 177.325 190.227 177.069 190.456C176.818 190.68 176.525 190.861 176.189 191C175.858 191.144 175.485 191.216 175.069 191.216ZM181.906 194.144C181.906 193.573 181.906 193.008 181.906 192.448C181.906 191.888 181.906 191.277 181.906 190.616V186.744C181.906 186.131 181.906 185.515 181.906 184.896C181.906 184.277 181.906 183.651 181.906 183.016L184.026 182.896L184.098 183.992H184.29C184.45 183.741 184.642 183.528 184.866 183.352C185.095 183.171 185.354 183.035 185.642 182.944C185.93 182.848 186.247 182.8 186.594 182.8C187.298 182.8 187.89 182.984 188.37 183.352C188.85 183.72 189.213 184.221 189.458 184.856C189.703 185.491 189.826 186.205 189.826 187C189.826 187.741 189.709 188.432 189.474 189.072C189.245 189.712 188.893 190.229 188.418 190.624C187.943 191.019 187.343 191.216 186.618 191.216C186.293 191.216 185.997 191.171 185.73 191.08C185.469 190.995 185.231 190.872 185.018 190.712C184.805 190.552 184.613 190.36 184.442 190.136H184.298V190.744C184.298 191.341 184.298 191.901 184.298 192.424C184.298 192.952 184.298 193.501 184.298 194.072L181.906 194.144ZM185.714 189.184C186.093 189.184 186.405 189.08 186.65 188.872C186.901 188.664 187.085 188.397 187.202 188.072C187.319 187.741 187.378 187.389 187.378 187.016C187.378 186.627 187.317 186.269 187.194 185.944C187.071 185.613 186.885 185.349 186.634 185.152C186.389 184.955 186.077 184.856 185.698 184.856C185.511 184.856 185.33 184.885 185.154 184.944C184.983 184.997 184.823 185.077 184.674 185.184C184.53 185.291 184.405 185.419 184.298 185.568V188.288C184.394 188.469 184.509 188.627 184.642 188.76C184.775 188.893 184.93 188.997 185.106 189.072C185.287 189.147 185.49 189.184 185.714 189.184Z" fill="white"/>
</g>
<g clip-path="url(#clip1_189_752)">
<path fill-rule="evenodd" clip-rule="evenodd" d="M296.133 159.133H293V156H296.133V159.133ZM308.667 159.133H305.533V156H308.667V159.133ZM321.2 159.133H318.067V156H321.2V159.133ZM302.4 165.4H336.867V177.933H333.733V168.533H305.533V196.733H314.933V199.867H302.4V165.4ZM296.133 171.667H293V168.533H296.133V171.667ZM315.391 178.391C315.588 178.193 315.835 178.052 316.106 177.982C316.376 177.912 316.661 177.916 316.929 177.993L338.863 184.26C339.173 184.348 339.449 184.531 339.652 184.783C339.855 185.035 339.974 185.343 339.995 185.666C340.016 185.989 339.936 186.31 339.767 186.585C339.598 186.861 339.348 187.077 339.051 187.205L328.66 191.66L324.208 202.051C324.08 202.348 323.864 202.598 323.588 202.767C323.313 202.936 322.992 203.016 322.669 202.995C322.346 202.974 322.038 202.855 321.786 202.652C321.535 202.449 321.352 202.173 321.263 201.863L314.996 179.929C314.919 179.661 314.915 179.378 314.985 179.108C315.054 178.838 315.194 178.588 315.391 178.391ZM318.781 181.781L323.061 196.765L326.025 189.849C326.184 189.479 326.479 189.184 326.849 189.025L333.765 186.061L318.781 181.781ZM296.133 184.2H293V181.067H296.133V184.2Z" fill="black"/>
</g>
</g>
<defs>
<filter id="filter0_d_189_752" x="0.5" y="0.5" width="467" height="529" filterUnits="userSpaceOnUse" color-interpolation-filters="sRGB">
<feFlood flood-opacity="0" result="BackgroundImageFix"/>
<feColorMatrix in="SourceAlpha" type="matrix" values="0 0 0 0 0 0 0 0 0 0 0 0 0 0 0 0 0 0 127 0" result="hardAlpha"/>
<feOffset dy="24"/>
<feGaussianBlur stdDeviation="24"/>
<feColorMatrix type="matrix" values="0 0 0 0 0 0 0 0 0 0 0 0 0 0 0 0 0 0 0.04 0"/>
<feBlend mode="normal" in2="BackgroundImageFix" result="effect1_dropShadow_189_752"/>
<feBlend mode="normal" in="SourceGraphic" in2="effect1_dropShadow_189_752" result="shape"/>
</filter>
<filter id="filter1_d_189_752" x="65.5472" y="50.283" width="336.906" height="212.717" filterUnits="userSpaceOnUse" color-interpolation-filters="sRGB">
<feFlood flood-opacity="0" result="BackgroundImageFix"/>
<feColorMatrix in="SourceAlpha" type="matrix" values="0 0 0 0 0 0 0 0 0 0 0 0 0 0 0 0 0 0 127 0" result="hardAlpha"/>
<feOffset/>
<feGaussianBlur stdDeviation="12"/>
<feColorMatrix type="matrix" values="0 0 0 0 0.771294 0 0 0 0 0.946353 0 0 0 0 0.898212 0 0 0 1 0"/>
<feBlend mode="normal" in2="BackgroundImageFix" result="effect1_dropShadow_189_752"/>
<feBlend mode="normal" in="SourceGraphic" in2="effect1_dropShadow_189_752" result="shape"/>
</filter>
<linearGradient id="paint0_linear_189_752" x1="166.5" y1="164.639" x2="166.5" y2="204.361" gradientUnits="userSpaceOnUse">
<stop stop-color="#41FFFF"/>
<stop offset="1" stop-color="#12E1FF"/>
</linearGradient>
<clipPath id="clip0_189_752">
<rect width="336" height="194" fill="white" transform="translate(66 45)"/>
</clipPath>
<clipPath id="clip1_189_752">
<rect width="47" height="47" fill="white" transform="translate(293 156)"/>
</clipPath>
</defs>
</svg>
